<?xml version="1.0" encoding="UTF-8"?>
<svg xmlns="http://www.w3.org/2000/svg" xmlns:xlink="http://www.w3.org/1999/xlink" width="261px" height="381px" viewBox="0 0 261 381" version="1.1">
<g id="surface1">
<path style="fill-rule:nonzero;fill:rgb(100%,100%,100%);fill-opacity:1;stroke-width:5;stroke-linecap:butt;stroke-linejoin:round;stroke:rgb(24.705882%,30.196078%,56.470588%);stroke-opacity:1;stroke-miterlimit:4;" d="M 345.054654 843.193099 L 750.581949 843.193099 L 750.581949 867.866234 L 345.054654 867.866234 Z M 345.054654 843.193099 " transform="matrix(0.282734,0,0,0.282601,0,0.00563212)"/>
<path style="fill-rule:nonzero;fill:rgb(100%,100%,100%);fill-opacity:1;stroke-width:6;stroke-linecap:butt;stroke-linejoin:miter;stroke:rgb(84.705882%,72.941176%,63.921569%);stroke-opacity:1;stroke-miterlimit:10;" d="M 803.787373 790.197693 C 803.787373 563.481301 916.373975 438.719555 916.373975 438.719555 L 581.695139 438.719555 C 581.695139 438.719555 469.108537 563.481301 469.108537 790.197693 Z M 803.787373 790.197693 " transform="matrix(0.282734,0,0,0.282601,0,0.00563212)"/>
<path style="fill-rule:nonzero;fill:rgb(100%,100%,100%);fill-opacity:1;stroke-width:6;stroke-linecap:butt;stroke-linejoin:miter;stroke:rgb(84.705882%,72.941176%,63.921569%);stroke-opacity:1;stroke-miterlimit:10;" d="M 348.342862 790.197693 L 803.787373 790.197693 C 803.787373 819.473716 780.065298 843.193099 750.789189 843.193099 L 295.344678 843.193099 C 295.344678 813.930899 319.066754 790.197693 348.342862 790.197693 Z M 348.342862 790.197693 " transform="matrix(0.282734,0,0,0.282601,0,0.00563212)"/>
<path style="fill-rule:nonzero;fill:rgb(100%,100%,100%);fill-opacity:1;stroke-width:5;stroke-linecap:butt;stroke-linejoin:round;stroke:rgb(24.705882%,30.196078%,56.470588%);stroke-opacity:1;stroke-miterlimit:4;" d="M 746.3957 1337.996581 C 743.646316 1337.996581 741.297596 1336.061433 740.786404 1333.366049 L 651.67319 867.880057 L 702.75095 867.880057 L 752.074077 1331.679705 C 752.239869 1333.296936 751.728677 1334.900344 750.637213 1336.102901 C 749.559565 1337.319279 748.012173 1337.996581 746.3957 1337.996581 Z M 746.3957 1337.996581 " transform="matrix(0.282734,0,0,0.282601,0,0.00563212)"/>
<path style="fill-rule:nonzero;fill:rgb(100%,100%,100%);fill-opacity:1;stroke-width:5;stroke-linecap:butt;stroke-linejoin:round;stroke:rgb(24.705882%,30.196078%,56.470588%);stroke-opacity:1;stroke-miterlimit:4;" d="M 350.083679 1337.996581 C 352.819247 1337.996581 355.167967 1336.061433 355.692975 1333.366049 L 444.806189 867.880057 L 393.728429 867.880057 L 344.405302 1331.679705 C 344.225694 1333.296936 344.750702 1334.900344 345.82835 1336.102901 C 346.919814 1337.319279 348.45339 1337.996581 350.083679 1337.996581 Z M 350.083679 1337.996581 " transform="matrix(0.282734,0,0,0.282601,0,0.00563212)"/>
<path style=" stroke:none;fill-rule:nonzero;fill:rgb(100%,69.019608%,0%);fill-opacity:1;" d="M 70.90625 164.089844 C 109.640625 173.414062 129.046875 162.910156 132.566406 156.5 C 132.566406 156.5 130.628906 144.464844 132.058594 125.8125 C 133.488281 107.15625 130.480469 65.375 130.480469 65.375 C 121.945312 68.65625 109.453125 73.910156 105.738281 84.84375 C 102.019531 95.78125 101.433594 125.746094 101.214844 138.554688 C 101.214844 138.554688 81.339844 145.371094 72.4375 150.023438 C 70.402344 151.082031 69.265625 153.320312 69.609375 155.589844 Z M 70.90625 164.089844 "/>
<path style="fill:none;stroke-width:5;stroke-linecap:butt;stroke-linejoin:round;stroke:rgb(100%,100%,100%);stroke-opacity:1;stroke-miterlimit:4;" d="M 386.005284 490.2636 C 386.005284 490.2636 372.355074 484.845186 345.220446 490.844144 " transform="matrix(0.282734,0,0,0.282601,0,0.00563212)"/>
<path style=" stroke:none;fill-rule:nonzero;fill:rgb(76.470588%,43.529412%,4.313725%);fill-opacity:1;" d="M 73.082031 157.261719 C 73.511719 159.914062 72.40625 162.578125 70.226562 164.144531 L 69.78125 164.460938 C 66.746094 166.554688 60.929688 168.246094 59.550781 168.152344 C 58.167969 168.058594 49.6875 166.492188 49.6875 166.492188 C 49.6875 166.492188 49.386719 165.335938 50.625 163.8125 C 51.867188 162.289062 60.960938 163.5 57.636719 160.15625 C 56.15625 158.667969 48.792969 162.023438 45.589844 165.742188 C 42.382812 169.460938 40.863281 166.515625 40.863281 166.515625 C 40.863281 166.515625 43.929688 159.625 45.023438 158.378906 C 46.121094 157.132812 53.4375 151.839844 58.382812 151.03125 C 60.738281 150.644531 64.054688 150.863281 67.34375 151.433594 C 70.304688 151.957031 72.605469 154.296875 73.082031 157.261719 Z M 73.082031 157.261719 "/>
<path style=" stroke:none;fill-rule:nonzero;fill:rgb(76.470588%,43.529412%,4.313725%);fill-opacity:1;" d="M 94.269531 365.921875 C 97.394531 365.214844 101.71875 363.703125 104.128906 360.511719 L 105.496094 353.132812 C 105.496094 353.132812 96.503906 354.15625 88.292969 353.371094 L 89.882812 363.027344 C 90.0625 364.003906 90.628906 364.863281 91.457031 365.410156 C 92.285156 365.957031 93.300781 366.144531 94.269531 365.921875 Z M 94.269531 365.921875 "/>
<path style=" stroke:none;fill-rule:nonzero;fill:rgb(100%,69.019608%,0%);fill-opacity:1;" d="M 57.675781 374.957031 C 57.726562 375.507812 58.714844 378.125 58.714844 378.125 L 109.289062 376.410156 L 109.289062 373.585938 C 109.289062 368.855469 107.679688 364.769531 106.828125 362.996094 C 105.515625 360.257812 103.695312 360.941406 103.695312 360.941406 C 103.695312 360.941406 98.75 365.773438 93.203125 365.773438 C 92.132812 365.773438 91.367188 365.207031 90.820312 364.382812 C 90.492188 363.871094 90.238281 363.320312 90.0625 362.738281 C 89.832031 361.980469 89.667969 361.207031 89.574219 360.421875 C 89.492188 359.746094 89.082031 359.15625 88.480469 358.839844 C 87.882812 358.523438 87.164062 358.519531 86.558594 358.828125 C 84.382812 359.960938 81.738281 362.453125 74.660156 366.273438 C 74.304688 366.464844 73.9375 366.660156 73.558594 366.863281 C 64.949219 371.390625 57.773438 369.703125 57.675781 374.957031 Z M 57.675781 374.957031 "/>
<path style=" stroke:none;fill-rule:nonzero;fill:rgb(24.705882%,30.196078%,47.45098%);fill-opacity:1;" d="M 63.367188 380.625 C 61.90625 380.625 60.117188 379.960938 59.160156 378.890625 C 57.949219 377.472656 57.464844 375.582031 57.84375 373.761719 L 57.882812 373.761719 C 58.300781 375.964844 60.203125 377.574219 62.449219 377.625 L 106.289062 376.34375 C 107.652344 376.34375 108.816406 375.402344 109.289062 374.082031 L 109.289062 377.027344 C 109.289062 379.019531 107.847656 380.632812 106.0625 380.632812 Z M 63.367188 380.625 "/>
<path style=" stroke:none;fill-rule:nonzero;fill:rgb(24.705882%,30.196078%,47.45098%);fill-opacity:1;" d="M 72.757812 367.273438 C 78.03125 368.226562 82.292969 372.117188 83.722656 377.277344 L 85.742188 377.207031 C 84.441406 371.910156 80.519531 367.644531 75.347656 365.902344 L 74.660156 366.273438 C 74.308594 366.464844 73.941406 366.660156 73.5625 366.863281 C 73.292969 367.007812 73.027344 367.144531 72.757812 367.273438 Z M 72.757812 367.273438 "/>
<path style=" stroke:none;fill-rule:nonzero;fill:rgb(24.705882%,30.196078%,47.45098%);fill-opacity:1;" d="M 67.753906 369.210938 L 67.753906 369.476562 C 73.007812 369.480469 77.761719 372.59375 79.867188 377.40625 L 81.964844 377.335938 C 80.183594 372.636719 76.203125 369.117188 71.316406 367.929688 C 70.152344 368.417969 68.964844 368.847656 67.753906 369.210938 Z M 67.753906 369.210938 "/>
<path style=" stroke:none;fill-rule:nonzero;fill:rgb(76.470588%,43.529412%,4.313725%);fill-opacity:1;" d="M 155.710938 365.921875 C 158.839844 365.214844 162.878906 363.703125 165.285156 360.511719 L 166.09375 352.519531 C 166.09375 352.519531 157.65625 353.257812 149.445312 352.46875 L 151.332031 363.027344 C 151.507812 364.003906 152.074219 364.863281 152.902344 365.410156 C 153.730469 365.957031 154.746094 366.144531 155.710938 365.921875 Z M 155.710938 365.921875 "/>
<path style=" stroke:none;fill-rule:nonzero;fill:rgb(100%,75.294118%,20%);fill-opacity:1;" d="M 121.984375 374.957031 C 122.03125 375.507812 123.019531 378.125 123.019531 378.125 L 170.734375 376.410156 L 170.734375 373.585938 C 170.734375 368.855469 169.125 364.769531 168.277344 362.996094 C 166.960938 360.257812 165.144531 360.371094 165.144531 360.371094 C 165.144531 360.371094 160.195312 365.773438 154.648438 365.773438 C 153.582031 365.773438 152.816406 365.207031 152.269531 364.382812 C 151.941406 363.871094 151.6875 363.320312 151.511719 362.738281 C 151.28125 361.980469 151.117188 361.207031 151.023438 360.421875 C 150.941406 359.746094 150.53125 359.15625 149.929688 358.839844 C 149.328125 358.523438 148.609375 358.519531 148.003906 358.828125 C 145.828125 359.960938 146.042969 362.453125 138.957031 366.273438 C 138.605469 366.464844 138.238281 366.660156 137.859375 366.863281 C 129.25 371.390625 122.074219 369.703125 121.984375 374.957031 Z M 121.984375 374.957031 "/>
<path style=" stroke:none;fill-rule:nonzero;fill:rgb(24.705882%,30.196078%,47.45098%);fill-opacity:1;" d="M 127.671875 380.625 C 126.207031 380.625 124.417969 379.960938 123.460938 378.890625 C 122.253906 377.472656 121.769531 375.582031 122.148438 373.761719 L 122.1875 373.761719 C 122.605469 375.964844 124.507812 377.574219 126.75 377.625 L 167.746094 376.34375 C 169.105469 376.34375 170.269531 375.402344 170.742188 374.082031 L 170.742188 377.027344 C 170.742188 379.019531 169.296875 380.632812 167.515625 380.632812 Z M 127.671875 380.625 "/>
<path style=" stroke:none;fill-rule:nonzero;fill:rgb(24.705882%,30.196078%,47.45098%);fill-opacity:1;" d="M 137.058594 367.273438 C 142.332031 368.226562 146.59375 372.117188 148.023438 377.277344 L 150.042969 377.207031 C 148.742188 371.910156 144.820312 367.644531 139.648438 365.902344 L 138.964844 366.273438 C 138.609375 366.464844 138.242188 366.660156 137.863281 366.863281 C 137.597656 367.007812 137.328125 367.144531 137.058594 367.273438 Z M 137.058594 367.273438 "/>
<path style=" stroke:none;fill-rule:nonzero;fill:rgb(24.705882%,30.196078%,47.45098%);fill-opacity:1;" d="M 132.054688 369.210938 L 132.054688 369.476562 C 137.3125 369.480469 142.066406 372.59375 144.167969 377.40625 L 146.265625 377.335938 C 144.488281 372.636719 140.503906 369.117188 135.617188 367.929688 C 134.453125 368.417969 133.265625 368.847656 132.054688 369.210938 Z M 132.054688 369.210938 "/>
<path style=" stroke:none;fill-rule:nonzero;fill:rgb(84.705882%,72.941176%,63.921569%);fill-opacity:1;" d="M 168.695312 237.671875 C 168.695312 237.671875 189.109375 266.738281 171.191406 351.5625 C 171.191406 351.5625 161.804688 354.710938 146.835938 352.410156 C 146.835938 352.410156 126.578125 269.933594 123.820312 234.195312 C 118.851562 234.046875 113.703125 233.957031 108.394531 233.957031 C 108.394531 233.957031 129.804688 277.699219 109.023438 353.105469 C 109.023438 353.105469 93.710938 354.199219 85.664062 353.054688 C 85.664062 353.054688 60.953125 229.761719 62.550781 218.296875 C 64.464844 204.5 107.953125 186.878906 135.3125 184.394531 L 196.539062 184.015625 C 196.539062 184.015625 212.234375 199.839844 205.683594 222.292969 C 200.769531 239.140625 168.695312 237.671875 168.695312 237.671875 Z M 168.695312 237.671875 "/>
<path style=" stroke:none;fill-rule:nonzero;fill:rgb(94.117647%,88.235294%,83.137255%);fill-opacity:1;" d="M 201 189.832031 C 201.199219 190.433594 201.503906 190.992188 201.898438 191.484375 C 201.898438 191.484375 148.246094 209.742188 125.667969 186.773438 C 150.199219 195.355469 190.457031 191.152344 201 189.832031 Z M 201 189.832031 "/>
<path style=" stroke:none;fill-rule:nonzero;fill:rgb(100%,69.019608%,0%);fill-opacity:1;" d="M 178.355469 50.511719 C 181.140625 52.800781 215.5 72.703125 220.421875 75.441406 C 225.34375 78.175781 197.457031 138.214844 198.328125 159.636719 C 198.972656 175.535156 203.335938 189.484375 203.335938 189.484375 C 203.335938 189.484375 154.117188 196.726562 125.667969 186.773438 C 125.667969 186.773438 131.574219 178.011719 128.292969 159.871094 C 125.632812 145.148438 120.21875 104.285156 121.726562 88.5625 C 122.277344 82.875 123.261719 68.769531 130.492188 65.375 C 141.433594 60.242188 148.984375 55.769531 148.984375 55.769531 Z M 178.355469 50.511719 "/>
<path style="fill:none;stroke-width:5;stroke-linecap:butt;stroke-linejoin:round;stroke:rgb(100%,100%,100%);stroke-opacity:1;stroke-miterlimit:4;" d="M 453.745143 568.692377 C 444.336445 516.595433 425.753922 413.479698 439.639005 343.689973 " transform="matrix(0.282734,0,0,0.282601,0,0.00563212)"/>
<path style=" stroke:none;fill-rule:nonzero;fill:rgb(100%,69.019608%,0%);fill-opacity:1;" d="M 220.421875 75.605469 C 235.085938 88.511719 236.480469 141.839844 227.207031 151.558594 C 209.042969 170.589844 154.21875 170.375 154.21875 170.375 C 154.21875 170.375 148.484375 169.546875 151.765625 156.203125 C 151.765625 156.203125 192.410156 135.6875 196.351562 135.808594 C 196.351562 135.808594 195.695312 97.75 204.007812 86.378906 C 212.324219 75.003906 218.699219 74.085938 220.421875 75.605469 Z M 220.421875 75.605469 "/>
<path style="fill:none;stroke-width:5;stroke-linecap:round;stroke-linejoin:round;stroke:rgb(100%,100%,100%);stroke-opacity:1;stroke-miterlimit:4;" d="M 706.647062 586.882767 C 630.534706 606.234246 545.455765 603.884423 545.455765 603.884423 " transform="matrix(0.282734,0,0,0.282601,0,0.00563212)"/>
<path style="fill:none;stroke-width:5;stroke-linecap:butt;stroke-linejoin:round;stroke:rgb(100%,100%,100%);stroke-opacity:1;stroke-miterlimit:4;" d="M 536.779316 551.704544 C 536.779316 551.704544 613.195624 508.813374 694.475164 479.537352 C 694.475164 479.537352 697.846269 376.338681 706.398374 346.053618 " transform="matrix(0.282734,0,0,0.282601,0,0.00563212)"/>
<path style=" stroke:none;fill-rule:nonzero;fill:rgb(76.470588%,43.529412%,4.313725%);fill-opacity:1;" d="M 152.605469 156 C 152.605469 156 140.335938 151.371094 136.367188 153.699219 C 132.027344 156.242188 123.992188 164.371094 123.523438 165.738281 C 123.054688 167.109375 123.199219 168.535156 123.285156 170.003906 C 123.367188 171.472656 138.070312 171.449219 139.8125 171.347656 C 141.554688 171.246094 151.101562 172.277344 152.714844 170.527344 C 158.632812 164.113281 152.605469 156 152.605469 156 Z M 152.605469 156 "/>
<path style=" stroke:none;fill-rule:nonzero;fill:rgb(71.372549%,35.294118%,9.411765%);fill-opacity:1;" d="M 175.890625 31.308594 C 175.890625 31.308594 172.609375 39.503906 178.355469 50.527344 C 178.355469 50.527344 170.472656 61.742188 157.996094 61.671875 C 141.882812 61.585938 148.96875 55.769531 148.96875 55.769531 C 148.96875 55.769531 151.433594 51.828125 150.949219 44.773438 Z M 175.890625 31.308594 "/>
<path style=" stroke:none;fill-rule:nonzero;fill:rgb(76.470588%,43.529412%,4.313725%);fill-opacity:1;" d="M 173.371094 36.179688 C 173.042969 37.710938 172.996094 44.324219 170.261719 46.183594 C 166.722656 48.589844 156.304688 52.367188 148.429688 49.523438 C 147.421875 49.160156 142.410156 34.429688 142.738281 29.398438 C 143.066406 24.367188 143.175781 6.542969 154.332031 2.058594 C 165.484375 -2.425781 178.835938 0.078125 182.558594 13.210938 C 184.078125 18.582031 182.824219 23.386719 180.808594 27.203125 C 180.808594 27.203125 182.097656 29.515625 180.03125 31.816406 C 177.78125 34.332031 173.371094 36.179688 173.371094 36.179688 Z M 173.371094 36.179688 "/>
<path style=" stroke:none;fill-rule:nonzero;fill:rgb(44.705882%,17.647059%,32.941176%);fill-opacity:1;" d="M 180.8125 27.199219 C 178.191406 24.234375 174.578125 29.507812 174.578125 29.507812 L 174.527344 29.789062 C 173.539062 29.253906 172.695312 28.484375 172.078125 27.546875 C 170.566406 25.265625 170.441406 22.722656 170.644531 13.585938 C 170.644531 13.585938 155.996094 15.132812 145.375 12.582031 C 147.003906 8.023438 149.730469 3.898438 154.335938 2.050781 C 165.496094 -2.4375 178.847656 0.0703125 182.5625 13.203125 C 184.085938 18.570312 182.828125 23.382812 180.8125 27.199219 Z M 180.8125 27.199219 "/>
<path style=" stroke:none;fill-rule:nonzero;fill:rgb(94.117647%,88.235294%,83.137255%);fill-opacity:1;" d="M 161.394531 57.335938 C 163.433594 56.390625 171.894531 53.308594 177.875 47.257812 C 177.875 47.257812 183.84375 53.042969 183.898438 54.070312 C 183.953125 55.097656 171.257812 63.699219 167.683594 64.066406 Z M 161.394531 57.335938 "/>
<path style=" stroke:none;fill-rule:nonzero;fill:rgb(94.117647%,88.235294%,83.137255%);fill-opacity:1;" d="M 148.984375 52.691406 C 149.550781 53.710938 150.980469 56.117188 155.066406 57.210938 C 155.066406 57.210938 152.074219 62.097656 149.300781 63.628906 C 149.300781 63.628906 144.777344 61.648438 143.546875 59.070312 C 142.734375 57.375 148.984375 52.691406 148.984375 52.691406 Z M 148.984375 52.691406 "/>
<path style=" stroke:none;fill-rule:nonzero;fill:rgb(84.705882%,72.941176%,63.921569%);fill-opacity:1;" d="M 155.066406 57.210938 L 158 61.65625 L 161.394531 57.335938 L 164.503906 60.660156 C 164.503906 60.660156 160.164062 62.726562 152.0625 61.246094 Z M 155.066406 57.210938 "/>
<path style="fill-rule:nonzero;fill:rgb(100%,100%,100%);fill-opacity:1;stroke-width:6;stroke-linecap:butt;stroke-linejoin:miter;stroke:rgb(84.705882%,72.941176%,63.921569%);stroke-opacity:1;stroke-miterlimit:10;" d="M 0 603.995003 L 544.778781 603.995003 C 555.831583 603.995003 564.784352 612.951973 564.784352 623.996138 L 564.784352 629.303972 C 564.784352 640.348138 555.831583 649.305108 544.778781 649.305108 L 0.994752 649.305108 " transform="matrix(0.282734,0,0,0.282601,0,0.00563212)"/>
<path style=" stroke:none;fill-rule:nonzero;fill:rgb(100%,100%,100%);fill-opacity:1;" d="M 121.5625 380.996094 L 121.5625 183.703125 L 133.867188 183.703125 L 133.867188 380.988281 "/>
<path style=" stroke:none;fill-rule:nonzero;fill:rgb(94.117647%,88.235294%,83.137255%);fill-opacity:1;" d="M 121.5625 187.625 L 121.5625 183.703125 L 133.867188 183.703125 L 133.867188 197.335938 Z M 121.5625 187.625 "/>
<path style="fill:none;stroke-width:6;stroke-linecap:butt;stroke-linejoin:miter;stroke:rgb(84.705882%,72.941176%,63.921569%);stroke-opacity:1;stroke-miterlimit:10;" d="M 429.953987 1347.133243 L 429.953987 650.023877 L 473.474394 650.023877 L 473.474394 1347.119421 " transform="matrix(0.282734,0,0,0.282601,0,0.00563212)"/>
<path style="fill-rule:nonzero;fill:rgb(100%,100%,100%);fill-opacity:1;stroke-width:5;stroke-linecap:butt;stroke-linejoin:miter;stroke:rgb(24.705882%,30.196078%,56.470588%);stroke-opacity:1;stroke-miterlimit:10;" d="M 447.831894 603.995003 L 229.994988 603.995003 C 223.031723 603.995003 216.690178 600.000305 213.692105 593.724897 L 143.285758 446.598371 C 141.904158 443.723294 142.097582 440.350608 143.79695 437.655223 C 145.496319 434.973661 148.452943 433.342608 151.64444 433.342608 L 369.46753 433.342608 C 376.430795 433.342608 382.77234 437.337306 385.784228 443.626537 L 456.190575 590.766885 C 457.558359 593.62814 457.351119 597.000826 455.665567 599.682388 C 453.966199 602.36395 451.009574 603.995003 447.831894 603.995003 Z M 447.831894 603.995003 " transform="matrix(0.282734,0,0,0.282601,0,0.00563212)"/>
<path style=" stroke:none;fill-rule:nonzero;fill:rgb(94.117647%,88.235294%,83.137255%);fill-opacity:1;" d="M 126.519531 170.070312 L 65.921875 170.070312 C 64.082031 170.003906 62.429688 168.921875 61.636719 167.261719 L 52.871094 148.9375 L 53.003906 148.703125 L 119.445312 148.703125 L 119.558594 148.933594 L 127.941406 166.453125 C 129.210938 168.5 128.382812 170.070312 126.519531 170.070312 Z M 126.519531 170.070312 "/>
<path style="fill-rule:nonzero;fill:rgb(100%,100%,100%);fill-opacity:1;stroke-width:5;stroke-linecap:butt;stroke-linejoin:round;stroke:rgb(24.705882%,30.196078%,56.470588%);stroke-opacity:1;stroke-miterlimit:4;" d="M 424.994042 525.856498 L 385.148692 595.438885 C 382.15062 600.677607 375.795259 604.022648 368.831994 604.022648 L 150.995088 604.022648 C 144.183798 604.022648 139.693598 598.07898 142.636406 592.937015 L 181.08634 525.856498 Z M 424.994042 525.856498 " transform="matrix(0.282734,0,0,0.282601,0,0.00563212)"/>
</g>
</svg>
