<?xml version="1.0" encoding="UTF-8"?>
<svg xmlns="http://www.w3.org/2000/svg" xmlns:xlink="http://www.w3.org/1999/xlink" width="1728pt" height="1295.99994pt" viewBox="0 0 1728 1295.99994" version="1.2">
<defs>
<clipPath id="clip1">
  <path d="M 1214 461 L 1463.199219 461 L 1463.199219 702 L 1214 702 Z M 1214 461 "/>
</clipPath>
<clipPath id="clip2">
  <path d="M 1130 908 L 1216 908 L 1216 920.621094 L 1130 920.621094 Z M 1130 908 "/>
</clipPath>
<clipPath id="clip3">
  <path d="M 1236 908 L 1316 908 L 1316 920.621094 L 1236 920.621094 Z M 1236 908 "/>
</clipPath>
<clipPath id="clip4">
  <path d="M 1269 297.371094 L 1337 297.371094 L 1337 381 L 1269 381 Z M 1269 297.371094 "/>
</clipPath>
<clipPath id="clip5">
  <path d="M 1274 297.371094 L 1337 297.371094 L 1337 347 L 1274 347 Z M 1274 297.371094 "/>
</clipPath>
<clipPath id="clip6">
  <path d="M 1036.449219 576 L 1298 576 L 1298 598 L 1036.449219 598 Z M 1036.449219 576 "/>
</clipPath>
<clipPath id="clip7">
  <path d="M 1036.449219 537 L 1337 537 L 1337 637 L 1036.449219 637 Z M 1036.449219 537 "/>
</clipPath>
<clipPath id="clip8">
  <path d="M 1235 597 L 1256 597 L 1256 920.621094 L 1235 920.621094 Z M 1235 597 "/>
</clipPath>
<clipPath id="clip9">
  <path d="M 1233 596 L 1257 596 L 1257 920.621094 L 1233 920.621094 Z M 1233 596 "/>
</clipPath>
<clipPath id="clip10">
  <path d="M 506 853 L 657 853 L 657 920.621094 L 506 920.621094 Z M 506 853 "/>
</clipPath>
<clipPath id="clip11">
  <path d="M 540 846 L 632 846 L 632 920.621094 L 540 920.621094 Z M 540 846 "/>
</clipPath>
<clipPath id="clip12">
  <path d="M 535 840 L 629 840 L 629 920.621094 L 535 920.621094 Z M 535 840 "/>
</clipPath>
<clipPath id="clip13">
  <path d="M 574 856 L 699.179688 856 L 699.179688 920.621094 L 574 920.621094 Z M 574 856 "/>
</clipPath>
<clipPath id="clip14">
  <path d="M 613 850 L 699.179688 850 L 699.179688 920.621094 L 613 920.621094 Z M 613 850 "/>
</clipPath>
<clipPath id="clip15">
  <path d="M 608 844 L 698 844 L 698 920.621094 L 608 920.621094 Z M 608 844 "/>
</clipPath>
<clipPath id="clip16">
  <path d="M 369 297.371094 L 467 297.371094 L 467 395 L 369 395 Z M 369 297.371094 "/>
</clipPath>
<clipPath id="clip17">
  <path d="M 551 397 L 699.179688 397 L 699.179688 580 L 551 580 Z M 551 397 "/>
</clipPath>
<clipPath id="clip18">
  <path d="M 585 440 L 699.179688 440 L 699.179688 546 L 585 546 Z M 585 440 "/>
</clipPath>
<clipPath id="clip19">
  <path d="M 550 406 L 699.179688 406 L 699.179688 580 L 550 580 Z M 550 406 "/>
</clipPath>
<clipPath id="clip20">
  <path d="M 306.179688 470 L 598 470 L 598 763 L 306.179688 763 Z M 306.179688 470 "/>
</clipPath>
<clipPath id="clip21">
  <path d="M 306.179688 549 L 522 549 L 522 758 L 306.179688 758 Z M 306.179688 549 "/>
</clipPath>
<clipPath id="clip22">
  <path d="M 402 676 L 531 676 L 531 920.621094 L 402 920.621094 Z M 402 676 "/>
</clipPath>
<clipPath id="clip23">
  <path d="M 392 849 L 497 849 L 497 920.621094 L 392 920.621094 Z M 392 849 "/>
</clipPath>
<clipPath id="clip24">
  <path d="M 393 844 L 496 844 L 496 920.621094 L 393 920.621094 Z M 393 844 "/>
</clipPath>
<clipPath id="clip25">
  <path d="M 455 678 L 584 678 L 584 920.621094 L 455 920.621094 Z M 455 678 "/>
</clipPath>
<clipPath id="clip26">
  <path d="M 489 849 L 594 849 L 594 920.621094 L 489 920.621094 Z M 489 849 "/>
</clipPath>
<clipPath id="clip27">
  <path d="M 490 844 L 593 844 L 593 920.621094 L 490 920.621094 Z M 490 844 "/>
</clipPath>
</defs>
<g id="surface1">
<path style="fill-rule:nonzero;fill:rgb(100%,100%,100%);fill-opacity:1;stroke-width:5;stroke-linecap:butt;stroke-linejoin:round;stroke:rgb(24.708557%,30.198669%,56.469727%);stroke-opacity:1;stroke-miterlimit:4;" d="M 345.047662 843.1886 L 750.577101 843.1886 L 750.577101 867.873368 L 345.047662 867.873368 Z M 345.047662 843.1886 " transform="matrix(0.462387,0,0,0.462393,1036.450389,297.377267)"/>
<path style=" stroke:none;fill-rule:nonzero;fill:rgb(100%,100%,100%);fill-opacity:1;" d="M 1408.113281 662.761719 C 1408.113281 557.925781 1460.171875 500.238281 1460.171875 500.238281 L 1305.421875 500.238281 C 1305.421875 500.238281 1253.359375 557.925781 1253.359375 662.761719 Z M 1408.113281 662.761719 "/>
<g clip-path="url(#clip1)" clip-rule="nonzero">
<path style="fill:none;stroke-width:6;stroke-linecap:butt;stroke-linejoin:miter;stroke:rgb(84.709167%,72.938538%,63.919067%);stroke-opacity:1;stroke-miterlimit:10;" d="M 803.791066 790.203361 C 803.791066 563.478579 916.377588 438.719968 916.377588 438.719968 L 581.701542 438.719968 C 581.701542 438.719968 469.106571 563.478579 469.106571 790.203361 Z M 803.791066 790.203361 " transform="matrix(0.462387,0,0,0.462393,1036.450389,297.377267)"/>
</g>
<path style="fill-rule:nonzero;fill:rgb(100%,100%,100%);fill-opacity:1;stroke-width:6;stroke-linecap:butt;stroke-linejoin:miter;stroke:rgb(84.709167%,72.938538%,63.919067%);stroke-opacity:1;stroke-miterlimit:10;" d="M 348.342383 790.203361 L 803.791066 790.203361 C 803.791066 791.935181 803.706586 793.667001 803.537626 795.39882 C 803.368666 797.122192 803.106778 798.837116 802.768857 800.543592 C 802.430937 802.241621 802.008537 803.922753 801.510105 805.58699 C 801.003225 807.242778 800.420313 808.881671 799.752921 810.478325 C 799.093977 812.083426 798.350552 813.654736 797.531096 815.183806 C 796.71164 816.712876 795.8246 818.199707 794.861528 819.644298 C 793.890007 821.088889 792.859351 822.482793 791.761111 823.826009 C 790.654423 825.160778 789.497046 826.453307 788.263638 827.678252 C 787.038678 828.903198 785.754581 830.069008 784.411349 831.167236 C 783.068117 832.273911 781.682645 833.304555 780.238036 834.267615 C 778.793428 835.230676 777.30658 836.126154 775.777491 836.9456 C 774.239955 837.756599 772.677074 838.500014 771.071954 839.167398 C 769.466834 839.826335 767.836369 840.417688 766.172113 840.916114 C 764.516305 841.422988 762.835152 841.845383 761.128656 842.183299 C 759.430607 842.521215 757.715663 842.774652 755.983823 842.94361 C 754.26043 843.112568 752.52859 843.197047 750.788301 843.197047 L 295.339619 843.197047 C 295.339619 841.465228 295.424099 839.733408 295.593059 838.001588 C 295.762019 836.278216 296.023907 834.563292 296.361827 832.856816 C 296.699747 831.158788 297.122147 829.477655 297.620579 827.813419 C 298.127459 826.15763 298.710372 824.518737 299.377764 822.913636 C 300.036708 821.316982 300.780132 819.745673 301.599588 818.216603 C 302.419044 816.687532 303.306085 815.200702 304.269157 813.75611 C 305.240677 812.311519 306.271333 810.917616 307.369574 809.574399 C 308.467814 808.239631 309.633638 806.947102 310.867046 805.722156 C 312.092007 804.49721 313.376103 803.3314 314.719335 802.233173 C 316.062568 801.126498 317.44804 800.095854 318.892648 799.132793 C 320.337257 798.169732 321.824105 797.274255 323.353193 796.454808 C 324.89073 795.64381 326.45361 794.900394 328.05873 794.23301 C 329.663851 793.574074 331.294315 792.982721 332.958572 792.484294 C 334.61438 791.97742 336.295532 791.555025 338.002029 791.217109 C 339.700077 790.879193 341.415022 790.625756 343.146862 790.456798 C 344.870254 790.28784 346.602095 790.203361 348.342383 790.203361 Z M 348.342383 790.203361 " transform="matrix(0.462387,0,0,0.462393,1036.450389,297.377267)"/>
<path style="fill-rule:nonzero;fill:rgb(100%,100%,100%);fill-opacity:1;stroke-width:5;stroke-linecap:butt;stroke-linejoin:round;stroke:rgb(24.708557%,30.198669%,56.469727%);stroke-opacity:1;stroke-miterlimit:4;" d="M 746.386892 1337.99909 C 745.727948 1337.99909 745.0859 1337.889267 744.460748 1337.661174 C 743.835596 1337.441528 743.261132 1337.120508 742.754251 1336.689665 C 742.238923 1336.26727 741.816523 1335.777292 741.478603 1335.202835 C 741.140683 1334.636825 740.904139 1334.020128 740.777419 1333.36964 L 651.667894 867.881816 L 702.752962 867.881816 L 752.072398 1331.68006 C 752.156878 1332.48261 752.072398 1333.276713 751.827406 1334.045472 C 751.573965 1334.814231 751.185357 1335.506959 750.636237 1336.10676 C 750.095565 1336.706561 749.453517 1337.179643 748.718541 1337.509112 C 747.975117 1337.83858 747.1979 1337.99909 746.386892 1337.99909 Z M 746.386892 1337.99909 " transform="matrix(0.462387,0,0,0.462393,1036.450389,297.377267)"/>
<path style="fill-rule:nonzero;fill:rgb(100%,100%,100%);fill-opacity:1;stroke-width:5;stroke-linecap:butt;stroke-linejoin:round;stroke:rgb(24.708557%,30.198669%,56.469727%);stroke-opacity:1;stroke-miterlimit:4;" d="M 350.082672 1337.99909 C 350.741616 1337.99909 351.392112 1337.889267 352.008816 1337.661174 C 352.633968 1337.441528 353.208432 1337.120508 353.715312 1336.689665 C 354.230641 1336.26727 354.653041 1335.777292 354.990961 1335.202835 C 355.328881 1334.636825 355.565425 1334.020128 355.692145 1333.36964 L 444.80167 867.881816 L 393.733498 867.881816 L 344.397166 1331.68006 C 344.312686 1332.48261 344.397166 1333.276713 344.642158 1334.045472 C 344.895598 1334.814231 345.292654 1335.506959 345.833327 1336.10676 C 346.373999 1336.706561 347.016047 1337.179643 347.751023 1337.509112 C 348.494447 1337.83858 349.271663 1337.99909 350.082672 1337.99909 Z M 350.082672 1337.99909 " transform="matrix(0.462387,0,0,0.462393,1036.450389,297.377267)"/>
<path style=" stroke:none;fill-rule:nonzero;fill:rgb(100%,69.018555%,0%);fill-opacity:1;" d="M 1152.414062 565.851562 C 1215.757812 581.109375 1247.496094 563.917969 1253.25 553.433594 C 1253.25 553.433594 1250.082031 533.742188 1252.421875 503.222656 C 1254.761719 472.699219 1249.84375 404.339844 1249.84375 404.339844 C 1235.882812 409.707031 1215.453125 418.296875 1209.375 436.191406 C 1203.292969 454.085938 1202.335938 503.113281 1201.976562 524.074219 C 1201.976562 524.074219 1169.476562 535.222656 1154.914062 542.832031 C 1154.101562 543.257812 1153.375 543.792969 1152.730469 544.445312 C 1152.085938 545.097656 1151.554688 545.832031 1151.140625 546.648438 C 1150.726562 547.464844 1150.449219 548.324219 1150.300781 549.230469 C 1150.15625 550.132812 1150.152344 551.039062 1150.289062 551.941406 Z M 1152.414062 565.851562 "/>
<path style="fill:none;stroke-width:5;stroke-linecap:butt;stroke-linejoin:round;stroke:rgb(100%,100%,100%);stroke-opacity:1;stroke-miterlimit:4;" d="M 386.003576 490.269064 C 386.003576 490.269064 372.351605 484.853959 345.216622 490.843521 " transform="matrix(0.462387,0,0,0.462393,1036.450389,297.377267)"/>
<path style=" stroke:none;fill-rule:nonzero;fill:rgb(76.469421%,43.528748%,4.309082%);fill-opacity:1;" d="M 1155.96875 554.679688 C 1156.140625 555.742188 1156.164062 556.808594 1156.039062 557.878906 C 1155.914062 558.949219 1155.648438 559.980469 1155.234375 560.976562 C 1154.820312 561.972656 1154.28125 562.890625 1153.613281 563.734375 C 1152.945312 564.578125 1152.171875 565.316406 1151.296875 565.945312 L 1150.570312 566.457031 C 1145.609375 569.882812 1136.09375 572.652344 1133.839844 572.5 C 1131.582031 572.347656 1117.710938 569.78125 1117.710938 569.78125 C 1117.710938 569.78125 1117.214844 567.890625 1119.246094 565.398438 C 1121.273438 562.90625 1136.144531 564.886719 1130.707031 559.414062 C 1128.289062 556.984375 1116.246094 562.472656 1111.003906 568.558594 C 1105.765625 574.640625 1103.277344 569.820312 1103.277344 569.820312 C 1103.277344 569.820312 1108.296875 558.546875 1110.085938 556.507812 C 1111.875 554.46875 1123.839844 545.808594 1131.929688 544.484375 C 1135.785156 543.855469 1141.203125 544.210938 1146.585938 545.144531 C 1147.171875 545.25 1147.75 545.398438 1148.3125 545.589844 C 1148.875 545.78125 1149.421875 546.019531 1149.949219 546.296875 C 1150.476562 546.574219 1150.980469 546.890625 1151.457031 547.246094 C 1151.933594 547.597656 1152.382812 547.988281 1152.800781 548.414062 C 1153.21875 548.839844 1153.601562 549.292969 1153.949219 549.777344 C 1154.296875 550.261719 1154.605469 550.769531 1154.875 551.300781 C 1155.140625 551.832031 1155.367188 552.382812 1155.550781 552.949219 C 1155.734375 553.515625 1155.875 554.09375 1155.96875 554.679688 Z M 1155.96875 554.679688 "/>
<path style=" stroke:none;fill-rule:nonzero;fill:rgb(76.469421%,43.528748%,4.309082%);fill-opacity:1;" d="M 1190.621094 896.09375 C 1195.734375 894.9375 1202.804688 892.457031 1206.742188 887.238281 L 1208.980469 875.164062 C 1208.980469 875.164062 1194.277344 876.839844 1180.84375 875.554688 L 1183.449219 891.351562 C 1183.519531 891.75 1183.628906 892.132812 1183.78125 892.503906 C 1183.929688 892.878906 1184.113281 893.230469 1184.335938 893.566406 C 1184.558594 893.902344 1184.808594 894.210938 1185.09375 894.496094 C 1185.378906 894.78125 1185.6875 895.03125 1186.023438 895.253906 C 1186.355469 895.476562 1186.710938 895.660156 1187.082031 895.8125 C 1187.457031 895.960938 1187.839844 896.070312 1188.234375 896.144531 C 1188.628906 896.214844 1189.027344 896.246094 1189.429688 896.238281 C 1189.832031 896.230469 1190.226562 896.183594 1190.621094 896.09375 Z M 1190.621094 896.09375 "/>
<path style=" stroke:none;fill-rule:nonzero;fill:rgb(100%,69.018555%,0%);fill-opacity:1;" d="M 1130.777344 910.875 C 1130.855469 911.773438 1132.472656 916.054688 1132.472656 916.054688 L 1215.179688 913.253906 L 1215.179688 908.628906 C 1215.179688 900.886719 1212.550781 894.207031 1211.160156 891.300781 C 1209.011719 886.820312 1206.035156 887.941406 1206.035156 887.941406 C 1206.035156 887.941406 1197.949219 895.847656 1188.875 895.847656 C 1187.128906 895.847656 1185.875 894.921875 1184.976562 893.574219 C 1184.441406 892.734375 1184.027344 891.835938 1183.738281 890.882812 C 1183.363281 889.640625 1183.097656 888.378906 1182.945312 887.089844 C 1182.910156 886.820312 1182.84375 886.554688 1182.746094 886.300781 C 1182.648438 886.042969 1182.523438 885.804688 1182.367188 885.578125 C 1182.210938 885.351562 1182.03125 885.148438 1181.824219 884.96875 C 1181.621094 884.785156 1181.398438 884.628906 1181.15625 884.503906 C 1180.914062 884.375 1180.660156 884.277344 1180.394531 884.210938 C 1180.128906 884.144531 1179.859375 884.113281 1179.585938 884.109375 C 1179.3125 884.109375 1179.042969 884.140625 1178.773438 884.203125 C 1178.507812 884.265625 1178.253906 884.363281 1178.011719 884.488281 C 1174.449219 886.335938 1170.125 890.414062 1158.546875 896.667969 C 1157.96875 896.980469 1157.371094 897.300781 1156.75 897.628906 C 1142.671875 905.035156 1130.933594 902.28125 1130.777344 910.875 Z M 1130.777344 910.875 "/>
<g clip-path="url(#clip2)" clip-rule="nonzero">
<path style=" stroke:none;fill-rule:nonzero;fill:rgb(24.708557%,30.198669%,47.44873%);fill-opacity:1;" d="M 1140.085938 920.148438 C 1137.691406 920.148438 1134.769531 919.066406 1133.199219 917.308594 C 1132.210938 916.148438 1131.53125 914.835938 1131.152344 913.359375 C 1130.773438 911.886719 1130.742188 910.40625 1131.050781 908.914062 L 1131.113281 908.914062 C 1131.199219 909.347656 1131.316406 909.773438 1131.46875 910.1875 C 1131.625 910.601562 1131.8125 911 1132.035156 911.378906 C 1132.257812 911.761719 1132.511719 912.121094 1132.796875 912.460938 C 1133.078125 912.800781 1133.390625 913.113281 1133.726562 913.398438 C 1134.0625 913.683594 1134.421875 913.9375 1134.804688 914.164062 C 1135.183594 914.386719 1135.582031 914.578125 1135.996094 914.734375 C 1136.40625 914.894531 1136.832031 915.011719 1137.265625 915.097656 C 1137.699219 915.183594 1138.136719 915.230469 1138.578125 915.242188 L 1210.28125 913.140625 C 1212.503906 913.140625 1214.410156 911.601562 1215.1875 909.441406 L 1215.1875 914.261719 C 1215.1875 917.519531 1212.824219 920.160156 1209.90625 920.160156 Z M 1140.085938 920.148438 "/>
</g>
<path style=" stroke:none;fill-rule:nonzero;fill:rgb(24.708557%,30.198669%,47.44873%);fill-opacity:1;" d="M 1155.4375 898.304688 C 1156.488281 898.492188 1157.519531 898.757812 1158.535156 899.089844 C 1159.550781 899.425781 1160.535156 899.832031 1161.496094 900.304688 C 1162.453125 900.777344 1163.371094 901.316406 1164.253906 901.917969 C 1165.136719 902.523438 1165.972656 903.183594 1166.761719 903.90625 C 1167.550781 904.625 1168.285156 905.398438 1168.964844 906.21875 C 1169.648438 907.042969 1170.269531 907.910156 1170.828125 908.820312 C 1171.386719 909.734375 1171.878906 910.675781 1172.304688 911.65625 C 1172.730469 912.636719 1173.085938 913.640625 1173.371094 914.671875 L 1176.675781 914.554688 C 1176.152344 912.421875 1175.371094 910.390625 1174.332031 908.453125 C 1173.296875 906.519531 1172.035156 904.742188 1170.546875 903.125 C 1169.0625 901.507812 1167.398438 900.101562 1165.554688 898.90625 C 1163.714844 897.710938 1161.753906 896.761719 1159.671875 896.058594 L 1158.554688 896.667969 C 1157.976562 896.980469 1157.375 897.300781 1156.753906 897.628906 C 1156.316406 897.867188 1155.878906 898.089844 1155.4375 898.304688 Z M 1155.4375 898.304688 "/>
<path style=" stroke:none;fill-rule:nonzero;fill:rgb(24.708557%,30.198669%,47.44873%);fill-opacity:1;" d="M 1147.257812 901.476562 L 1147.257812 901.90625 C 1148.304688 901.90625 1149.34375 901.984375 1150.378906 902.136719 C 1151.414062 902.289062 1152.429688 902.511719 1153.433594 902.8125 C 1154.433594 903.113281 1155.410156 903.484375 1156.359375 903.921875 C 1157.308594 904.363281 1158.21875 904.871094 1159.09375 905.445312 C 1159.96875 906.019531 1160.796875 906.652344 1161.582031 907.34375 C 1162.363281 908.039062 1163.09375 908.785156 1163.765625 909.585938 C 1164.441406 910.382812 1165.054688 911.226562 1165.609375 912.113281 C 1166.160156 913.003906 1166.648438 913.925781 1167.066406 914.882812 L 1170.496094 914.769531 C 1169.78125 912.875 1168.847656 911.09375 1167.695312 909.429688 C 1166.542969 907.761719 1165.210938 906.257812 1163.695312 904.917969 C 1162.175781 903.578125 1160.519531 902.4375 1158.726562 901.5 C 1156.929688 900.5625 1155.050781 899.855469 1153.082031 899.375 C 1151.175781 900.175781 1149.234375 900.878906 1147.257812 901.476562 Z M 1147.257812 901.476562 "/>
<path style=" stroke:none;fill-rule:nonzero;fill:rgb(76.469421%,43.528748%,4.309082%);fill-opacity:1;" d="M 1291.105469 896.09375 C 1296.21875 894.9375 1302.824219 892.457031 1306.761719 887.238281 L 1308.078125 874.160156 C 1308.078125 874.160156 1294.285156 875.367188 1280.855469 874.078125 L 1283.9375 891.351562 C 1284.011719 891.75 1284.121094 892.132812 1284.269531 892.503906 C 1284.417969 892.878906 1284.605469 893.230469 1284.824219 893.566406 C 1285.046875 893.902344 1285.296875 894.210938 1285.582031 894.496094 C 1285.867188 894.78125 1286.175781 895.03125 1286.511719 895.253906 C 1286.84375 895.476562 1287.199219 895.660156 1287.570312 895.8125 C 1287.941406 895.960938 1288.328125 896.070312 1288.722656 896.144531 C 1289.117188 896.214844 1289.515625 896.246094 1289.917969 896.238281 C 1290.316406 896.230469 1290.714844 896.183594 1291.105469 896.09375 Z M 1291.105469 896.09375 "/>
<path style=" stroke:none;fill-rule:nonzero;fill:rgb(100%,75.289917%,19.999695%);fill-opacity:1;" d="M 1235.941406 910.875 C 1236.019531 911.773438 1237.640625 916.054688 1237.640625 916.054688 L 1315.671875 913.253906 L 1315.671875 908.628906 C 1315.671875 900.886719 1313.042969 894.207031 1311.652344 891.300781 C 1309.503906 886.820312 1306.53125 887.007812 1306.53125 887.007812 C 1306.53125 887.007812 1298.4375 895.847656 1289.367188 895.847656 C 1287.621094 895.847656 1286.367188 894.921875 1285.472656 893.574219 C 1284.933594 892.734375 1284.519531 891.835938 1284.234375 890.882812 C 1283.855469 889.640625 1283.589844 888.378906 1283.4375 887.089844 C 1283.40625 886.820312 1283.339844 886.554688 1283.242188 886.300781 C 1283.144531 886.042969 1283.015625 885.800781 1282.859375 885.578125 C 1282.703125 885.351562 1282.523438 885.148438 1282.320312 884.96875 C 1282.113281 884.785156 1281.890625 884.632812 1281.648438 884.503906 C 1281.40625 884.375 1281.152344 884.277344 1280.886719 884.210938 C 1280.621094 884.144531 1280.351562 884.113281 1280.078125 884.109375 C 1279.800781 884.109375 1279.53125 884.140625 1279.265625 884.203125 C 1279 884.265625 1278.746094 884.363281 1278.5 884.488281 C 1274.941406 886.335938 1275.292969 890.414062 1263.703125 896.667969 C 1263.125 896.980469 1262.527344 897.300781 1261.90625 897.628906 C 1247.832031 905.035156 1236.09375 902.28125 1235.941406 910.875 Z M 1235.941406 910.875 "/>
<g clip-path="url(#clip3)" clip-rule="nonzero">
<path style=" stroke:none;fill-rule:nonzero;fill:rgb(24.708557%,30.198669%,47.44873%);fill-opacity:1;" d="M 1245.246094 920.148438 C 1242.851562 920.148438 1239.929688 919.066406 1238.359375 917.308594 C 1237.375 916.148438 1236.691406 914.835938 1236.3125 913.359375 C 1235.933594 911.886719 1235.902344 910.40625 1236.210938 908.914062 L 1236.277344 908.914062 C 1236.359375 909.347656 1236.476562 909.773438 1236.632812 910.1875 C 1236.785156 910.601562 1236.972656 911 1237.195312 911.378906 C 1237.417969 911.761719 1237.671875 912.121094 1237.957031 912.460938 C 1238.242188 912.800781 1238.550781 913.113281 1238.886719 913.398438 C 1239.226562 913.683594 1239.585938 913.9375 1239.964844 914.164062 C 1240.34375 914.386719 1240.742188 914.578125 1241.15625 914.734375 C 1241.566406 914.894531 1241.992188 915.011719 1242.425781 915.097656 C 1242.859375 915.183594 1243.296875 915.230469 1243.738281 915.242188 L 1310.785156 913.140625 C 1313.007812 913.140625 1314.910156 911.601562 1315.6875 909.441406 L 1315.6875 914.261719 C 1315.6875 917.519531 1313.324219 920.160156 1310.40625 920.160156 Z M 1245.246094 920.148438 "/>
</g>
<path style=" stroke:none;fill-rule:nonzero;fill:rgb(24.708557%,30.198669%,47.44873%);fill-opacity:1;" d="M 1260.597656 898.304688 C 1261.648438 898.492188 1262.683594 898.757812 1263.695312 899.089844 C 1264.710938 899.425781 1265.695312 899.832031 1266.65625 900.304688 C 1267.613281 900.777344 1268.53125 901.316406 1269.414062 901.917969 C 1270.296875 902.523438 1271.132812 903.183594 1271.921875 903.90625 C 1272.710938 904.625 1273.445312 905.398438 1274.128906 906.21875 C 1274.808594 907.042969 1275.429688 907.910156 1275.988281 908.820312 C 1276.546875 909.734375 1277.039062 910.675781 1277.464844 911.65625 C 1277.890625 912.636719 1278.246094 913.640625 1278.535156 914.671875 L 1281.835938 914.554688 C 1281.3125 912.421875 1280.53125 910.390625 1279.492188 908.453125 C 1278.457031 906.519531 1277.195312 904.742188 1275.707031 903.125 C 1274.222656 901.507812 1272.558594 900.101562 1270.71875 898.90625 C 1268.875 897.710938 1266.914062 896.761719 1264.832031 896.058594 L 1263.714844 896.667969 C 1263.136719 896.980469 1262.535156 897.300781 1261.914062 897.628906 C 1261.476562 897.867188 1261.039062 898.089844 1260.597656 898.304688 Z M 1260.597656 898.304688 "/>
<path style=" stroke:none;fill-rule:nonzero;fill:rgb(24.708557%,30.198669%,47.44873%);fill-opacity:1;" d="M 1252.417969 901.476562 L 1252.417969 901.90625 C 1253.464844 901.90625 1254.503906 901.984375 1255.539062 902.136719 C 1256.574219 902.285156 1257.59375 902.511719 1258.59375 902.8125 C 1259.597656 903.113281 1260.570312 903.484375 1261.519531 903.921875 C 1262.46875 904.363281 1263.378906 904.871094 1264.253906 905.445312 C 1265.128906 906.019531 1265.957031 906.652344 1266.742188 907.34375 C 1267.523438 908.039062 1268.253906 908.785156 1268.929688 909.585938 C 1269.601562 910.382812 1270.21875 911.226562 1270.769531 912.113281 C 1271.320312 913.003906 1271.808594 913.925781 1272.226562 914.882812 L 1275.65625 914.769531 C 1274.941406 912.875 1274.007812 911.09375 1272.855469 909.429688 C 1271.707031 907.761719 1270.371094 906.257812 1268.855469 904.917969 C 1267.335938 903.578125 1265.683594 902.4375 1263.886719 901.5 C 1262.09375 900.5625 1260.210938 899.855469 1258.242188 899.375 C 1256.339844 900.175781 1254.394531 900.878906 1252.417969 901.476562 Z M 1252.417969 901.476562 "/>
<path style=" stroke:none;fill-rule:nonzero;fill:rgb(84.709167%,72.938538%,63.919067%);fill-opacity:1;" d="M 1312.339844 686.25 C 1312.339844 686.25 1345.722656 733.808594 1316.421875 872.59375 C 1316.421875 872.59375 1301.066406 877.746094 1276.589844 873.980469 C 1276.589844 873.980469 1243.457031 739.03125 1238.949219 680.558594 C 1230.820312 680.316406 1222.398438 680.167969 1213.71875 680.167969 C 1213.71875 680.167969 1248.738281 751.742188 1214.746094 875.125 C 1214.746094 875.125 1189.707031 876.914062 1176.542969 875.035156 C 1176.542969 875.035156 1136.136719 673.308594 1138.75 654.546875 C 1141.875 631.96875 1213 603.140625 1257.738281 599.074219 L 1357.875 598.457031 C 1357.875 598.457031 1383.542969 624.347656 1372.828125 661.085938 C 1364.792969 688.648438 1312.339844 686.25 1312.339844 686.25 Z M 1312.339844 686.25 "/>
<path style=" stroke:none;fill-rule:nonzero;fill:rgb(94.119263%,88.238525%,83.139038%);fill-opacity:1;" d="M 1365.171875 607.972656 C 1365.5 608.960938 1365.988281 609.863281 1366.640625 610.675781 C 1366.640625 610.675781 1278.894531 640.546875 1241.96875 602.96875 C 1282.089844 617.011719 1347.929688 610.128906 1365.171875 607.972656 Z M 1365.171875 607.972656 "/>
<path style=" stroke:none;fill-rule:nonzero;fill:rgb(100%,69.018555%,0%);fill-opacity:1;" d="M 1328.132812 380.015625 C 1332.691406 383.761719 1388.882812 416.328125 1396.933594 420.804688 C 1404.980469 425.28125 1359.378906 523.515625 1360.796875 558.566406 C 1361.851562 584.578125 1368.988281 607.402344 1368.988281 607.402344 C 1368.988281 607.402344 1288.492188 619.253906 1241.96875 602.96875 C 1241.96875 602.96875 1251.632812 588.632812 1246.261719 558.949219 C 1241.914062 534.863281 1233.058594 468 1235.527344 442.277344 C 1236.421875 432.96875 1238.03125 409.886719 1249.859375 404.339844 C 1267.753906 395.9375 1280.101562 388.617188 1280.101562 388.617188 Z M 1328.132812 380.015625 "/>
<path style="fill:none;stroke-width:5;stroke-linecap:butt;stroke-linejoin:round;stroke:rgb(100%,100%,100%);stroke-opacity:1;stroke-miterlimit:4;" d="M 453.748104 568.690934 C 444.33703 516.601173 425.751425 413.477639 439.639941 343.689524 " transform="matrix(0.462387,0,0,0.462393,1036.450389,297.377267)"/>
<path style=" stroke:none;fill-rule:nonzero;fill:rgb(100%,69.018555%,0%);fill-opacity:1;" d="M 1396.933594 421.070312 C 1420.910156 442.191406 1423.195312 529.449219 1408.03125 545.347656 C 1378.324219 576.488281 1288.664062 576.136719 1288.664062 576.136719 C 1288.664062 576.136719 1279.28125 574.78125 1284.652344 552.949219 C 1284.652344 552.949219 1351.125 519.382812 1357.566406 519.582031 C 1357.566406 519.582031 1356.492188 457.304688 1370.089844 438.699219 C 1383.691406 420.089844 1394.113281 418.589844 1396.933594 421.070312 Z M 1396.933594 421.070312 "/>
<path style="fill:none;stroke-width:5;stroke-linecap:round;stroke-linejoin:round;stroke:rgb(100%,100%,100%);stroke-opacity:1;stroke-miterlimit:4;" d="M 706.647491 586.879266 C 630.530993 606.233409 545.459613 603.876444 545.459613 603.876444 " transform="matrix(0.462387,0,0,0.462393,1036.450389,297.377267)"/>
<path style="fill:none;stroke-width:5;stroke-linecap:butt;stroke-linejoin:round;stroke:rgb(100%,100%,100%);stroke-opacity:1;stroke-miterlimit:4;" d="M 536.783515 551.710652 C 536.783515 551.710652 613.204141 508.812208 694.47392 479.540229 C 694.47392 479.540229 697.853121 376.340663 706.402499 346.063384 " transform="matrix(0.462387,0,0,0.462393,1036.450389,297.377267)"/>
<path style=" stroke:none;fill-rule:nonzero;fill:rgb(76.469421%,43.528748%,4.309082%);fill-opacity:1;" d="M 1286.023438 552.617188 C 1286.023438 552.617188 1265.957031 545.039062 1259.46875 548.851562 C 1252.371094 553.011719 1239.230469 566.3125 1238.460938 568.550781 C 1237.695312 570.789062 1237.929688 573.125 1238.070312 575.53125 C 1238.207031 577.933594 1262.253906 577.890625 1265.101562 577.726562 C 1267.949219 577.558594 1283.5625 579.246094 1286.199219 576.386719 C 1295.882812 565.894531 1286.023438 552.617188 1286.023438 552.617188 Z M 1286.023438 552.617188 "/>
<path style=" stroke:none;fill-rule:nonzero;fill:rgb(71.369934%,35.289001%,9.408569%);fill-opacity:1;" d="M 1324.105469 348.597656 C 1324.105469 348.597656 1318.738281 362.007812 1328.132812 380.039062 C 1328.132812 380.039062 1315.246094 398.390625 1294.839844 398.277344 C 1268.484375 398.132812 1280.078125 388.617188 1280.078125 388.617188 C 1280.078125 388.617188 1284.105469 382.171875 1283.3125 370.628906 Z M 1324.105469 348.597656 "/>
<g clip-path="url(#clip4)" clip-rule="nonzero">
<path style=" stroke:none;fill-rule:nonzero;fill:rgb(76.469421%,43.528748%,4.309082%);fill-opacity:1;" d="M 1319.988281 356.5625 C 1319.449219 359.070312 1319.371094 369.890625 1314.898438 372.933594 C 1309.109375 376.871094 1292.078125 383.050781 1279.195312 378.398438 C 1277.542969 377.800781 1269.351562 353.703125 1269.886719 345.472656 C 1270.421875 337.238281 1270.601562 308.074219 1288.84375 300.734375 C 1307.085938 293.394531 1328.925781 297.496094 1335.007812 318.984375 C 1337.496094 327.769531 1335.445312 335.632812 1332.148438 341.878906 C 1332.148438 341.878906 1334.253906 345.660156 1330.875 349.429688 C 1327.199219 353.539062 1319.988281 356.5625 1319.988281 356.5625 Z M 1319.988281 356.5625 "/>
</g>
<g clip-path="url(#clip5)" clip-rule="nonzero">
<path style=" stroke:none;fill-rule:nonzero;fill:rgb(44.709778%,17.649841%,32.939148%);fill-opacity:1;" d="M 1332.15625 341.875 C 1327.867188 337.023438 1321.957031 345.644531 1321.957031 345.644531 L 1321.871094 346.109375 C 1320.230469 345.222656 1318.898438 344 1317.867188 342.441406 C 1315.398438 338.707031 1315.195312 334.550781 1315.523438 319.601562 C 1315.523438 319.601562 1291.566406 322.128906 1274.195312 317.953125 C 1276.863281 310.496094 1281.320312 303.75 1288.855469 300.71875 C 1307.105469 293.382812 1328.9375 297.484375 1335.019531 318.972656 C 1337.507812 327.75 1335.453125 335.625 1332.15625 341.875 Z M 1332.15625 341.875 "/>
</g>
<path style=" stroke:none;fill-rule:nonzero;fill:rgb(94.119263%,88.238525%,83.139038%);fill-opacity:1;" d="M 1300.394531 391.183594 C 1303.734375 389.632812 1317.574219 384.59375 1327.351562 374.6875 C 1327.351562 374.6875 1337.113281 384.15625 1337.199219 385.835938 C 1337.289062 387.519531 1316.527344 401.597656 1310.683594 402.191406 Z M 1300.394531 391.183594 "/>
<path style=" stroke:none;fill-rule:nonzero;fill:rgb(94.119263%,88.238525%,83.139038%);fill-opacity:1;" d="M 1280.101562 383.582031 C 1281.027344 385.25 1283.367188 389.191406 1290.046875 390.980469 C 1290.046875 390.980469 1285.15625 398.96875 1280.617188 401.476562 C 1280.617188 401.476562 1273.21875 398.238281 1271.210938 394.023438 C 1269.878906 391.242188 1280.101562 383.582031 1280.101562 383.582031 Z M 1280.101562 383.582031 "/>
<path style=" stroke:none;fill-rule:nonzero;fill:rgb(84.709167%,72.938538%,63.919067%);fill-opacity:1;" d="M 1290.046875 390.980469 L 1294.847656 398.253906 L 1300.394531 391.183594 L 1305.480469 396.621094 C 1305.480469 396.621094 1298.386719 400 1285.136719 397.578125 Z M 1290.046875 390.980469 "/>
<g clip-path="url(#clip6)" clip-rule="nonzero">
<path style=" stroke:none;fill-rule:nonzero;fill:rgb(100%,100%,100%);fill-opacity:1;" d="M 1036.449219 576.664062 L 1288.351562 576.664062 C 1288.957031 576.664062 1289.558594 576.722656 1290.152344 576.839844 C 1290.75 576.957031 1291.328125 577.132812 1291.890625 577.367188 C 1292.449219 577.597656 1292.984375 577.882812 1293.488281 578.222656 C 1293.992188 578.558594 1294.460938 578.941406 1294.890625 579.371094 C 1295.316406 579.800781 1295.703125 580.269531 1296.039062 580.773438 C 1296.375 581.277344 1296.660156 581.808594 1296.894531 582.371094 C 1297.125 582.933594 1297.300781 583.511719 1297.417969 584.105469 C 1297.539062 584.703125 1297.597656 585.304688 1297.597656 585.910156 L 1297.597656 588.359375 C 1297.597656 588.96875 1297.539062 589.570312 1297.417969 590.164062 C 1297.300781 590.761719 1297.125 591.339844 1296.894531 591.898438 C 1296.660156 592.460938 1296.375 592.992188 1296.039062 593.5 C 1295.703125 594.003906 1295.316406 594.472656 1294.890625 594.898438 C 1294.460938 595.328125 1293.992188 595.714844 1293.488281 596.050781 C 1292.984375 596.386719 1292.449219 596.671875 1291.890625 596.90625 C 1291.328125 597.136719 1290.75 597.3125 1290.152344 597.429688 C 1289.558594 597.550781 1288.957031 597.609375 1288.351562 597.609375 L 1036.914062 597.609375 "/>
</g>
<g clip-path="url(#clip7)" clip-rule="nonzero">
<path style="fill:none;stroke-width:6;stroke-linecap:butt;stroke-linejoin:miter;stroke:rgb(84.709167%,72.938538%,63.919067%);stroke-opacity:1;stroke-miterlimit:10;" d="M -0.00253038 604.003163 L 544.783773 604.003163 C 546.093213 604.003163 547.394206 604.129881 548.678302 604.383318 C 549.970846 604.636755 551.221151 605.016911 552.437663 605.523785 C 553.645727 606.022211 554.803103 606.638908 555.892896 607.373875 C 556.982688 608.100395 557.996448 608.928289 558.925728 609.857558 C 559.846561 610.786828 560.682913 611.800576 561.409441 612.890355 C 562.135969 613.980134 562.752673 615.129049 563.259553 616.345547 C 563.757986 617.562045 564.138146 618.812334 564.391586 620.096415 C 564.653474 621.388944 564.780194 622.689921 564.780194 623.999346 L 564.780194 629.29618 C 564.780194 630.614052 564.653474 631.915029 564.391586 633.19911 C 564.138146 634.491639 563.757986 635.741929 563.259553 636.949979 C 562.752673 638.166476 562.135969 639.315391 561.409441 640.413618 C 560.682913 641.503398 559.846561 642.517146 558.925728 643.437967 C 557.996448 644.367236 556.982688 645.203578 555.892896 645.930098 C 554.803103 646.656618 553.645727 647.273314 552.437663 647.780188 C 551.221151 648.278615 549.970846 648.65877 548.678302 648.912207 C 547.394206 649.174092 546.093213 649.300811 544.783773 649.300811 L 1.002782 649.300811 " transform="matrix(0.462387,0,0,0.462393,1036.450389,297.377267)"/>
</g>
<g clip-path="url(#clip8)" clip-rule="nonzero">
<path style=" stroke:none;fill-rule:nonzero;fill:rgb(100%,100%,100%);fill-opacity:1;" d="M 1235.257812 920.753906 L 1235.257812 597.941406 L 1255.378906 597.941406 L 1255.378906 920.742188 "/>
</g>
<path style=" stroke:none;fill-rule:nonzero;fill:rgb(94.119263%,88.238525%,83.139038%);fill-opacity:1;" d="M 1235.257812 604.359375 L 1235.257812 597.941406 L 1255.378906 597.941406 L 1255.378906 620.253906 Z M 1235.257812 604.359375 "/>
<g clip-path="url(#clip9)" clip-rule="nonzero">
<path style="fill:none;stroke-width:6;stroke-linecap:butt;stroke-linejoin:miter;stroke:rgb(84.709167%,72.938538%,63.919067%);stroke-opacity:1;stroke-miterlimit:10;" d="M 429.95853 1347.139719 L 429.95853 650.018882 L 473.474188 650.018882 L 473.474188 1347.122824 " transform="matrix(0.462387,0,0,0.462393,1036.450389,297.377267)"/>
</g>
<path style="fill-rule:nonzero;fill:rgb(100%,100%,100%);fill-opacity:1;stroke-width:5;stroke-linecap:butt;stroke-linejoin:miter;stroke:rgb(24.708557%,30.198669%,56.469727%);stroke-opacity:1;stroke-miterlimit:10;" d="M 447.826054 604.003163 L 230.002771 604.003163 C 228.296275 604.003163 226.623571 603.766621 224.984658 603.293539 C 223.345746 602.820456 221.799762 602.127728 220.363601 601.215355 C 218.918993 600.302982 217.626449 599.213202 216.494416 597.937569 C 215.362384 596.661936 214.424656 595.259584 213.68968 593.722066 L 143.284031 446.601861 C 142.937663 445.892237 142.701119 445.157269 142.549055 444.38851 C 142.396991 443.619751 142.337855 442.842544 142.388543 442.065337 C 142.430783 441.279683 142.574399 440.519371 142.810943 439.775956 C 143.055935 439.024093 143.376959 438.322917 143.799359 437.663981 C 144.213311 436.996597 144.711743 436.396796 145.27776 435.864578 C 145.852224 435.323912 146.477376 434.867725 147.161664 434.48757 C 147.845952 434.115862 148.57248 433.828633 149.324353 433.634332 C 150.084673 433.44003 150.853441 433.338655 151.639105 433.338655 L 369.470836 433.338655 C 371.177332 433.338655 372.850037 433.575196 374.488949 434.048279 C 376.127862 434.521361 377.665398 435.214089 379.110006 436.126463 C 380.554615 437.030388 381.838711 438.128615 382.979191 439.404248 C 384.111224 440.671434 385.040504 442.082233 385.783928 443.619751 L 456.189576 590.756853 C 456.527496 591.466477 456.772489 592.201444 456.916105 592.970203 C 457.068169 593.738962 457.118857 594.507721 457.068169 595.293376 C 457.025929 596.070583 456.882313 596.830894 456.645768 597.574309 C 456.400776 598.317725 456.079752 599.027349 455.657352 599.686285 C 455.2434 600.345221 454.744968 600.945022 454.178952 601.47724 C 453.612936 602.017906 452.987784 602.474092 452.303495 602.8458 C 451.619207 603.225956 450.892679 603.513184 450.140807 603.707486 C 449.380487 603.901788 448.611719 604.003163 447.826054 604.003163 Z M 447.826054 604.003163 " transform="matrix(0.462387,0,0,0.462393,1036.450389,297.377267)"/>
<path style=" stroke:none;fill-rule:nonzero;fill:rgb(94.119263%,88.238525%,83.139038%);fill-opacity:1;" d="M 1243.359375 575.640625 L 1144.261719 575.640625 C 1143.523438 575.613281 1142.800781 575.488281 1142.097656 575.265625 C 1141.394531 575.039062 1140.734375 574.726562 1140.113281 574.320312 C 1139.496094 573.914062 1138.945312 573.433594 1138.457031 572.878906 C 1137.972656 572.320312 1137.570312 571.710938 1137.25 571.042969 L 1122.917969 541.058594 L 1123.132812 540.679688 L 1231.796875 540.679688 L 1231.976562 541.054688 L 1245.683594 569.722656 C 1247.761719 573.070312 1246.40625 575.640625 1243.359375 575.640625 Z M 1243.359375 575.640625 "/>
<path style="fill-rule:nonzero;fill:rgb(100%,100%,100%);fill-opacity:1;stroke-width:5;stroke-linecap:butt;stroke-linejoin:round;stroke:rgb(24.708557%,30.198669%,56.469727%);stroke-opacity:1;stroke-miterlimit:4;" d="M 424.999553 525.860073 L 385.150328 595.43699 C 382.151287 600.683137 375.79839 604.020058 368.828788 604.020058 L 150.997057 604.020058 C 144.179519 604.020058 139.702078 598.081184 142.641983 592.936412 L 181.080392 525.860073 Z M 424.999553 525.860073 " transform="matrix(0.462387,0,0,0.462393,1036.450389,297.377267)"/>
<path style=" stroke:none;fill-rule:nonzero;fill:rgb(24.708557%,30.198669%,56.469727%);fill-opacity:1;" d="M 557.339844 867.058594 C 558.277344 874.183594 547.796875 886.71875 547.796875 893.546875 C 547.796875 896.054688 557.351562 899.457031 566.242188 903.820312 C 577.125 909.15625 587.601562 915.347656 591.367188 915.347656 L 615.675781 915.347656 C 615.675781 915.347656 615.703125 901.3125 601.964844 899.125 C 587.171875 896.769531 579.261719 866.625 579.261719 866.625 Z M 557.339844 867.058594 "/>
<g clip-path="url(#clip10)" clip-rule="nonzero">
<path style="fill:none;stroke-width:6;stroke-linecap:round;stroke-linejoin:miter;stroke:rgb(82.348633%,66.668701%,57.249451%);stroke-opacity:1;stroke-miterlimit:10;" d="M 496.513054 1230.999075 C 518.933377 1241.999456 579.708065 1275.073077 587.506088 1275.073077 L 637.593701 1275.073077 " transform="matrix(0.485399,0,0,0.485068,306.180335,297.369503)"/>
</g>
<g clip-path="url(#clip11)" clip-rule="nonzero">
<path style="fill:none;stroke-width:6;stroke-linecap:round;stroke-linejoin:miter;stroke:rgb(82.348633%,66.668701%,57.249451%);stroke-opacity:1;stroke-miterlimit:10;" d="M 567.990911 1224.13793 L 586.226536 1217.043248 " transform="matrix(0.485399,0,0,0.485068,306.180335,297.369503)"/>
</g>
<g clip-path="url(#clip12)" clip-rule="nonzero">
<path style="fill:none;stroke-width:6;stroke-linecap:round;stroke-linejoin:miter;stroke:rgb(82.348633%,66.668701%,57.249451%);stroke-opacity:1;stroke-miterlimit:10;" d="M 557.786687 1212.920118 L 580.118487 1204.802707 " transform="matrix(0.485399,0,0,0.485068,306.180335,297.369503)"/>
</g>
<path style=" stroke:none;fill-rule:nonzero;fill:rgb(82.348633%,66.668701%,57.249451%);fill-opacity:1;" d="M 510.648438 615.1875 C 510.648438 615.1875 604.675781 611.789062 644.621094 636.390625 C 662.183594 647.207031 585.539062 870.0625 585.539062 870.0625 C 585.539062 870.0625 560.574219 870.476562 547.265625 863.824219 C 547.265625 863.824219 529.304688 741.101562 573.835938 692.558594 C 573.835938 692.558594 470.882812 706.867188 425.007812 674.230469 Z M 510.648438 615.1875 "/>
<path style=" stroke:none;fill-rule:nonzero;fill:rgb(24.708557%,30.198669%,56.469727%);fill-opacity:1;" d="M 625.636719 870.523438 C 626.574219 877.648438 616.582031 890.179688 616.582031 897.011719 C 616.582031 899.519531 625.644531 902.917969 634.519531 907.285156 C 645.40625 912.621094 655.875 918.808594 659.644531 918.808594 L 683.957031 918.808594 C 683.957031 918.808594 683.980469 904.777344 670.246094 902.589844 C 655.449219 900.226562 647.542969 870.089844 647.542969 870.089844 Z M 625.636719 870.523438 "/>
<g clip-path="url(#clip13)" clip-rule="nonzero">
<path style="fill:none;stroke-width:6;stroke-linecap:round;stroke-linejoin:miter;stroke:rgb(82.348633%,66.668701%,57.249451%);stroke-opacity:1;stroke-miterlimit:10;" d="M 638.221406 1238.093757 C 660.641729 1249.086086 720.402432 1282.159706 728.21655 1282.159706 L 778.312211 1282.159706 " transform="matrix(0.485399,0,0,0.485068,306.180335,297.369503)"/>
</g>
<g clip-path="url(#clip14)" clip-rule="nonzero">
<path style="fill:none;stroke-width:6;stroke-linecap:round;stroke-linejoin:miter;stroke:rgb(82.348633%,66.668701%,57.249451%);stroke-opacity:1;stroke-miterlimit:10;" d="M 717.859423 1228.212742 L 726.928951 1224.170142 " transform="matrix(0.485399,0,0,0.485068,306.180335,297.369503)"/>
</g>
<g clip-path="url(#clip15)" clip-rule="nonzero">
<path style="fill:none;stroke-width:6;stroke-linecap:round;stroke-linejoin:miter;stroke:rgb(82.348633%,66.668701%,57.249451%);stroke-opacity:1;stroke-miterlimit:10;" d="M 707.663246 1217.002983 L 720.812854 1211.937654 " transform="matrix(0.485399,0,0,0.485068,306.180335,297.369503)"/>
</g>
<path style=" stroke:none;fill-rule:nonzero;fill:rgb(84.709167%,72.938538%,63.919067%);fill-opacity:1;" d="M 411.3125 681.191406 C 467.816406 724.953125 605.09375 706.242188 605.09375 706.242188 C 605.09375 706.242188 579.710938 750.871094 617.160156 873.960938 C 617.160156 873.960938 634.636719 876.871094 652.941406 873.960938 C 652.941406 873.960938 655.441406 781.496094 668.753906 682.203125 C 671.265625 663.480469 604.679688 634.3125 502.746094 630.363281 Z M 411.3125 681.191406 "/>
<g clip-path="url(#clip16)" clip-rule="nonzero">
<path style=" stroke:none;fill-rule:nonzero;fill:rgb(100%,69.018555%,0%);fill-opacity:1;" d="M 385.160156 375.078125 C 380.824219 370.464844 362.414062 341.71875 371.976562 319.863281 C 381.539062 298.003906 402.726562 294.40625 415.824219 299.308594 C 415.824219 299.308594 427.648438 294.621094 445.15625 311.117188 C 461.992188 326.988281 471.476562 346.738281 463.601562 358.824219 C 453.679688 374.054688 450.421875 373.578125 445.679688 379.8125 C 441.476562 385.328125 430.871094 399.960938 416.808594 392.5 C 401.34375 384.273438 385.160156 375.078125 385.160156 375.078125 Z M 385.160156 375.078125 "/>
</g>
<path style=" stroke:none;fill-rule:nonzero;fill:rgb(100%,81.17981%,78.819275%);fill-opacity:1;" d="M 389.96875 368.644531 C 380.21875 386.230469 370.253906 397.574219 370.253906 397.574219 L 410.484375 416.136719 C 410.484375 416.136719 417.128906 396.082031 420.320312 389.460938 C 422.546875 384.832031 405.140625 372.207031 399.449219 360.355469 C 396.25 353.695312 393.246094 352.492188 391.878906 353.195312 C 384.21875 357.089844 389.96875 368.644531 389.96875 368.644531 Z M 389.96875 368.644531 "/>
<path style=" stroke:none;fill-rule:nonzero;fill:rgb(98.039246%,71.369934%,67.83905%);fill-opacity:1;" d="M 397.269531 368.886719 C 396.910156 370.449219 395.859375 378.890625 400.820312 382.832031 C 403.910156 385.292969 411.269531 389.867188 418.609375 393.300781 C 416.949219 397.253906 414.957031 402.902344 413.371094 407.125 C 406.847656 403.050781 398.761719 396.152344 396.507812 385.847656 C 394.148438 375.027344 397.269531 368.886719 397.269531 368.886719 Z M 397.269531 368.886719 "/>
<path style=" stroke:none;fill-rule:nonzero;fill:rgb(100%,81.17981%,78.819275%);fill-opacity:1;" d="M 397.273438 368.886719 C 396.910156 370.449219 395.859375 378.890625 400.820312 382.832031 C 405.78125 386.777344 421.738281 396.167969 430.957031 397.585938 C 440.175781 399 450.636719 372.074219 451.34375 361.621094 C 452.050781 351.167969 455.117188 324.417969 433.796875 324.417969 C 424.414062 324.417969 399.046875 361.265625 397.273438 368.886719 Z M 397.273438 368.886719 "/>
<path style=" stroke:none;fill-rule:nonzero;fill:rgb(94.119263%,88.238525%,83.139038%);fill-opacity:1;" d="M 502.765625 630.363281 C 502.765625 630.363281 509.421875 623.089844 510.675781 615.1875 C 510.675781 615.1875 452.023438 570.488281 424.335938 434.742188 L 421.398438 434.484375 C 421.398438 434.484375 417.238281 543.984375 502.765625 630.363281 Z M 502.765625 630.363281 "/>
<path style=" stroke:none;fill-rule:nonzero;fill:rgb(24.708557%,30.198669%,56.469727%);fill-opacity:1;" d="M 424.257812 434.511719 C 444.320312 445.28125 479.859375 515.191406 479.859375 515.191406 L 447.960938 549.320312 C 469.621094 592.292969 502.765625 630.363281 502.765625 630.363281 C 474.03125 669.027344 411.3125 681.191406 411.3125 681.191406 C 411.3125 681.191406 331.742188 616.953125 331.742188 505.3125 C 331.742188 445.976562 351.515625 425.242188 356.496094 418.378906 Z M 424.257812 434.511719 "/>
<path style=" stroke:none;fill-rule:nonzero;fill:rgb(27.839661%,36.079407%,66.268921%);fill-opacity:1;" d="M 352.9375 417.691406 C 352.9375 417.691406 389.570312 432.035156 424.292969 434.734375 C 424.292969 434.734375 423.878906 420.601562 420.652344 417.691406 C 417.425781 414.78125 377.433594 395.261719 369.523438 396.613281 C 361.617188 397.96875 352.9375 417.691406 352.9375 417.691406 Z M 352.9375 417.691406 "/>
<path style="fill:none;stroke-width:4;stroke-linecap:butt;stroke-linejoin:miter;stroke:rgb(27.839661%,36.079407%,66.268921%);stroke-opacity:1;stroke-miterlimit:10;" d="M 211.229333 456.341929 L 292.090569 519.412929 " transform="matrix(0.485399,0,0,0.485068,306.180335,297.369503)"/>
<path style=" stroke:none;fill-rule:nonzero;fill:rgb(100%,100%,100%);fill-opacity:1;" d="M 626.746094 541.808594 C 627.785156 541.726562 628.808594 541.566406 629.824219 541.332031 C 630.835938 541.097656 631.828125 540.792969 632.796875 540.414062 C 633.765625 540.035156 634.699219 539.585938 635.601562 539.070312 C 636.503906 538.554688 637.367188 537.976562 638.183594 537.332031 C 639 536.691406 639.769531 535.992188 640.484375 535.238281 C 641.199219 534.484375 641.855469 533.683594 642.453125 532.832031 C 643.050781 531.980469 643.585938 531.09375 644.054688 530.164062 C 644.519531 529.234375 644.917969 528.277344 645.246094 527.292969 L 671.898438 447.144531 C 674.597656 439.035156 681.84375 432.886719 690.34375 432.195312 L 647.472656 435.695312 C 638.957031 436.390625 631.707031 442.535156 629.027344 450.644531 L 602.378906 530.792969 C 599.683594 538.90625 594.128906 544.476562 585.605469 545.171875 Z M 626.746094 541.808594 "/>
<g clip-path="url(#clip17)" clip-rule="nonzero">
<path style="fill:none;stroke-width:5;stroke-linecap:butt;stroke-linejoin:miter;stroke:rgb(100%,69.018555%,0%);stroke-opacity:1;stroke-miterlimit:10;" d="M 660.416399 503.927033 C 662.557033 503.757921 664.665477 503.427748 666.757826 502.944569 C 668.842127 502.46139 670.886191 501.833257 672.88197 501.052117 C 674.877749 500.270977 676.8011 499.344883 678.660072 498.281889 C 680.519043 497.218895 682.29754 496.027052 683.979466 494.698309 C 685.661393 493.37762 687.24675 491.936135 688.719441 490.381908 C 690.192133 488.827681 691.544112 487.176819 692.775379 485.421268 C 694.006646 483.665716 695.109153 481.837688 696.074852 479.921077 C 697.032504 478.004466 697.853349 476.031484 698.529338 474.002131 L 753.437401 308.770931 C 758.998221 292.052929 773.926325 279.377526 791.437676 277.952147 L 703.116411 285.167624 C 685.57287 286.601056 670.636718 299.268405 665.116136 315.986408 L 610.216121 481.217608 C 604.663349 497.943663 593.21981 509.427224 575.660174 510.860656 Z M 660.416399 503.927033 " transform="matrix(0.485399,0,0,0.485068,306.180335,297.369503)"/>
</g>
<g clip-path="url(#clip18)" clip-rule="nonzero">
<path style=" stroke:none;fill-rule:nonzero;fill:rgb(100%,100%,100%);fill-opacity:1;" d="M 628.085938 544.851562 C 629.128906 544.839844 630.160156 544.753906 631.1875 544.59375 C 632.214844 544.433594 633.226562 544.195312 634.21875 543.886719 C 635.210938 543.578125 636.175781 543.199219 637.113281 542.75 C 638.050781 542.296875 638.949219 541.78125 639.8125 541.199219 C 640.675781 540.617188 641.488281 539.976562 642.257812 539.277344 C 643.023438 538.574219 643.738281 537.820312 644.394531 537.015625 C 645.050781 536.210938 645.648438 535.363281 646.179688 534.46875 C 646.714844 533.578125 647.179688 532.652344 647.578125 531.691406 L 679.898438 453.652344 C 680.296875 452.695312 680.765625 451.769531 681.296875 450.875 C 681.832031 449.984375 682.429688 449.136719 683.085938 448.332031 C 683.742188 447.527344 684.457031 446.773438 685.226562 446.074219 C 685.992188 445.371094 686.808594 444.730469 687.667969 444.148438 C 688.53125 443.566406 689.429688 443.050781 690.367188 442.601562 C 691.304688 442.152344 692.269531 441.769531 693.261719 441.460938 C 694.253906 441.152344 695.265625 440.917969 696.292969 440.753906 C 697.320312 440.59375 698.351562 440.503906 699.394531 440.492188 L 656.382812 440.925781 C 655.339844 440.9375 654.308594 441.023438 653.28125 441.183594 C 652.253906 441.34375 651.242188 441.578125 650.25 441.886719 C 649.257812 442.199219 648.292969 442.578125 647.355469 443.027344 C 646.417969 443.476562 645.519531 443.992188 644.65625 444.574219 C 643.792969 445.15625 642.980469 445.796875 642.210938 446.5 C 641.441406 447.199219 640.730469 447.953125 640.074219 448.757812 C 639.414062 449.5625 638.820312 450.410156 638.285156 451.300781 C 637.75 452.195312 637.285156 453.121094 636.886719 454.082031 L 604.566406 532.144531 C 604.167969 533.101562 603.703125 534.027344 603.167969 534.921875 C 602.636719 535.8125 602.039062 536.660156 601.382812 537.46875 C 600.726562 538.273438 600.011719 539.023438 599.246094 539.726562 C 598.476562 540.425781 597.664062 541.066406 596.800781 541.648438 C 595.9375 542.230469 595.039062 542.746094 594.101562 543.195312 C 593.164062 543.648438 592.199219 544.027344 591.207031 544.335938 C 590.214844 544.644531 589.203125 544.878906 588.175781 545.039062 C 587.148438 545.203125 586.117188 545.289062 585.078125 545.296875 Z M 628.085938 544.851562 "/>
</g>
<g clip-path="url(#clip19)" clip-rule="nonzero">
<path style="fill:none;stroke-width:5;stroke-linecap:butt;stroke-linejoin:miter;stroke:rgb(100%,69.018555%,0%);stroke-opacity:1;stroke-miterlimit:10;" d="M 663.17669 510.200311 C 665.325371 510.176152 667.44991 509.998986 669.566402 509.668814 C 671.682893 509.338641 673.767194 508.847409 675.811258 508.211223 C 677.855322 507.575037 679.843053 506.793897 681.774452 505.867803 C 683.705851 504.933657 685.556775 503.870662 687.335272 502.670767 C 689.113769 501.470872 690.787648 500.150182 692.373004 498.708697 C 693.950313 497.25916 695.423005 495.704933 696.774984 494.046017 C 698.126964 492.387102 699.358231 490.639604 700.45269 488.79547 C 701.555197 486.959388 702.512849 485.05083 703.333693 483.069795 L 769.918673 322.187208 C 770.739517 320.214226 771.705217 318.305668 772.799676 316.461534 C 773.902183 314.625453 775.13345 312.877955 776.485429 311.219039 C 777.837408 309.560124 779.3101 308.005897 780.895457 306.564412 C 782.472766 305.114874 784.154692 303.794184 785.925141 302.594289 C 787.703638 301.394394 789.554562 300.3314 791.485961 299.405306 C 793.41736 298.479213 795.405091 297.69002 797.449155 297.053834 C 799.493219 296.417648 801.577521 295.934469 803.694012 295.596243 C 805.810503 295.266071 807.935042 295.080852 810.083724 295.056693 L 721.472749 295.950575 C 719.324067 295.974733 717.199528 296.151899 715.083037 296.482072 C 712.966546 296.812244 710.882244 297.295423 708.83818 297.931609 C 706.794117 298.575848 704.806385 299.356988 702.874986 300.283082 C 700.943587 301.209175 699.092663 302.27217 697.314167 303.472065 C 695.53567 304.67196 693.861791 305.99265 692.276434 307.442188 C 690.691078 308.883673 689.226433 310.437899 687.874454 312.096815 C 686.514427 313.75573 685.291208 315.503229 684.188701 317.33931 C 683.086194 319.183444 682.128542 321.092002 681.307698 323.073037 L 614.722718 484.003942 C 613.901874 485.976924 612.944222 487.885482 611.841715 489.729616 C 610.747256 491.565697 609.515989 493.313196 608.16401 494.980164 C 606.81203 496.63908 605.339339 498.185253 603.762029 499.634791 C 602.176673 501.076276 600.502794 502.396966 598.724297 503.596861 C 596.945801 504.796756 595.094877 505.85975 593.163478 506.785844 C 591.232079 507.71999 589.244347 508.50113 587.200283 509.137316 C 585.156219 509.773502 583.071918 510.256682 580.955427 510.586854 C 578.838935 510.92508 576.714396 511.102245 574.573763 511.118351 Z M 663.17669 510.200311 " transform="matrix(0.485399,0,0,0.485068,306.180335,297.369503)"/>
</g>
<path style=" stroke:none;fill-rule:nonzero;fill:rgb(100%,81.17981%,78.819275%);fill-opacity:1;" d="M 465.992188 560.519531 C 465.992188 560.519531 475.097656 571.488281 496.980469 571.433594 C 507.476562 571.433594 592.164062 507.96875 592.164062 507.96875 C 592.164062 507.96875 614.382812 505.488281 620.589844 501.234375 C 626.792969 496.980469 637.707031 474.128906 636.820312 470.761719 C 635.890625 470.816406 634.988281 471 634.109375 471.308594 C 633.234375 471.621094 632.417969 472.046875 631.664062 472.59375 C 630.910156 473.136719 630.246094 473.773438 629.671875 474.507812 C 629.097656 475.242188 628.640625 476.039062 628.296875 476.902344 C 626.023438 482.195312 617.410156 482.574219 617.410156 482.574219 L 619.261719 476.125 C 619.261719 476.125 611.1875 477.265625 605.039062 477.503906 C 598.894531 477.742188 590.480469 492.625 588.964844 493.210938 C 587.449219 493.796875 497.914062 527.460938 492.8125 530.890625 C 487.710938 534.320312 465.992188 560.519531 465.992188 560.519531 Z M 465.992188 560.519531 "/>
<path style=" stroke:none;fill-rule:nonzero;fill:rgb(27.839661%,36.079407%,66.268921%);fill-opacity:1;" d="M 494.476562 528.152344 C 495.804688 526.488281 483.746094 515.121094 479.859375 515.191406 C 475.976562 515.257812 444.703125 546.644531 447.339844 552.46875 C 449.976562 558.289062 459.75 566.382812 464.394531 562.789062 C 469.042969 559.195312 494.476562 528.152344 494.476562 528.152344 Z M 494.476562 528.152344 "/>
<g clip-path="url(#clip20)" clip-rule="nonzero">
<path style="fill:none;stroke-width:6;stroke-linecap:round;stroke-linejoin:miter;stroke:rgb(100%,69.018555%,0%);stroke-opacity:1;stroke-miterlimit:10;" d="M 3.000382 440.912405 C 3.000382 440.912405 34.65923 730.691112 212.090415 817.663379 C 319.37158 870.241335 437.919238 877.18301 514.901582 874.436942 " transform="matrix(0.485399,0,0,0.485068,306.180335,297.369503)"/>
</g>
<g clip-path="url(#clip21)" clip-rule="nonzero">
<path style="fill:none;stroke-width:6;stroke-linecap:round;stroke-linejoin:miter;stroke:rgb(100%,69.018555%,0%);stroke-opacity:1;stroke-miterlimit:10;" d="M 44.275987 605.531578 L 141.521925 605.531578 C 147.509262 605.531578 153.496599 605.789274 159.459793 606.320771 C 165.431035 606.844215 171.370087 607.633408 177.268901 608.680297 C 183.167715 609.727185 189.010197 611.031769 194.796347 612.594049 C 200.582496 614.148275 206.28817 615.960197 211.91337 618.021762 C 217.538569 620.09138 223.059151 622.394534 228.483164 624.939279 C 233.907176 627.492076 239.210475 630.270356 244.393062 633.290227 C 249.567602 636.302044 254.605334 639.539345 259.498212 642.994077 C 264.391089 646.448809 269.123017 650.120971 273.702042 653.994458 C 278.273019 657.867945 282.666952 661.934704 286.875792 666.186681 C 291.09268 670.446712 295.116428 674.883908 298.938988 679.49827 C 302.761549 684.112632 306.374874 688.888053 309.778965 693.816482 C 313.183056 698.74491 316.369864 703.818293 319.331342 709.028576 C 322.284773 714.238859 325.012874 719.569936 327.49955 725.021809 C 329.994274 730.473682 332.239525 736.02219 334.243352 741.667334 C 336.247178 747.312479 337.993485 753.038153 339.498366 758.844357 C 340.995201 764.642508 342.234515 770.49703 343.216309 776.407923 L 357.806419 864.00027 " transform="matrix(0.485399,0,0,0.485068,306.180335,297.369503)"/>
</g>
<g clip-path="url(#clip22)" clip-rule="nonzero">
<path style="fill:none;stroke-width:6;stroke-linecap:round;stroke-linejoin:miter;stroke:rgb(100%,69.018555%,0%);stroke-opacity:1;stroke-miterlimit:10;" d="M 377.852731 867.237571 L 377.852731 1108.996313 C 377.852731 1112.644316 377.377929 1116.219843 376.444419 1119.738998 C 375.502862 1123.258154 374.134788 1126.592091 372.316054 1129.756915 C 370.505367 1132.913686 368.316448 1135.78055 365.749297 1138.365559 C 363.190194 1140.950568 360.333333 1143.165139 357.186762 1145.00122 L 304.74928 1175.650891 C 301.602709 1177.486973 298.753896 1179.701544 296.186745 1182.286553 C 293.619594 1184.871562 291.430675 1187.738426 289.619988 1190.895197 C 287.809302 1194.060021 286.43318 1197.393958 285.49967 1200.913114 C 284.558113 1204.432269 284.091359 1208.007796 284.091359 1211.647746 " transform="matrix(0.485399,0,0,0.485068,306.180335,297.369503)"/>
</g>
<path style=" stroke:none;fill-rule:nonzero;fill:rgb(100%,100%,100%);fill-opacity:1;" d="M 455.078125 901.925781 C 455.078125 902.632812 455.007812 903.335938 454.867188 904.035156 C 454.730469 904.730469 454.523438 905.40625 454.253906 906.0625 C 453.980469 906.71875 453.648438 907.339844 453.253906 907.929688 C 452.859375 908.523438 452.410156 909.066406 451.90625 909.570312 C 451.40625 910.070312 450.859375 910.519531 450.269531 910.914062 C 449.675781 911.308594 449.054688 911.640625 448.398438 911.914062 C 447.742188 912.183594 447.066406 912.390625 446.367188 912.527344 C 445.671875 912.667969 444.96875 912.738281 444.257812 912.738281 C 443.546875 912.738281 442.84375 912.667969 442.144531 912.527344 C 441.449219 912.390625 440.773438 912.183594 440.117188 911.914062 C 439.460938 911.640625 438.835938 911.308594 438.246094 910.914062 C 437.65625 910.519531 437.109375 910.070312 436.605469 909.570312 C 436.105469 909.066406 435.65625 908.523438 435.261719 907.929688 C 434.867188 907.339844 434.53125 906.71875 434.261719 906.0625 C 433.988281 905.40625 433.785156 904.730469 433.644531 904.035156 C 433.507812 903.335938 433.4375 902.632812 433.4375 901.925781 C 433.4375 901.214844 433.507812 900.511719 433.644531 899.816406 C 433.785156 899.117188 433.988281 898.441406 434.261719 897.785156 C 434.53125 897.132812 434.867188 896.507812 435.261719 895.917969 C 435.65625 895.328125 436.105469 894.78125 436.605469 894.28125 C 437.109375 893.777344 437.65625 893.328125 438.246094 892.933594 C 438.835938 892.539062 439.460938 892.207031 440.117188 891.9375 C 440.773438 891.664062 441.449219 891.457031 442.144531 891.320312 C 442.84375 891.183594 443.546875 891.113281 444.257812 891.113281 C 444.96875 891.113281 445.671875 891.183594 446.367188 891.320312 C 447.066406 891.457031 447.742188 891.664062 448.398438 891.9375 C 449.054688 892.207031 449.675781 892.539062 450.269531 892.933594 C 450.859375 893.328125 451.40625 893.777344 451.90625 894.28125 C 452.410156 894.78125 452.859375 895.328125 453.253906 895.917969 C 453.648438 896.507812 453.980469 897.132812 454.253906 897.785156 C 454.523438 898.441406 454.730469 899.117188 454.867188 899.816406 C 455.007812 900.511719 455.078125 901.214844 455.078125 901.925781 Z M 455.078125 901.925781 "/>
<g clip-path="url(#clip23)" clip-rule="nonzero">
<path style="fill:none;stroke-width:6;stroke-linecap:round;stroke-linejoin:miter;stroke:rgb(100%,69.018555%,0%);stroke-opacity:1;stroke-miterlimit:10;" d="M 306.753106 1246.331964 C 306.753106 1247.789555 306.608252 1249.239092 306.318542 1250.680577 C 306.036879 1252.114009 305.610362 1253.507176 305.055085 1254.860078 C 304.49176 1256.21298 303.807723 1257.493405 302.994926 1258.709406 C 302.182129 1259.93346 301.256667 1261.052825 300.21854 1262.091661 C 299.188461 1263.122443 298.061811 1264.048537 296.846639 1264.861888 C 295.62342 1265.67524 294.343868 1266.359744 292.991889 1266.923453 C 291.63991 1267.479109 290.247693 1267.905918 288.807191 1268.187772 C 287.374737 1268.47768 285.926188 1268.622634 284.461543 1268.622634 C 282.996899 1268.622634 281.54835 1268.47768 280.107848 1268.187772 C 278.675394 1267.905918 277.283177 1267.479109 275.931198 1266.923453 C 274.579219 1266.359744 273.291619 1265.67524 272.076448 1264.861888 C 270.861276 1264.048537 269.734626 1263.122443 268.696499 1262.091661 C 267.66642 1261.052825 266.740958 1259.93346 265.928161 1258.709406 C 265.115364 1257.493405 264.423279 1256.21298 263.868002 1254.860078 C 263.304677 1253.507176 262.886208 1252.114009 262.596498 1250.680577 C 262.314835 1249.239092 262.16998 1247.789555 262.16998 1246.331964 C 262.16998 1244.86632 262.314835 1243.416782 262.596498 1241.983351 C 262.886208 1240.541866 263.304677 1239.148699 263.868002 1237.795797 C 264.423279 1236.450948 265.115364 1235.16247 265.928161 1233.946469 C 266.740958 1232.730468 267.66642 1231.603049 268.696499 1230.572267 C 269.734626 1229.533432 270.861276 1228.607338 272.076448 1227.793986 C 273.291619 1226.980635 274.579219 1226.296131 275.931198 1225.740474 C 277.283177 1225.176765 278.675394 1224.749957 280.107848 1224.468102 C 281.54835 1224.186248 282.996899 1224.041294 284.461543 1224.041294 C 285.926188 1224.041294 287.374737 1224.186248 288.807191 1224.468102 C 290.247693 1224.749957 291.63991 1225.176765 292.991889 1225.740474 C 294.343868 1226.296131 295.62342 1226.980635 296.846639 1227.793986 C 298.061811 1228.607338 299.188461 1229.533432 300.21854 1230.572267 C 301.256667 1231.603049 302.182129 1232.730468 302.994926 1233.946469 C 303.807723 1235.16247 304.49176 1236.450948 305.055085 1237.795797 C 305.610362 1239.148699 306.036879 1240.541866 306.318542 1241.983351 C 306.608252 1243.416782 306.753106 1244.86632 306.753106 1246.331964 Z M 306.753106 1246.331964 " transform="matrix(0.485399,0,0,0.485068,306.180335,297.369503)"/>
</g>
<g clip-path="url(#clip24)" clip-rule="nonzero">
<path style="fill:none;stroke-width:6;stroke-linecap:round;stroke-linejoin:miter;stroke:rgb(100%,69.018555%,0%);stroke-opacity:1;stroke-miterlimit:10;" d="M 263.908239 1220.457715 C 265.260219 1219.112866 266.724863 1217.904917 268.318267 1216.841923 C 269.903624 1215.786982 271.577503 1214.8931 273.339904 1214.160278 C 275.102306 1213.427456 276.92104 1212.879853 278.796106 1212.501363 C 280.663125 1212.130925 282.554287 1211.945707 284.461543 1211.945707 C 286.376847 1211.945707 288.268009 1212.130925 290.135028 1212.501363 C 292.010094 1212.879853 293.828828 1213.427456 295.59123 1214.160278 C 297.353632 1214.8931 299.027511 1215.786982 300.612867 1216.841923 C 302.198224 1217.904917 303.670916 1219.112866 305.022895 1220.457715 " transform="matrix(0.485399,0,0,0.485068,306.180335,297.369503)"/>
</g>
<g clip-path="url(#clip25)" clip-rule="nonzero">
<path style="fill:none;stroke-width:6;stroke-linecap:round;stroke-linejoin:miter;stroke:rgb(100%,69.018555%,0%);stroke-opacity:1;stroke-miterlimit:10;" d="M 392.000228 869.82258 L 392.000228 1108.996313 C 392.000228 1112.644316 392.466983 1116.219843 393.40854 1119.738998 C 394.350097 1123.258154 395.718171 1126.592091 397.536905 1129.748862 C 399.347592 1132.913686 401.536511 1135.78055 404.095614 1138.365559 C 406.662765 1140.950568 409.519626 1143.165139 412.65815 1145.00122 L 465.111726 1175.650891 C 468.25025 1177.486973 471.107111 1179.701544 473.666214 1182.286553 C 476.233365 1184.871562 478.422284 1187.746479 480.232971 1190.90325 C 482.043657 1194.060021 483.419779 1197.393958 484.353289 1200.913114 C 485.294846 1204.432269 485.7616 1208.007796 485.7616 1211.647746 " transform="matrix(0.485399,0,0,0.485068,306.180335,297.369503)"/>
</g>
<path style=" stroke:none;fill-rule:nonzero;fill:rgb(100%,100%,100%);fill-opacity:1;" d="M 552.601562 901.925781 C 552.601562 902.632812 552.535156 903.335938 552.394531 904.035156 C 552.257812 904.730469 552.050781 905.40625 551.78125 906.0625 C 551.507812 906.71875 551.175781 907.339844 550.78125 907.929688 C 550.386719 908.523438 549.9375 909.066406 549.433594 909.570312 C 548.933594 910.070312 548.386719 910.519531 547.792969 910.914062 C 547.203125 911.308594 546.582031 911.640625 545.925781 911.914062 C 545.269531 912.183594 544.589844 912.390625 543.894531 912.527344 C 543.199219 912.667969 542.492188 912.738281 541.785156 912.738281 C 541.074219 912.738281 540.371094 912.667969 539.671875 912.527344 C 538.976562 912.390625 538.300781 912.183594 537.644531 911.914062 C 536.988281 911.640625 536.363281 911.308594 535.773438 910.914062 C 535.183594 910.519531 534.636719 910.070312 534.132812 909.570312 C 533.628906 909.066406 533.183594 908.523438 532.789062 907.929688 C 532.394531 907.339844 532.058594 906.71875 531.789062 906.0625 C 531.515625 905.40625 531.308594 904.730469 531.171875 904.035156 C 531.035156 903.335938 530.964844 902.632812 530.964844 901.925781 C 530.964844 901.214844 531.035156 900.511719 531.171875 899.816406 C 531.308594 899.117188 531.515625 898.441406 531.789062 897.785156 C 532.058594 897.132812 532.394531 896.507812 532.789062 895.917969 C 533.183594 895.328125 533.628906 894.78125 534.132812 894.28125 C 534.636719 893.777344 535.183594 893.328125 535.773438 892.933594 C 536.363281 892.539062 536.988281 892.207031 537.644531 891.9375 C 538.300781 891.664062 538.976562 891.457031 539.671875 891.320312 C 540.371094 891.183594 541.074219 891.113281 541.785156 891.113281 C 542.492188 891.113281 543.199219 891.183594 543.894531 891.320312 C 544.589844 891.457031 545.269531 891.664062 545.925781 891.9375 C 546.582031 892.207031 547.203125 892.539062 547.792969 892.933594 C 548.386719 893.328125 548.933594 893.777344 549.433594 894.28125 C 549.9375 894.78125 550.386719 895.328125 550.78125 895.917969 C 551.175781 896.507812 551.507812 897.132812 551.78125 897.785156 C 552.050781 898.441406 552.257812 899.117188 552.394531 899.816406 C 552.535156 900.511719 552.601562 901.214844 552.601562 901.925781 Z M 552.601562 901.925781 "/>
<g clip-path="url(#clip26)" clip-rule="nonzero">
<path style="fill:none;stroke-width:6;stroke-linecap:round;stroke-linejoin:miter;stroke:rgb(100%,69.018555%,0%);stroke-opacity:1;stroke-miterlimit:10;" d="M 507.666884 1246.331964 C 507.666884 1247.789555 507.530076 1249.239092 507.240366 1250.680577 C 506.958704 1252.114009 506.532187 1253.507176 505.976909 1254.860078 C 505.413585 1256.21298 504.729548 1257.493405 503.916751 1258.709406 C 503.103953 1259.93346 502.178491 1261.052825 501.140365 1262.091661 C 500.110285 1263.122443 498.983636 1264.048537 497.760416 1264.861888 C 496.545244 1265.67524 495.265693 1266.359744 493.913713 1266.923453 C 492.561734 1267.479109 491.16147 1267.905918 489.729016 1268.187772 C 488.296561 1268.47768 486.839965 1268.622634 485.383368 1268.622634 C 483.918724 1268.622634 482.470175 1268.47768 481.029673 1268.187772 C 479.597219 1267.905918 478.205002 1267.479109 476.853023 1266.923453 C 475.501043 1266.359744 474.213444 1265.67524 472.998272 1264.861888 C 471.7831 1264.048537 470.656451 1263.122443 469.618324 1262.091661 C 468.580197 1261.052825 467.662782 1259.93346 466.849985 1258.709406 C 466.037188 1257.493405 465.345104 1256.21298 464.789827 1254.860078 C 464.226502 1253.507176 463.799985 1252.114009 463.518322 1250.680577 C 463.23666 1249.239092 463.091805 1247.789555 463.091805 1246.331964 C 463.091805 1244.86632 463.23666 1243.416782 463.518322 1241.983351 C 463.799985 1240.541866 464.226502 1239.148699 464.789827 1237.795797 C 465.345104 1236.450948 466.037188 1235.16247 466.849985 1233.946469 C 467.662782 1232.730468 468.580197 1231.603049 469.618324 1230.572267 C 470.656451 1229.533432 471.7831 1228.607338 472.998272 1227.793986 C 474.213444 1226.980635 475.501043 1226.296131 476.853023 1225.740474 C 478.205002 1225.176765 479.597219 1224.749957 481.029673 1224.468102 C 482.470175 1224.186248 483.918724 1224.041294 485.383368 1224.041294 C 486.839965 1224.041294 488.296561 1224.186248 489.729016 1224.468102 C 491.16147 1224.749957 492.561734 1225.176765 493.913713 1225.740474 C 495.265693 1226.296131 496.545244 1226.980635 497.760416 1227.793986 C 498.983636 1228.607338 500.110285 1229.533432 501.140365 1230.572267 C 502.178491 1231.603049 503.103953 1232.730468 503.916751 1233.946469 C 504.729548 1235.16247 505.413585 1236.450948 505.976909 1237.795797 C 506.532187 1239.148699 506.958704 1240.541866 507.240366 1241.983351 C 507.530076 1243.416782 507.666884 1244.86632 507.666884 1246.331964 Z M 507.666884 1246.331964 " transform="matrix(0.485399,0,0,0.485068,306.180335,297.369503)"/>
</g>
<g clip-path="url(#clip27)" clip-rule="nonzero">
<path style="fill:none;stroke-width:6;stroke-linecap:round;stroke-linejoin:miter;stroke:rgb(100%,69.018555%,0%);stroke-opacity:1;stroke-miterlimit:10;" d="M 505.928624 1220.457715 C 504.576645 1219.112866 503.112001 1217.904917 501.526644 1216.841923 C 499.941288 1215.786982 498.259361 1214.8931 496.49696 1214.160278 C 494.734558 1213.427456 492.915824 1212.879853 491.048805 1212.501363 C 489.173738 1212.130925 487.282577 1211.945707 485.37532 1211.945707 C 483.468064 1211.945707 481.576903 1212.130925 479.701836 1212.501363 C 477.834817 1212.879853 476.016083 1213.427456 474.253681 1214.160278 C 472.49128 1214.8931 470.809353 1215.786982 469.223997 1216.841923 C 467.63864 1217.904917 466.165948 1219.112866 464.822017 1220.457715 " transform="matrix(0.485399,0,0,0.485068,306.180335,297.369503)"/>
</g>
</g>
</svg>
