<?xml version="1.0" encoding="UTF-8"?>
<svg xmlns="http://www.w3.org/2000/svg" xmlns:xlink="http://www.w3.org/1999/xlink" width="1728pt" height="1295.99994pt" viewBox="0 0 1728 1295.99994" version="1.2">
<defs>
<clipPath id="clip1">
  <path d="M 1255 538 L 1462.703125 538 L 1462.703125 739 L 1255 739 Z M 1255 538 "/>
</clipPath>
<clipPath id="clip2">
  <path d="M 1302 402.085938 L 1358 402.085938 L 1358 471 L 1302 471 Z M 1302 402.085938 "/>
</clipPath>
<clipPath id="clip3">
  <path d="M 1305 402.085938 L 1358 402.085938 L 1358 443 L 1305 443 Z M 1305 402.085938 "/>
</clipPath>
<clipPath id="clip4">
  <path d="M 1108.152344 634 L 1326 634 L 1326 652 L 1108.152344 652 Z M 1108.152344 634 "/>
</clipPath>
<clipPath id="clip5">
  <path d="M 1108.152344 601 L 1358 601 L 1358 685 L 1108.152344 685 Z M 1108.152344 601 "/>
</clipPath>
<clipPath id="clip6">
  <path d="M 1273 651 L 1290 651 L 1290 920.195312 L 1273 920.195312 Z M 1273 651 "/>
</clipPath>
<clipPath id="clip7">
  <path d="M 1272 650 L 1292 650 L 1292 920.195312 L 1272 920.195312 Z M 1272 650 "/>
</clipPath>
<clipPath id="clip8">
  <path d="M 595 864 L 722 864 L 722 920.195312 L 595 920.195312 Z M 595 864 "/>
</clipPath>
<clipPath id="clip9">
  <path d="M 624 858 L 701 858 L 701 920.195312 L 624 920.195312 Z M 624 858 "/>
</clipPath>
<clipPath id="clip10">
  <path d="M 620 853 L 699 853 L 699 920.195312 L 620 920.195312 Z M 620 853 "/>
</clipPath>
<clipPath id="clip11">
  <path d="M 653 867 L 756.628906 867 L 756.628906 920.195312 L 653 920.195312 Z M 653 867 "/>
</clipPath>
<clipPath id="clip12">
  <path d="M 685 861 L 756.628906 861 L 756.628906 920.195312 L 685 920.195312 Z M 685 861 "/>
</clipPath>
<clipPath id="clip13">
  <path d="M 681 856 L 756 856 L 756 920.195312 L 681 920.195312 Z M 681 856 "/>
</clipPath>
<clipPath id="clip14">
  <path d="M 482 402.085938 L 563 402.085938 L 563 483 L 482 483 Z M 482 402.085938 "/>
</clipPath>
<clipPath id="clip15">
  <path d="M 633 485 L 756.628906 485 L 756.628906 637 L 633 637 Z M 633 485 "/>
</clipPath>
<clipPath id="clip16">
  <path d="M 661 521 L 756.628906 521 L 756.628906 609 L 661 609 Z M 661 521 "/>
</clipPath>
<clipPath id="clip17">
  <path d="M 633 492 L 756.628906 492 L 756.628906 637 L 633 637 Z M 633 492 "/>
</clipPath>
<clipPath id="clip18">
  <path d="M 429.628906 545 L 672 545 L 672 790 L 429.628906 790 Z M 429.628906 545 "/>
</clipPath>
<clipPath id="clip19">
  <path d="M 429.628906 612 L 609 612 L 609 785 L 429.628906 785 Z M 429.628906 612 "/>
</clipPath>
<clipPath id="clip20">
  <path d="M 510 717 L 617 717 L 617 920.195312 L 510 920.195312 Z M 510 717 "/>
</clipPath>
<clipPath id="clip21">
  <path d="M 501 861 L 588 861 L 588 920.195312 L 501 920.195312 Z M 501 861 "/>
</clipPath>
<clipPath id="clip22">
  <path d="M 501 856 L 588 856 L 588 920.195312 L 501 920.195312 Z M 501 856 "/>
</clipPath>
<clipPath id="clip23">
  <path d="M 553 718 L 661 718 L 661 920.195312 L 553 920.195312 Z M 553 718 "/>
</clipPath>
<clipPath id="clip24">
  <path d="M 582 861 L 669 861 L 669 920.195312 L 582 920.195312 Z M 582 861 "/>
</clipPath>
<clipPath id="clip25">
  <path d="M 583 856 L 669 856 L 669 920.195312 L 583 920.195312 Z M 583 856 "/>
</clipPath>
</defs>
<g id="surface1">
<path style="fill-rule:nonzero;fill:rgb(100%,100%,100%);fill-opacity:1;stroke-width:5;stroke-linecap:butt;stroke-linejoin:round;stroke:rgb(24.708557%,30.198669%,56.469727%);stroke-opacity:1;stroke-miterlimit:4;" d="M 345.045665 843.190684 L 750.575905 843.190684 L 750.575905 867.87045 L 345.045665 867.87045 Z M 345.045665 843.190684 " transform="matrix(0.384075,0,0,0.384298,1108.15247,402.096652)"/>
<path style=" stroke:none;fill-rule:nonzero;fill:rgb(100%,100%,100%);fill-opacity:1;" d="M 1416.867188 705.769531 C 1416.867188 618.640625 1460.109375 570.695312 1460.109375 570.695312 L 1331.570312 570.695312 C 1331.570312 570.695312 1288.324219 618.640625 1288.324219 705.769531 Z M 1416.867188 705.769531 "/>
<g clip-path="url(#clip1)" clip-rule="nonzero">
<path style="fill:none;stroke-width:6;stroke-linecap:butt;stroke-linejoin:miter;stroke:rgb(84.709167%,72.938538%,63.919067%);stroke-opacity:1;stroke-miterlimit:10;" d="M 803.788209 790.202372 C 803.788209 563.479892 916.37617 438.718998 916.37617 438.718998 L 581.704134 438.718998 C 581.704134 438.718998 469.106003 563.479892 469.106003 790.202372 Z M 803.788209 790.202372 " transform="matrix(0.384075,0,0,0.384298,1108.15247,402.096652)"/>
</g>
<path style="fill-rule:nonzero;fill:rgb(100%,100%,100%);fill-opacity:1;stroke-width:6;stroke-linecap:butt;stroke-linejoin:miter;stroke:rgb(84.709167%,72.938538%,63.919067%);stroke-opacity:1;stroke-miterlimit:10;" d="M 348.340922 790.202372 L 803.788209 790.202372 C 803.788209 791.940527 803.706845 793.668518 803.533946 795.396508 C 803.361046 797.124498 803.106783 798.832159 802.771155 800.53982 C 802.435527 802.237316 802.008364 803.924648 801.510007 805.581485 C 801.001479 807.248488 800.421758 808.874831 799.750502 810.480846 C 799.089417 812.08686 798.346967 813.652216 797.533323 815.187078 C 796.709508 816.711775 795.824671 818.205979 794.858469 819.649359 C 793.892267 821.092739 792.865041 822.485296 791.756452 823.827029 C 790.658033 825.168763 789.49859 826.449508 788.267954 827.679431 C 787.037318 828.899189 785.755829 830.068123 784.413316 831.165905 C 783.070804 832.273852 781.677439 833.300481 780.233221 834.266123 C 778.789004 835.231765 777.304104 836.126254 775.778522 836.939425 C 774.242769 837.762762 772.676505 838.504781 771.069558 839.165483 C 769.472782 839.826186 767.835324 840.415735 766.177525 840.913803 C 764.509555 841.422035 762.831415 841.838786 761.132933 842.184384 C 759.424281 842.519817 757.715629 842.773934 755.986636 842.946733 C 754.257643 843.119532 752.52865 843.200849 750.789486 843.200849 L 295.342199 843.200849 C 295.342199 841.462694 295.423563 839.734704 295.596463 838.006714 C 295.769362 836.278723 296.023626 834.560898 296.359254 832.863401 C 296.694882 831.155741 297.122045 829.478574 297.620402 827.811571 C 298.128929 826.154734 298.70865 824.518225 299.369736 822.922375 C 300.040992 821.316361 300.783442 819.751005 301.597086 818.216143 C 302.4209 816.681281 303.305738 815.197243 304.27194 813.753863 C 305.238142 812.310483 306.265367 810.917926 307.373957 809.576192 C 308.472376 808.234459 309.631818 806.953713 310.862454 805.72379 C 312.093091 804.493868 313.37458 803.335098 314.717092 802.227151 C 316.059604 801.129369 317.452969 800.092575 318.897187 799.137098 C 320.341405 798.171457 321.826305 797.276968 323.351887 796.453631 C 324.887639 795.640459 326.453904 794.89844 328.06085 794.237738 C 329.657626 793.566871 331.295084 792.987486 332.952884 792.479254 C 334.620853 791.981186 336.298994 791.554271 337.997475 791.218837 C 339.706127 790.883404 341.414779 790.629288 343.143772 790.456489 C 344.872765 790.28369 346.601758 790.202372 348.340922 790.202372 Z M 348.340922 790.202372 " transform="matrix(0.384075,0,0,0.384298,1108.15247,402.096652)"/>
<path style="fill-rule:nonzero;fill:rgb(100%,100%,100%);fill-opacity:1;stroke-width:5;stroke-linecap:butt;stroke-linejoin:round;stroke:rgb(24.708557%,30.198669%,56.469727%);stroke-opacity:1;stroke-miterlimit:4;" d="M 746.385639 1337.9956 C 745.724554 1337.9956 745.083809 1337.883789 744.453235 1337.660166 C 743.832832 1337.436544 743.263281 1337.111275 742.754754 1336.694525 C 742.236056 1336.26761 741.819064 1335.779706 741.473265 1335.200322 C 741.137637 1334.631101 740.903714 1334.021222 740.781668 1333.370685 L 651.667331 867.880615 L 702.753991 867.880615 L 752.070975 1331.683353 C 752.15234 1332.48636 752.070975 1333.279203 751.826882 1334.041552 C 751.572619 1334.814065 751.186138 1335.505261 750.636928 1336.104975 C 750.097889 1336.704689 749.457145 1337.172263 748.714695 1337.507697 C 747.972245 1337.832965 747.199283 1337.9956 746.385639 1337.9956 Z M 746.385639 1337.9956 " transform="matrix(0.384075,0,0,0.384298,1108.15247,402.096652)"/>
<path style="fill-rule:nonzero;fill:rgb(100%,100%,100%);fill-opacity:1;stroke-width:5;stroke-linecap:butt;stroke-linejoin:round;stroke:rgb(24.708557%,30.198669%,56.469727%);stroke-opacity:1;stroke-miterlimit:4;" d="M 350.080086 1337.9956 C 350.741171 1337.9956 351.392086 1337.883789 352.01249 1337.660166 C 352.632893 1337.436544 353.202444 1337.111275 353.721142 1336.694525 C 354.229669 1336.26761 354.656832 1335.779706 354.99246 1335.200322 C 355.328088 1334.631101 355.562011 1334.021222 355.694228 1333.370685 L 444.798394 867.880615 L 393.732075 867.880615 L 344.40492 1331.683353 C 344.313385 1332.48636 344.39475 1333.279203 344.638843 1334.041552 C 344.893106 1334.814065 345.289758 1335.505261 345.828797 1336.104975 C 346.367836 1336.704689 347.00858 1337.172263 347.75103 1337.507697 C 348.49348 1337.832965 349.266442 1337.9956 350.080086 1337.9956 Z M 350.080086 1337.9956 " transform="matrix(0.384075,0,0,0.384298,1108.15247,402.096652)"/>
<path style=" stroke:none;fill-rule:nonzero;fill:rgb(100%,69.018555%,0%);fill-opacity:1;" d="M 1204.472656 625.226562 C 1257.09375 637.910156 1283.457031 623.621094 1288.234375 614.90625 C 1288.234375 614.90625 1285.601562 598.542969 1287.546875 573.175781 C 1289.488281 547.808594 1285.402344 490.992188 1285.402344 490.992188 C 1273.808594 495.453125 1256.839844 502.59375 1251.789062 517.464844 C 1246.738281 532.339844 1245.941406 573.085938 1245.644531 590.507812 C 1245.644531 590.507812 1218.648438 599.773438 1206.550781 606.097656 C 1205.878906 606.449219 1205.273438 606.894531 1204.738281 607.4375 C 1204.203125 607.976562 1203.761719 608.585938 1203.417969 609.265625 C 1203.074219 609.945312 1202.84375 610.660156 1202.722656 611.410156 C 1202.601562 612.164062 1202.597656 612.914062 1202.710938 613.667969 Z M 1204.472656 625.226562 "/>
<path style="fill:none;stroke-width:5;stroke-linecap:butt;stroke-linejoin:round;stroke:rgb(100%,100%,100%);stroke-opacity:1;stroke-miterlimit:4;" d="M 386.002459 490.274094 C 386.002459 490.274094 372.353585 484.846172 345.218564 490.843315 " transform="matrix(0.384075,0,0,0.384298,1108.15247,402.096652)"/>
<path style=" stroke:none;fill-rule:nonzero;fill:rgb(76.469421%,43.528748%,4.309082%);fill-opacity:1;" d="M 1207.429688 615.941406 C 1207.570312 616.828125 1207.589844 617.710938 1207.488281 618.601562 C 1207.382812 619.492188 1207.160156 620.347656 1206.820312 621.175781 C 1206.476562 622.003906 1206.027344 622.765625 1205.472656 623.46875 C 1204.914062 624.167969 1204.273438 624.78125 1203.550781 625.304688 L 1202.945312 625.730469 C 1198.824219 628.578125 1190.921875 630.878906 1189.046875 630.753906 C 1187.171875 630.625 1175.648438 628.492188 1175.648438 628.492188 C 1175.648438 628.492188 1175.238281 626.921875 1176.925781 624.851562 C 1178.609375 622.78125 1190.960938 624.425781 1186.445312 619.878906 C 1184.4375 617.855469 1174.433594 622.417969 1170.082031 627.476562 C 1165.730469 632.53125 1163.664062 628.523438 1163.664062 628.523438 C 1163.664062 628.523438 1167.828125 619.15625 1169.316406 617.460938 C 1170.800781 615.765625 1180.742188 608.566406 1187.460938 607.46875 C 1190.664062 606.945312 1195.164062 607.242188 1199.636719 608.019531 C 1200.617188 608.191406 1201.546875 608.511719 1202.429688 608.972656 C 1203.308594 609.4375 1204.097656 610.023438 1204.796875 610.734375 C 1205.496094 611.445312 1206.070312 612.246094 1206.519531 613.132812 C 1206.96875 614.023438 1207.269531 614.960938 1207.429688 615.941406 Z M 1207.429688 615.941406 "/>
<path style=" stroke:none;fill-rule:nonzero;fill:rgb(76.469421%,43.528748%,4.309082%);fill-opacity:1;" d="M 1236.210938 899.691406 C 1240.457031 898.730469 1246.332031 896.671875 1249.601562 892.332031 L 1251.460938 882.300781 C 1251.460938 882.300781 1239.25 883.691406 1228.089844 882.621094 L 1230.253906 895.753906 C 1230.3125 896.082031 1230.40625 896.402344 1230.53125 896.710938 C 1230.652344 897.019531 1230.808594 897.316406 1230.992188 897.59375 C 1231.175781 897.871094 1231.386719 898.128906 1231.621094 898.367188 C 1231.855469 898.601562 1232.113281 898.8125 1232.390625 898.996094 C 1232.671875 899.179688 1232.964844 899.335938 1233.273438 899.457031 C 1233.582031 899.582031 1233.902344 899.675781 1234.230469 899.734375 C 1234.558594 899.796875 1234.890625 899.820312 1235.222656 899.8125 C 1235.554688 899.808594 1235.886719 899.765625 1236.210938 899.691406 Z M 1236.210938 899.691406 "/>
<path style=" stroke:none;fill-rule:nonzero;fill:rgb(100%,69.018555%,0%);fill-opacity:1;" d="M 1186.503906 911.980469 C 1186.570312 912.722656 1187.914062 916.28125 1187.914062 916.28125 L 1256.613281 913.953125 L 1256.613281 910.109375 C 1256.613281 903.679688 1254.425781 898.125 1253.269531 895.710938 C 1251.488281 891.988281 1249.015625 892.917969 1249.015625 892.917969 C 1249.015625 892.917969 1242.296875 899.488281 1234.761719 899.488281 C 1233.3125 899.488281 1232.269531 898.71875 1231.523438 897.597656 C 1231.078125 896.902344 1230.734375 896.15625 1230.496094 895.363281 C 1230.183594 894.332031 1229.960938 893.28125 1229.835938 892.210938 C 1229.808594 891.984375 1229.753906 891.765625 1229.671875 891.554688 C 1229.589844 891.339844 1229.484375 891.140625 1229.355469 890.953125 C 1229.226562 890.765625 1229.078125 890.597656 1228.90625 890.445312 C 1228.734375 890.296875 1228.550781 890.167969 1228.347656 890.0625 C 1228.148438 889.953125 1227.9375 889.875 1227.714844 889.816406 C 1227.496094 889.761719 1227.273438 889.734375 1227.042969 889.734375 C 1226.816406 889.734375 1226.59375 889.757812 1226.371094 889.8125 C 1226.152344 889.863281 1225.9375 889.941406 1225.738281 890.046875 C 1222.78125 891.585938 1219.1875 894.972656 1209.570312 900.167969 C 1209.089844 900.429688 1208.59375 900.695312 1208.078125 900.96875 C 1196.382812 907.125 1186.632812 904.835938 1186.503906 911.980469 Z M 1186.503906 911.980469 "/>
<path style=" stroke:none;fill-rule:nonzero;fill:rgb(24.708557%,30.198669%,47.44873%);fill-opacity:1;" d="M 1194.234375 919.683594 C 1192.246094 919.683594 1189.816406 918.785156 1188.515625 917.324219 C 1187.695312 916.363281 1187.128906 915.269531 1186.816406 914.042969 C 1186.5 912.820312 1186.472656 911.585938 1186.730469 910.347656 L 1186.785156 910.347656 C 1186.921875 911.078125 1187.175781 911.757812 1187.550781 912.398438 C 1187.921875 913.039062 1188.390625 913.597656 1188.953125 914.074219 C 1189.519531 914.554688 1190.144531 914.925781 1190.835938 915.1875 C 1191.527344 915.449219 1192.242188 915.589844 1192.984375 915.605469 L 1252.542969 913.863281 C 1254.390625 913.863281 1255.972656 912.582031 1256.617188 910.789062 L 1256.617188 914.792969 C 1256.617188 917.5 1254.652344 919.695312 1252.230469 919.695312 Z M 1194.234375 919.683594 "/>
<path style=" stroke:none;fill-rule:nonzero;fill:rgb(24.708557%,30.198669%,47.44873%);fill-opacity:1;" d="M 1206.988281 901.53125 C 1207.859375 901.6875 1208.71875 901.90625 1209.5625 902.183594 C 1210.402344 902.464844 1211.222656 902.800781 1212.019531 903.195312 C 1212.8125 903.585938 1213.578125 904.035156 1214.3125 904.535156 C 1215.042969 905.035156 1215.738281 905.585938 1216.394531 906.183594 C 1217.050781 906.785156 1217.660156 907.425781 1218.226562 908.109375 C 1218.789062 908.792969 1219.304688 909.515625 1219.769531 910.273438 C 1220.234375 911.027344 1220.644531 911.8125 1220.996094 912.628906 C 1221.351562 913.441406 1221.648438 914.277344 1221.882812 915.132812 L 1224.628906 915.039062 C 1224.191406 913.265625 1223.542969 911.574219 1222.683594 909.964844 C 1221.820312 908.355469 1220.773438 906.882812 1219.539062 905.539062 C 1218.304688 904.195312 1216.921875 903.023438 1215.390625 902.03125 C 1213.863281 901.035156 1212.234375 900.25 1210.503906 899.664062 L 1209.574219 900.167969 C 1209.09375 900.429688 1208.59375 900.695312 1208.082031 900.96875 C 1207.71875 901.164062 1207.351562 901.351562 1206.988281 901.53125 Z M 1206.988281 901.53125 "/>
<path style=" stroke:none;fill-rule:nonzero;fill:rgb(24.708557%,30.198669%,47.44873%);fill-opacity:1;" d="M 1200.191406 904.167969 L 1200.191406 904.523438 C 1201.0625 904.523438 1201.925781 904.589844 1202.785156 904.714844 C 1203.644531 904.839844 1204.488281 905.027344 1205.324219 905.277344 C 1206.15625 905.527344 1206.964844 905.835938 1207.753906 906.203125 C 1208.539062 906.566406 1209.296875 906.988281 1210.023438 907.464844 C 1210.75 907.941406 1211.441406 908.46875 1212.089844 909.042969 C 1212.742188 909.621094 1213.347656 910.242188 1213.90625 910.90625 C 1214.46875 911.570312 1214.976562 912.269531 1215.4375 913.007812 C 1215.894531 913.746094 1216.296875 914.515625 1216.644531 915.3125 L 1219.496094 915.214844 C 1218.898438 913.640625 1218.125 912.160156 1217.167969 910.777344 C 1216.214844 909.390625 1215.105469 908.140625 1213.84375 907.027344 C 1212.585938 905.914062 1211.210938 904.964844 1209.71875 904.1875 C 1208.226562 903.40625 1206.664062 902.820312 1205.03125 902.421875 C 1203.449219 903.085938 1201.835938 903.667969 1200.191406 904.167969 Z M 1200.191406 904.167969 "/>
<path style=" stroke:none;fill-rule:nonzero;fill:rgb(76.469421%,43.528748%,4.309082%);fill-opacity:1;" d="M 1319.679688 899.691406 C 1323.925781 898.730469 1329.410156 896.671875 1332.683594 892.332031 L 1333.777344 881.464844 C 1333.777344 881.464844 1322.320312 882.46875 1311.164062 881.394531 L 1313.722656 895.753906 C 1313.785156 896.082031 1313.875 896.402344 1314 896.710938 C 1314.125 897.019531 1314.277344 897.316406 1314.460938 897.59375 C 1314.644531 897.871094 1314.855469 898.128906 1315.089844 898.367188 C 1315.324219 898.601562 1315.582031 898.8125 1315.859375 898.996094 C 1316.136719 899.179688 1316.433594 899.332031 1316.742188 899.457031 C 1317.050781 899.582031 1317.371094 899.675781 1317.699219 899.734375 C 1318.027344 899.796875 1318.355469 899.820312 1318.691406 899.8125 C 1319.023438 899.808594 1319.351562 899.765625 1319.679688 899.691406 Z M 1319.679688 899.691406 "/>
<path style=" stroke:none;fill-rule:nonzero;fill:rgb(100%,75.289917%,19.999695%);fill-opacity:1;" d="M 1273.859375 911.980469 C 1273.921875 912.722656 1275.265625 916.28125 1275.265625 916.28125 L 1340.082031 913.953125 L 1340.082031 910.109375 C 1340.082031 903.679688 1337.898438 898.125 1336.746094 895.710938 C 1334.960938 891.988281 1332.492188 892.140625 1332.492188 892.140625 C 1332.492188 892.140625 1325.769531 899.488281 1318.234375 899.488281 C 1316.78125 899.488281 1315.742188 898.71875 1315 897.597656 C 1314.550781 896.902344 1314.207031 896.15625 1313.96875 895.363281 C 1313.65625 894.332031 1313.433594 893.28125 1313.308594 892.210938 C 1313.28125 891.984375 1313.226562 891.765625 1313.144531 891.554688 C 1313.0625 891.339844 1312.957031 891.140625 1312.828125 890.953125 C 1312.699219 890.765625 1312.550781 890.597656 1312.378906 890.445312 C 1312.207031 890.296875 1312.023438 890.167969 1311.820312 890.0625 C 1311.621094 889.953125 1311.410156 889.875 1311.1875 889.820312 C 1310.96875 889.761719 1310.742188 889.734375 1310.515625 889.734375 C 1310.289062 889.734375 1310.066406 889.757812 1309.84375 889.8125 C 1309.621094 889.863281 1309.410156 889.941406 1309.207031 890.046875 C 1306.25 891.585938 1306.542969 894.972656 1296.917969 900.167969 C 1296.4375 900.429688 1295.9375 900.695312 1295.421875 900.96875 C 1283.730469 907.125 1273.984375 904.835938 1273.859375 911.980469 Z M 1273.859375 911.980469 "/>
<path style=" stroke:none;fill-rule:nonzero;fill:rgb(24.708557%,30.198669%,47.44873%);fill-opacity:1;" d="M 1281.585938 919.683594 C 1279.597656 919.683594 1277.167969 918.785156 1275.867188 917.324219 C 1275.046875 916.363281 1274.480469 915.269531 1274.164062 914.042969 C 1273.851562 912.820312 1273.824219 911.585938 1274.082031 910.347656 L 1274.132812 910.347656 C 1274.273438 911.078125 1274.527344 911.757812 1274.898438 912.398438 C 1275.273438 913.039062 1275.738281 913.597656 1276.304688 914.074219 C 1276.867188 914.554688 1277.496094 914.925781 1278.1875 915.1875 C 1278.878906 915.449219 1279.59375 915.589844 1280.332031 915.605469 L 1336.023438 913.863281 C 1337.871094 913.863281 1339.449219 912.582031 1340.09375 910.789062 L 1340.09375 914.792969 C 1340.09375 917.5 1338.132812 919.695312 1335.710938 919.695312 Z M 1281.585938 919.683594 "/>
<path style=" stroke:none;fill-rule:nonzero;fill:rgb(24.708557%,30.198669%,47.44873%);fill-opacity:1;" d="M 1294.335938 901.53125 C 1295.210938 901.6875 1296.066406 901.90625 1296.910156 902.183594 C 1297.753906 902.464844 1298.574219 902.800781 1299.367188 903.195312 C 1300.164062 903.585938 1300.929688 904.035156 1301.660156 904.535156 C 1302.394531 905.035156 1303.085938 905.585938 1303.742188 906.183594 C 1304.398438 906.785156 1305.007812 907.425781 1305.574219 908.109375 C 1306.140625 908.792969 1306.65625 909.515625 1307.121094 910.273438 C 1307.585938 911.027344 1307.992188 911.8125 1308.347656 912.628906 C 1308.703125 913.441406 1308.996094 914.277344 1309.234375 915.132812 L 1311.976562 915.039062 C 1311.542969 913.265625 1310.894531 911.574219 1310.03125 909.964844 C 1309.171875 908.355469 1308.121094 906.882812 1306.886719 905.539062 C 1305.652344 904.195312 1304.273438 903.023438 1302.742188 902.03125 C 1301.210938 901.035156 1299.582031 900.25 1297.855469 899.664062 L 1296.925781 900.167969 C 1296.445312 900.429688 1295.945312 900.695312 1295.429688 900.96875 C 1295.066406 901.164062 1294.703125 901.351562 1294.335938 901.53125 Z M 1294.335938 901.53125 "/>
<path style=" stroke:none;fill-rule:nonzero;fill:rgb(24.708557%,30.198669%,47.44873%);fill-opacity:1;" d="M 1287.542969 904.167969 L 1287.542969 904.523438 C 1288.410156 904.523438 1289.273438 904.589844 1290.132812 904.714844 C 1290.996094 904.839844 1291.839844 905.027344 1292.671875 905.277344 C 1293.503906 905.527344 1294.316406 905.835938 1295.101562 906.203125 C 1295.890625 906.566406 1296.648438 906.988281 1297.375 907.464844 C 1298.101562 907.941406 1298.789062 908.46875 1299.441406 909.042969 C 1300.089844 909.621094 1300.695312 910.242188 1301.257812 910.90625 C 1301.816406 911.570312 1302.328125 912.269531 1302.785156 913.007812 C 1303.246094 913.746094 1303.648438 914.515625 1303.996094 915.3125 L 1306.847656 915.214844 C 1306.25 913.640625 1305.476562 912.160156 1304.519531 910.777344 C 1303.5625 909.390625 1302.457031 908.140625 1301.195312 907.027344 C 1299.933594 905.914062 1298.558594 904.964844 1297.070312 904.1875 C 1295.578125 903.40625 1294.015625 902.820312 1292.382812 902.421875 C 1290.800781 903.085938 1289.1875 903.667969 1287.542969 904.167969 Z M 1287.542969 904.167969 "/>
<path style=" stroke:none;fill-rule:nonzero;fill:rgb(84.709167%,72.938538%,63.919067%);fill-opacity:1;" d="M 1337.316406 725.289062 C 1337.316406 725.289062 1365.042969 764.816406 1340.707031 880.164062 C 1340.707031 880.164062 1327.949219 884.445312 1307.621094 881.316406 C 1307.621094 881.316406 1280.097656 769.160156 1276.355469 720.558594 C 1269.601562 720.359375 1262.609375 720.238281 1255.398438 720.238281 C 1255.398438 720.238281 1284.484375 779.722656 1256.25 882.265625 C 1256.25 882.265625 1235.453125 883.753906 1224.519531 882.191406 C 1224.519531 882.191406 1190.957031 714.535156 1193.125 698.945312 C 1195.722656 680.179688 1254.800781 656.21875 1291.964844 652.839844 L 1375.136719 652.324219 C 1375.136719 652.324219 1396.457031 673.84375 1387.558594 704.378906 C 1380.882812 727.285156 1337.316406 725.289062 1337.316406 725.289062 Z M 1337.316406 725.289062 "/>
<path style=" stroke:none;fill-rule:nonzero;fill:rgb(94.119263%,88.238525%,83.139038%);fill-opacity:1;" d="M 1381.199219 660.234375 C 1381.472656 661.054688 1381.878906 661.804688 1382.421875 662.480469 C 1382.421875 662.480469 1309.535156 687.308594 1278.863281 656.074219 C 1312.1875 667.746094 1366.875 662.027344 1381.199219 660.234375 Z M 1381.199219 660.234375 "/>
<path style=" stroke:none;fill-rule:nonzero;fill:rgb(100%,69.018555%,0%);fill-opacity:1;" d="M 1350.433594 470.777344 C 1354.222656 473.890625 1400.894531 500.957031 1407.582031 504.675781 C 1414.269531 508.398438 1376.386719 590.042969 1377.566406 619.171875 C 1378.441406 640.792969 1384.371094 659.761719 1384.371094 659.761719 C 1384.371094 659.761719 1317.507812 669.609375 1278.863281 656.074219 C 1278.863281 656.074219 1286.890625 644.160156 1282.429688 619.488281 C 1278.816406 599.472656 1271.460938 543.902344 1273.511719 522.523438 C 1274.257812 514.789062 1275.59375 495.605469 1285.417969 490.992188 C 1300.28125 484.007812 1310.535156 477.925781 1310.535156 477.925781 Z M 1350.433594 470.777344 "/>
<path style="fill:none;stroke-width:5;stroke-linecap:butt;stroke-linejoin:round;stroke:rgb(100%,100%,100%);stroke-opacity:1;stroke-miterlimit:4;" d="M 453.748476 568.694356 C 444.34072 516.600534 425.748959 413.480176 439.641927 343.689701 " transform="matrix(0.384075,0,0,0.384298,1108.15247,402.096652)"/>
<path style=" stroke:none;fill-rule:nonzero;fill:rgb(100%,69.018555%,0%);fill-opacity:1;" d="M 1407.582031 504.898438 C 1427.5 522.449219 1429.394531 594.972656 1416.796875 608.1875 C 1392.125 634.066406 1317.648438 633.773438 1317.648438 633.773438 C 1317.648438 633.773438 1309.855469 632.648438 1314.316406 614.503906 C 1314.316406 614.503906 1369.53125 586.605469 1374.878906 586.769531 C 1374.878906 586.769531 1373.988281 535.015625 1385.285156 519.550781 C 1396.582031 504.085938 1405.238281 502.835938 1407.582031 504.898438 Z M 1407.582031 504.898438 "/>
<path style="fill:none;stroke-width:5;stroke-linecap:round;stroke-linejoin:round;stroke:rgb(100%,100%,100%);stroke-opacity:1;stroke-miterlimit:4;" d="M 706.64931 586.878912 C 630.532933 606.232403 545.456303 603.884369 545.456303 603.884369 " transform="matrix(0.384075,0,0,0.384298,1108.15247,402.096652)"/>
<path style="fill:none;stroke-width:5;stroke-linecap:butt;stroke-linejoin:round;stroke:rgb(100%,100%,100%);stroke-opacity:1;stroke-miterlimit:4;" d="M 536.780826 551.709229 C 536.780826 551.709229 613.20232 508.814413 694.464994 479.540226 C 694.464994 479.540226 697.851787 376.338551 706.395047 346.058064 " transform="matrix(0.384075,0,0,0.384298,1108.15247,402.096652)"/>
<path style=" stroke:none;fill-rule:nonzero;fill:rgb(76.469421%,43.528748%,4.309082%);fill-opacity:1;" d="M 1315.457031 614.230469 C 1315.457031 614.230469 1298.789062 607.929688 1293.398438 611.097656 C 1287.503906 614.554688 1276.589844 625.613281 1275.949219 627.472656 C 1275.3125 629.332031 1275.507812 631.273438 1275.625 633.269531 C 1275.738281 635.269531 1295.710938 635.234375 1298.078125 635.097656 C 1300.441406 634.957031 1313.414062 636.359375 1315.601562 633.980469 C 1323.644531 625.261719 1315.457031 614.230469 1315.457031 614.230469 Z M 1315.457031 614.230469 "/>
<path style=" stroke:none;fill-rule:nonzero;fill:rgb(71.369934%,35.289001%,9.408569%);fill-opacity:1;" d="M 1347.089844 444.664062 C 1347.089844 444.664062 1342.628906 455.808594 1350.433594 470.796875 C 1350.433594 470.796875 1339.730469 486.050781 1322.78125 485.953125 C 1300.890625 485.835938 1310.519531 477.925781 1310.519531 477.925781 C 1310.519531 477.925781 1313.863281 472.570312 1313.207031 462.976562 Z M 1347.089844 444.664062 "/>
<g clip-path="url(#clip2)" clip-rule="nonzero">
<path style=" stroke:none;fill-rule:nonzero;fill:rgb(76.469421%,43.528748%,4.309082%);fill-opacity:1;" d="M 1343.667969 451.285156 C 1343.222656 453.371094 1343.15625 462.363281 1339.441406 464.890625 C 1334.632812 468.164062 1320.484375 473.300781 1309.785156 469.433594 C 1308.414062 468.9375 1301.605469 448.90625 1302.050781 442.066406 C 1302.5 435.226562 1302.648438 410.984375 1317.800781 404.886719 C 1332.953125 398.789062 1351.089844 402.195312 1356.144531 420.054688 C 1358.210938 427.355469 1356.507812 433.890625 1353.769531 439.082031 C 1353.769531 439.082031 1355.519531 442.226562 1352.710938 445.355469 C 1349.660156 448.773438 1343.667969 451.285156 1343.667969 451.285156 Z M 1343.667969 451.285156 "/>
</g>
<g clip-path="url(#clip3)" clip-rule="nonzero">
<path style=" stroke:none;fill-rule:nonzero;fill:rgb(44.709778%,17.649841%,32.939148%);fill-opacity:1;" d="M 1353.777344 439.078125 C 1350.210938 435.046875 1345.304688 442.214844 1345.304688 442.214844 L 1345.234375 442.597656 C 1343.871094 441.859375 1342.761719 440.84375 1341.90625 439.550781 C 1339.855469 436.445312 1339.6875 432.992188 1339.960938 420.566406 C 1339.960938 420.566406 1320.0625 422.667969 1305.632812 419.199219 C 1307.847656 413 1311.550781 407.390625 1317.808594 404.875 C 1332.964844 398.777344 1351.101562 402.183594 1356.152344 420.042969 C 1358.21875 427.339844 1356.515625 433.886719 1353.777344 439.078125 Z M 1353.777344 439.078125 "/>
</g>
<path style=" stroke:none;fill-rule:nonzero;fill:rgb(94.119263%,88.238525%,83.139038%);fill-opacity:1;" d="M 1327.394531 480.058594 C 1330.167969 478.773438 1341.664062 474.582031 1349.785156 466.351562 C 1349.785156 466.351562 1357.894531 474.21875 1357.964844 475.617188 C 1358.039062 477.015625 1340.792969 488.714844 1335.941406 489.210938 Z M 1327.394531 480.058594 "/>
<path style=" stroke:none;fill-rule:nonzero;fill:rgb(94.119263%,88.238525%,83.139038%);fill-opacity:1;" d="M 1310.535156 473.742188 C 1311.304688 475.128906 1313.25 478.402344 1318.796875 479.890625 C 1318.796875 479.890625 1314.734375 486.53125 1310.96875 488.613281 C 1310.96875 488.613281 1304.820312 485.921875 1303.152344 482.417969 C 1302.042969 480.109375 1310.535156 473.742188 1310.535156 473.742188 Z M 1310.535156 473.742188 "/>
<path style=" stroke:none;fill-rule:nonzero;fill:rgb(84.709167%,72.938538%,63.919067%);fill-opacity:1;" d="M 1318.796875 479.890625 L 1322.785156 485.933594 L 1327.394531 480.058594 L 1331.617188 484.578125 C 1331.617188 484.578125 1325.726562 487.386719 1314.71875 485.375 Z M 1318.796875 479.890625 "/>
<g clip-path="url(#clip4)" clip-rule="nonzero">
<path style=" stroke:none;fill-rule:nonzero;fill:rgb(100%,100%,100%);fill-opacity:1;" d="M 1108.152344 634.210938 L 1317.390625 634.210938 C 1317.894531 634.210938 1318.394531 634.261719 1318.886719 634.359375 C 1319.382812 634.457031 1319.863281 634.605469 1320.328125 634.796875 C 1320.792969 634.992188 1321.238281 635.226562 1321.65625 635.507812 C 1322.074219 635.789062 1322.464844 636.105469 1322.820312 636.464844 C 1323.175781 636.820312 1323.496094 637.207031 1323.777344 637.628906 C 1324.054688 638.046875 1324.292969 638.492188 1324.484375 638.957031 C 1324.679688 639.421875 1324.824219 639.902344 1324.921875 640.398438 C 1325.019531 640.894531 1325.070312 641.394531 1325.070312 641.898438 L 1325.070312 643.933594 C 1325.070312 644.441406 1325.019531 644.941406 1324.921875 645.433594 C 1324.824219 645.929688 1324.679688 646.410156 1324.484375 646.875 C 1324.292969 647.34375 1324.054688 647.785156 1323.777344 648.207031 C 1323.496094 648.625 1323.175781 649.011719 1322.820312 649.371094 C 1322.464844 649.726562 1322.074219 650.046875 1321.65625 650.324219 C 1321.238281 650.605469 1320.792969 650.84375 1320.328125 651.035156 C 1319.863281 651.230469 1319.382812 651.375 1318.886719 651.472656 C 1318.394531 651.570312 1317.894531 651.621094 1317.390625 651.621094 L 1108.535156 651.621094 "/>
</g>
<g clip-path="url(#clip5)" clip-rule="nonzero">
<path style="fill:none;stroke-width:6;stroke-linecap:butt;stroke-linejoin:miter;stroke:rgb(84.709167%,72.938538%,63.919067%);stroke-opacity:1;stroke-miterlimit:10;" d="M -0.00032983 603.99618 L 544.785047 603.99618 C 546.097048 603.99618 547.398878 604.12832 548.680367 604.382437 C 549.972026 604.636553 551.223003 605.022809 552.433299 605.520877 C 553.643594 606.02911 554.803036 606.638988 555.891285 607.370843 C 556.979533 608.102698 557.996588 608.926034 558.922108 609.861182 C 559.847628 610.786165 560.681613 611.792465 561.413892 612.890247 C 562.136001 613.977865 562.756404 615.136634 563.254761 616.346228 C 563.763289 617.555821 564.139599 618.806072 564.393862 620.096983 C 564.648126 621.387893 564.780343 622.688968 564.780343 624.000208 L 564.780343 629.29599 C 564.780343 630.617394 564.648126 631.918469 564.393862 633.199215 C 564.139599 634.490125 563.763289 635.740377 563.254761 636.94997 C 562.756404 638.169728 562.136001 639.318333 561.413892 640.416115 C 560.681613 641.503732 559.847628 642.510032 558.922108 643.44518 C 557.996588 644.370163 556.979533 645.203664 555.891285 645.925354 C 554.803036 646.657209 553.643594 647.277252 552.433299 647.77532 C 551.223003 648.283553 549.972026 648.659645 548.680367 648.913761 C 547.398878 649.167877 546.097048 649.300017 544.785047 649.300017 L 0.996384 649.300017 " transform="matrix(0.384075,0,0,0.384298,1108.15247,402.096652)"/>
</g>
<g clip-path="url(#clip6)" clip-rule="nonzero">
<path style=" stroke:none;fill-rule:nonzero;fill:rgb(100%,100%,100%);fill-opacity:1;" d="M 1273.289062 920.1875 L 1273.289062 651.898438 L 1290 651.898438 L 1290 920.179688 "/>
</g>
<path style=" stroke:none;fill-rule:nonzero;fill:rgb(94.119263%,88.238525%,83.139038%);fill-opacity:1;" d="M 1273.289062 657.230469 L 1273.289062 651.898438 L 1290 651.898438 L 1290 670.441406 Z M 1273.289062 657.230469 "/>
<g clip-path="url(#clip7)" clip-rule="nonzero">
<path style="fill:none;stroke-width:6;stroke-linecap:butt;stroke-linejoin:miter;stroke:rgb(84.709167%,72.938538%,63.919067%);stroke-opacity:1;stroke-miterlimit:10;" d="M 429.959566 1347.143783 L 429.959566 650.021707 L 473.469168 650.021707 L 473.469168 1347.123454 " transform="matrix(0.384075,0,0,0.384298,1108.15247,402.096652)"/>
</g>
<path style="fill-rule:nonzero;fill:rgb(100%,100%,100%);fill-opacity:1;stroke-width:5;stroke-linecap:butt;stroke-linejoin:miter;stroke:rgb(24.708557%,30.198669%,56.469727%);stroke-opacity:1;stroke-miterlimit:10;" d="M 447.829218 603.99618 L 229.996431 603.99618 C 228.29795 603.99618 226.61981 603.762393 224.982351 603.284655 C 223.344893 602.817081 221.79897 602.125885 220.364923 601.211066 C 218.920705 600.306413 217.629046 599.218795 216.489944 597.938049 C 215.361013 596.667468 214.425323 595.254582 213.693044 593.71972 L 143.282343 446.596601 C 142.946715 445.89524 142.692452 445.153221 142.550064 444.390872 C 142.397506 443.618359 142.346653 442.845845 142.387335 442.063167 C 142.428017 441.28049 142.570405 440.518141 142.814498 439.776122 C 143.048421 439.023938 143.384049 438.322577 143.801041 437.661875 C 144.218034 437.001173 144.70622 436.401458 145.275771 435.862732 C 145.845321 435.324006 146.475895 434.866596 147.157322 434.490504 C 147.848919 434.114412 148.571028 433.829802 149.323649 433.626509 C 150.08644 433.433381 150.859401 433.341899 151.642533 433.341899 L 369.465149 433.341899 C 371.173801 433.341899 372.851941 433.575686 374.4894 434.053425 C 376.126858 434.520998 377.66261 435.212195 379.106828 436.127013 C 380.551046 437.031667 381.842705 438.129449 382.971636 439.40003 C 384.110738 440.670611 385.046428 442.083497 385.778707 443.618359 L 456.189408 590.761808 C 456.525036 591.463169 456.769129 592.205188 456.921687 592.967536 C 457.064075 593.74005 457.114927 594.512563 457.074245 595.295241 C 457.023393 596.067754 456.881005 596.830103 456.647082 597.572122 C 456.402989 598.324306 456.077532 599.025667 455.660539 599.686369 C 455.243547 600.347071 454.74519 600.946785 454.175639 601.475347 C 453.606089 602.014073 452.985685 602.471483 452.304258 602.847575 C 451.612661 603.223667 450.890552 603.508277 450.137932 603.71157 C 449.385311 603.904698 448.61235 603.99618 447.829218 603.99618 Z M 447.829218 603.99618 " transform="matrix(0.384075,0,0,0.384298,1108.15247,402.096652)"/>
<path style=" stroke:none;fill-rule:nonzero;fill:rgb(94.119263%,88.238525%,83.139038%);fill-opacity:1;" d="M 1280.019531 633.363281 L 1197.703125 633.363281 C 1197.089844 633.339844 1196.492188 633.234375 1195.90625 633.050781 C 1195.320312 632.863281 1194.773438 632.601562 1194.261719 632.265625 C 1193.746094 631.929688 1193.289062 631.527344 1192.882812 631.066406 C 1192.480469 630.605469 1192.144531 630.097656 1191.878906 629.542969 L 1179.972656 604.621094 L 1180.15625 604.304688 L 1270.414062 604.304688 L 1270.5625 604.617188 L 1281.949219 628.445312 C 1283.675781 631.226562 1282.550781 633.363281 1280.019531 633.363281 Z M 1280.019531 633.363281 "/>
<path style="fill-rule:nonzero;fill:rgb(100%,100%,100%);fill-opacity:1;stroke-width:5;stroke-linecap:butt;stroke-linejoin:round;stroke:rgb(24.708557%,30.198669%,56.469727%);stroke-opacity:1;stroke-miterlimit:4;" d="M 424.996338 525.860528 L 385.148133 595.437546 C 382.147822 600.682505 375.8014 604.016509 368.834575 604.016509 L 151.001789 604.016509 C 144.177351 604.016509 139.702311 598.080355 142.641599 592.937043 L 181.076098 525.860528 Z M 424.996338 525.860528 " transform="matrix(0.384075,0,0,0.384298,1108.15247,402.096652)"/>
<path style=" stroke:none;fill-rule:nonzero;fill:rgb(24.708557%,30.198669%,56.469727%);fill-opacity:1;" d="M 638.640625 875.5625 C 639.421875 881.484375 630.699219 891.902344 630.699219 897.578125 C 630.699219 899.664062 638.652344 902.488281 646.050781 906.117188 C 655.105469 910.550781 663.824219 915.695312 666.957031 915.695312 L 687.1875 915.695312 C 687.1875 915.695312 687.210938 904.035156 675.777344 902.214844 C 663.46875 900.253906 656.882812 875.203125 656.882812 875.203125 Z M 638.640625 875.5625 "/>
<g clip-path="url(#clip8)" clip-rule="nonzero">
<path style="fill:none;stroke-width:6;stroke-linecap:round;stroke-linejoin:miter;stroke:rgb(82.348633%,66.668701%,57.249451%);stroke-opacity:1;stroke-miterlimit:10;" d="M 496.508723 1230.995864 C 518.934126 1242.00305 579.7119 1275.073055 587.506153 1275.073055 L 637.588586 1275.073055 " transform="matrix(0.403943,0,0,0.403146,429.629978,402.088656)"/>
</g>
<g clip-path="url(#clip9)" clip-rule="nonzero">
<path style="fill:none;stroke-width:6;stroke-linecap:round;stroke-linejoin:miter;stroke:rgb(82.348633%,66.668701%,57.249451%);stroke-opacity:1;stroke-miterlimit:10;" d="M 567.991508 1224.135752 L 586.229675 1217.043093 " transform="matrix(0.403943,0,0,0.403146,429.629978,402.088656)"/>
</g>
<g clip-path="url(#clip10)" clip-rule="nonzero">
<path style="fill:none;stroke-width:6;stroke-linecap:round;stroke-linejoin:miter;stroke:rgb(82.348633%,66.668701%,57.249451%);stroke-opacity:1;stroke-miterlimit:10;" d="M 557.789352 1212.915398 L 580.118052 1204.795661 " transform="matrix(0.403943,0,0,0.403146,429.629978,402.088656)"/>
</g>
<path style=" stroke:none;fill-rule:nonzero;fill:rgb(82.348633%,66.668701%,57.249451%);fill-opacity:1;" d="M 599.785156 666.230469 C 599.785156 666.230469 678.035156 663.40625 711.277344 683.851562 C 725.890625 692.839844 662.109375 878.058594 662.109375 878.058594 C 662.109375 878.058594 641.332031 878.40625 630.257812 872.875 C 630.257812 872.875 615.3125 770.878906 652.367188 730.535156 C 652.367188 730.535156 566.691406 742.429688 528.515625 715.300781 Z M 599.785156 666.230469 "/>
<path style=" stroke:none;fill-rule:nonzero;fill:rgb(24.708557%,30.198669%,56.469727%);fill-opacity:1;" d="M 695.476562 878.441406 C 696.257812 884.363281 687.945312 894.78125 687.945312 900.457031 C 687.945312 902.542969 695.484375 905.367188 702.871094 908.996094 C 711.929688 913.429688 720.644531 918.574219 723.777344 918.574219 L 744.011719 918.574219 C 744.011719 918.574219 744.03125 906.910156 732.601562 905.09375 C 720.289062 903.128906 713.707031 878.082031 713.707031 878.082031 Z M 695.476562 878.441406 "/>
<g clip-path="url(#clip11)" clip-rule="nonzero">
<path style="fill:none;stroke-width:6;stroke-linecap:round;stroke-linejoin:miter;stroke:rgb(82.348633%,66.668701%,57.249451%);stroke-opacity:1;stroke-miterlimit:10;" d="M 638.217155 1238.088523 C 660.642558 1249.086019 720.395281 1282.156025 728.218545 1282.156025 L 778.310648 1282.156025 " transform="matrix(0.403943,0,0,0.403146,429.629978,402.088656)"/>
</g>
<g clip-path="url(#clip12)" clip-rule="nonzero">
<path style="fill:none;stroke-width:6;stroke-linecap:round;stroke-linejoin:miter;stroke:rgb(82.348633%,66.668701%,57.249451%);stroke-opacity:1;stroke-miterlimit:10;" d="M 717.861665 1228.20531 L 726.932397 1224.174509 " transform="matrix(0.403943,0,0,0.403146,429.629978,402.088656)"/>
</g>
<g clip-path="url(#clip13)" clip-rule="nonzero">
<path style="fill:none;stroke-width:6;stroke-linecap:round;stroke-linejoin:miter;stroke:rgb(82.348633%,66.668701%,57.249451%);stroke-opacity:1;stroke-miterlimit:10;" d="M 707.659509 1217.004335 L 720.811103 1211.936766 " transform="matrix(0.403943,0,0,0.403146,429.629978,402.088656)"/>
</g>
<path style=" stroke:none;fill-rule:nonzero;fill:rgb(84.709167%,72.938538%,63.919067%);fill-opacity:1;" d="M 517.121094 721.085938 C 564.144531 757.457031 678.382812 741.910156 678.382812 741.910156 C 678.382812 741.910156 657.261719 778.996094 688.425781 881.300781 C 688.425781 881.300781 702.964844 883.71875 718.199219 881.300781 C 718.199219 881.300781 720.28125 804.453125 731.359375 721.929688 C 733.449219 706.367188 678.039062 682.125 593.210938 678.84375 Z M 517.121094 721.085938 "/>
<g clip-path="url(#clip14)" clip-rule="nonzero">
<path style=" stroke:none;fill-rule:nonzero;fill:rgb(100%,69.018555%,0%);fill-opacity:1;" d="M 495.355469 466.671875 C 491.75 462.839844 476.425781 438.949219 484.382812 420.78125 C 492.34375 402.617188 509.972656 399.625 520.871094 403.703125 C 520.871094 403.703125 530.710938 399.804688 545.28125 413.515625 C 559.296875 426.703125 567.1875 443.121094 560.632812 453.164062 C 552.375 465.820312 549.664062 465.425781 545.71875 470.605469 C 542.222656 475.191406 533.394531 487.355469 521.691406 481.152344 C 508.824219 474.316406 495.355469 466.671875 495.355469 466.671875 Z M 495.355469 466.671875 "/>
</g>
<path style=" stroke:none;fill-rule:nonzero;fill:rgb(100%,81.17981%,78.819275%);fill-opacity:1;" d="M 499.359375 461.328125 C 491.242188 475.941406 482.949219 485.371094 482.949219 485.371094 L 516.429688 500.800781 C 516.429688 500.800781 521.960938 484.128906 524.617188 478.625 C 526.46875 474.78125 511.980469 464.285156 507.246094 454.4375 C 504.585938 448.902344 502.085938 447.902344 500.945312 448.488281 C 494.570312 451.722656 499.359375 461.328125 499.359375 461.328125 Z M 499.359375 461.328125 "/>
<path style=" stroke:none;fill-rule:nonzero;fill:rgb(98.039246%,71.369934%,67.83905%);fill-opacity:1;" d="M 505.433594 461.527344 C 505.136719 462.828125 504.257812 469.839844 508.386719 473.117188 C 510.960938 475.164062 517.082031 478.964844 523.191406 481.820312 C 521.808594 485.105469 520.152344 489.796875 518.832031 493.308594 C 513.402344 489.921875 506.675781 484.1875 504.800781 475.621094 C 502.835938 466.632812 505.433594 461.527344 505.433594 461.527344 Z M 505.433594 461.527344 "/>
<path style=" stroke:none;fill-rule:nonzero;fill:rgb(100%,81.17981%,78.819275%);fill-opacity:1;" d="M 505.4375 461.527344 C 505.136719 462.828125 504.257812 469.839844 508.386719 473.117188 C 512.515625 476.394531 525.796875 484.203125 533.46875 485.378906 C 541.136719 486.554688 549.84375 464.175781 550.433594 455.488281 C 551.023438 446.800781 553.570312 424.566406 535.832031 424.566406 C 528.023438 424.566406 506.914062 455.195312 505.4375 461.527344 Z M 505.4375 461.527344 "/>
<path style=" stroke:none;fill-rule:nonzero;fill:rgb(94.119263%,88.238525%,83.139038%);fill-opacity:1;" d="M 593.226562 678.84375 C 593.226562 678.84375 598.765625 672.796875 599.808594 666.230469 C 599.808594 666.230469 551 629.078125 527.957031 516.257812 L 525.515625 516.046875 C 525.515625 516.046875 522.050781 607.050781 593.226562 678.84375 Z M 593.226562 678.84375 "/>
<path style=" stroke:none;fill-rule:nonzero;fill:rgb(24.708557%,30.198669%,56.469727%);fill-opacity:1;" d="M 527.894531 516.070312 C 544.589844 525.019531 574.164062 583.121094 574.164062 583.121094 L 547.617188 611.488281 C 565.640625 647.203125 593.226562 678.84375 593.226562 678.84375 C 569.3125 710.980469 517.121094 721.085938 517.121094 721.085938 C 517.121094 721.085938 450.902344 667.695312 450.902344 574.914062 C 450.902344 525.597656 467.359375 508.367188 471.503906 502.660156 Z M 527.894531 516.070312 "/>
<path style=" stroke:none;fill-rule:nonzero;fill:rgb(27.839661%,36.079407%,66.268921%);fill-opacity:1;" d="M 468.542969 502.089844 C 468.542969 502.089844 499.027344 514.011719 527.921875 516.253906 C 527.921875 516.253906 527.578125 504.507812 524.890625 502.089844 C 522.207031 499.671875 488.925781 483.449219 482.34375 484.574219 C 475.765625 485.695312 468.542969 502.089844 468.542969 502.089844 Z M 468.542969 502.089844 "/>
<path style="fill:none;stroke-width:4;stroke-linecap:butt;stroke-linejoin:miter;stroke:rgb(27.839661%,36.079407%,66.268921%);stroke-opacity:1;stroke-miterlimit:10;" d="M 211.225494 456.336076 L 292.08846 519.414229 " transform="matrix(0.403943,0,0,0.403146,429.629978,402.088656)"/>
<path style=" stroke:none;fill-rule:nonzero;fill:rgb(100%,100%,100%);fill-opacity:1;" d="M 696.402344 605.246094 C 697.265625 605.175781 698.117188 605.042969 698.960938 604.847656 C 699.804688 604.65625 700.628906 604.398438 701.433594 604.085938 C 702.242188 603.769531 703.019531 603.398438 703.769531 602.96875 C 704.523438 602.539062 705.238281 602.058594 705.917969 601.523438 C 706.597656 600.992188 707.238281 600.410156 707.832031 599.785156 C 708.429688 599.15625 708.976562 598.492188 709.472656 597.785156 C 709.972656 597.078125 710.414062 596.339844 710.804688 595.566406 C 711.191406 594.796875 711.523438 594 711.796875 593.179688 L 733.976562 526.566406 C 736.222656 519.828125 742.253906 514.71875 749.328125 514.144531 L 713.652344 517.054688 C 706.5625 517.628906 700.53125 522.738281 698.300781 529.480469 L 676.125 596.089844 C 673.878906 602.832031 669.257812 607.464844 662.164062 608.039062 Z M 696.402344 605.246094 "/>
<g clip-path="url(#clip15)" clip-rule="nonzero">
<path style="fill:none;stroke-width:5;stroke-linecap:butt;stroke-linejoin:miter;stroke:rgb(100%,69.018555%,0%);stroke-opacity:1;stroke-miterlimit:10;" d="M 660.420141 503.930529 C 662.557275 503.756119 664.665399 503.426679 666.754181 502.942208 C 668.842964 502.467426 670.883395 501.827924 672.875475 501.05277 C 674.877225 500.267926 676.801613 499.347431 678.658308 498.281594 C 680.524674 497.215758 682.294337 496.023959 683.976968 494.696507 C 685.659598 493.378746 687.245526 491.935021 688.71541 490.384714 C 690.194965 488.824716 691.548805 487.177514 692.776932 485.423728 C 694.014729 483.669942 695.107472 481.838641 696.074501 479.920135 C 697.03186 478.011319 697.853834 476.034676 698.530755 473.999897 L 753.438662 308.766143 C 758.999079 292.051886 773.930007 279.378119 791.442902 277.953774 L 703.124142 285.172395 C 685.572566 286.596741 670.641638 299.270508 665.119902 315.994454 L 610.221665 481.218518 C 604.661248 497.942465 593.221295 509.434122 575.660048 510.858467 Z M 660.420141 503.930529 " transform="matrix(0.403943,0,0,0.403146,429.629978,402.088656)"/>
</g>
<g clip-path="url(#clip16)" clip-rule="nonzero">
<path style=" stroke:none;fill-rule:nonzero;fill:rgb(100%,100%,100%);fill-opacity:1;" d="M 697.515625 607.773438 C 698.382812 607.765625 699.242188 607.695312 700.097656 607.558594 C 700.953125 607.425781 701.792969 607.230469 702.621094 606.972656 C 703.445312 606.714844 704.25 606.398438 705.027344 606.027344 C 705.808594 605.652344 706.558594 605.222656 707.273438 604.738281 C 707.992188 604.253906 708.667969 603.722656 709.308594 603.140625 C 709.949219 602.558594 710.539062 601.929688 711.085938 601.261719 C 711.632812 600.59375 712.128906 599.886719 712.574219 599.144531 C 713.015625 598.402344 713.40625 597.632812 713.734375 596.835938 L 740.632812 531.976562 C 740.964844 531.179688 741.355469 530.410156 741.796875 529.667969 C 742.242188 528.929688 742.738281 528.222656 743.285156 527.554688 C 743.832031 526.886719 744.425781 526.261719 745.066406 525.679688 C 745.707031 525.097656 746.382812 524.5625 747.101562 524.078125 C 747.816406 523.597656 748.566406 523.167969 749.347656 522.792969 C 750.125 522.417969 750.929688 522.101562 751.753906 521.84375 C 752.582031 521.589844 753.421875 521.390625 754.277344 521.257812 C 755.132812 521.121094 755.992188 521.050781 756.855469 521.039062 L 721.0625 521.398438 C 720.199219 521.40625 719.335938 521.480469 718.484375 521.613281 C 717.628906 521.746094 716.785156 521.941406 715.960938 522.199219 C 715.132812 522.457031 714.332031 522.773438 713.550781 523.144531 C 712.769531 523.519531 712.023438 523.949219 711.304688 524.433594 C 710.589844 524.914062 709.910156 525.449219 709.269531 526.03125 C 708.632812 526.613281 708.039062 527.238281 707.492188 527.910156 C 706.945312 528.578125 706.449219 529.28125 706.003906 530.023438 C 705.558594 530.765625 705.171875 531.535156 704.839844 532.332031 L 677.941406 597.210938 C 677.609375 598.007812 677.222656 598.777344 676.78125 599.519531 C 676.335938 600.261719 675.839844 600.96875 675.292969 601.636719 C 674.746094 602.304688 674.152344 602.929688 673.515625 603.511719 C 672.875 604.097656 672.199219 604.628906 671.480469 605.113281 C 670.761719 605.597656 670.015625 606.023438 669.234375 606.398438 C 668.453125 606.773438 667.652344 607.089844 666.824219 607.34375 C 666 607.601562 665.160156 607.796875 664.304688 607.929688 C 663.449219 608.066406 662.589844 608.136719 661.722656 608.144531 Z M 697.515625 607.773438 "/>
</g>
<g clip-path="url(#clip17)" clip-rule="nonzero">
<path style="fill:none;stroke-width:5;stroke-linecap:butt;stroke-linejoin:miter;stroke:rgb(100%,69.018555%,0%);stroke-opacity:1;stroke-miterlimit:10;" d="M 663.176174 510.199586 C 665.322978 510.180208 667.450442 510.005798 669.568236 509.666668 C 671.686029 509.337228 673.765142 508.852756 675.815243 508.213254 C 677.855674 507.573752 679.847754 506.788909 681.772142 505.868414 C 683.7062 504.938229 685.562896 503.872392 687.332559 502.670904 C 689.111892 501.469415 690.784852 500.151653 692.37078 498.707929 C 693.956707 497.264205 695.416921 495.704208 696.770762 494.047316 C 698.124602 492.390424 699.352729 490.636639 700.455142 488.795648 C 701.547885 486.954657 702.514914 485.045841 703.327219 483.069198 L 769.916836 322.185996 C 770.738811 320.209354 771.70584 318.300537 772.798583 316.459546 C 773.900996 314.628245 775.129123 312.874459 776.482963 311.217568 C 777.836804 309.560676 779.306688 308.010368 780.892616 306.566644 C 782.478543 305.12292 784.151504 303.795469 785.930837 302.59398 C 787.7005 301.402181 789.557196 300.336344 791.491254 299.40616 C 793.415642 298.475975 795.407721 297.691131 797.448153 297.051629 C 799.498254 296.421817 801.577366 295.927656 803.69516 295.598216 C 805.812954 295.259086 807.940417 295.084676 810.077551 295.055608 L 721.468683 295.947035 C 719.331549 295.966414 717.194415 296.150513 715.086291 296.479953 C 712.968498 296.809394 710.879715 297.293865 708.839284 297.933367 C 706.789182 298.572869 704.806773 299.357712 702.872715 300.278208 C 700.938657 301.208392 699.091631 302.274229 697.312298 303.475718 C 695.542635 304.667517 693.860004 305.994968 692.274077 307.438692 C 690.69782 308.882417 689.227935 310.432724 687.874095 312.099305 C 686.520254 313.756197 685.292127 315.500293 684.189714 317.341284 C 683.087301 319.182275 682.129943 321.091091 681.307968 323.067734 L 614.71835 483.999383 C 613.896375 485.976025 612.939017 487.884842 611.846274 489.725833 C 610.743861 491.566823 609.515734 493.320609 608.161893 494.977501 C 606.808053 496.634392 605.338168 498.1847 603.761911 499.628424 C 602.175984 501.081838 600.503023 502.3996 598.72369 503.601088 C 596.944357 504.802577 595.097331 505.858724 593.163273 506.788909 C 591.229215 507.719094 589.246806 508.503937 587.196704 509.13375 C 585.156273 509.773252 583.077161 510.257723 580.959367 510.587163 C 578.841573 510.926293 576.71411 511.100703 574.567305 511.120082 Z M 663.176174 510.199586 " transform="matrix(0.403943,0,0,0.403146,429.629978,402.088656)"/>
</g>
<path style=" stroke:none;fill-rule:nonzero;fill:rgb(100%,81.17981%,78.819275%);fill-opacity:1;" d="M 562.625 620.796875 C 562.625 620.796875 570.203125 629.910156 588.410156 629.867188 C 597.144531 629.867188 667.621094 577.117188 667.621094 577.117188 C 667.621094 577.117188 686.113281 575.058594 691.277344 571.523438 C 696.4375 567.988281 705.523438 548.996094 704.785156 546.195312 C 704.011719 546.242188 703.257812 546.394531 702.53125 546.652344 C 701.800781 546.910156 701.121094 547.265625 700.492188 547.71875 C 699.863281 548.171875 699.3125 548.699219 698.835938 549.308594 C 698.359375 549.917969 697.976562 550.582031 697.691406 551.300781 C 695.800781 555.699219 688.628906 556.015625 688.628906 556.015625 L 690.171875 550.65625 C 690.171875 550.65625 683.453125 551.601562 678.339844 551.800781 C 673.222656 552 666.21875 564.367188 664.960938 564.855469 C 663.699219 565.34375 589.1875 593.320312 584.941406 596.171875 C 580.695312 599.019531 562.625 620.796875 562.625 620.796875 Z M 562.625 620.796875 "/>
<path style=" stroke:none;fill-rule:nonzero;fill:rgb(27.839661%,36.079407%,66.268921%);fill-opacity:1;" d="M 586.328125 593.894531 C 587.433594 592.511719 577.398438 583.066406 574.164062 583.121094 C 570.933594 583.175781 544.90625 609.265625 547.101562 614.101562 C 549.292969 618.941406 557.429688 625.667969 561.296875 622.683594 C 565.160156 619.695312 586.328125 593.894531 586.328125 593.894531 Z M 586.328125 593.894531 "/>
<g clip-path="url(#clip18)" clip-rule="nonzero">
<path style="fill:none;stroke-width:6;stroke-linecap:round;stroke-linejoin:miter;stroke:rgb(100%,69.018555%,0%);stroke-opacity:1;stroke-miterlimit:10;" d="M 3.004806 440.910513 C 3.004806 440.910513 34.655666 730.692127 212.086149 817.6644 C 319.368348 870.239217 437.916435 877.176844 514.901615 874.444427 " transform="matrix(0.403943,0,0,0.403146,429.629978,402.088656)"/>
</g>
<g clip-path="url(#clip19)" clip-rule="nonzero">
<path style="fill:none;stroke-width:6;stroke-linecap:round;stroke-linejoin:miter;stroke:rgb(100%,69.018555%,0%);stroke-opacity:1;stroke-miterlimit:10;" d="M 44.277604 605.533833 L 141.522042 605.533833 C 147.507952 605.533833 153.493861 605.795447 159.46043 606.318676 C 165.426999 606.841905 171.364558 607.626748 177.263435 608.673206 C 183.162312 609.729353 189.012837 611.027736 194.795671 612.587734 C 200.578504 614.147731 206.283975 615.959653 211.912084 618.023501 C 217.540193 620.087348 223.061929 622.393431 228.486961 624.94175 C 233.911994 627.490068 239.211313 630.270933 244.384918 633.284344 C 249.568194 636.297755 254.606415 639.534023 259.499582 642.993147 C 264.392749 646.452272 269.131191 650.114874 273.695568 653.990644 C 278.269615 657.866414 282.659927 661.926282 286.876173 666.189629 C 291.09242 670.452976 295.115261 674.890732 298.935025 679.502898 C 302.76446 684.115064 306.381149 688.882261 309.785091 693.814178 C 313.189033 698.746095 316.370558 703.813664 319.329667 709.026574 C 322.288776 714.239484 325.015798 719.568668 327.501062 725.023814 C 329.995997 730.46927 332.239504 736.02131 334.241254 741.670245 C 336.243005 747.319179 337.993327 753.03594 339.492222 758.839905 C 340.991117 764.64387 342.238584 770.496282 343.215284 776.406831 L 357.807752 863.999227 " transform="matrix(0.403943,0,0,0.403146,429.629978,402.088656)"/>
</g>
<g clip-path="url(#clip20)" clip-rule="nonzero">
<path style="fill:none;stroke-width:6;stroke-linecap:round;stroke-linejoin:miter;stroke:rgb(100%,69.018555%,0%);stroke-opacity:1;stroke-miterlimit:10;" d="M 377.854263 867.235495 L 377.854263 1108.996322 C 377.854263 1112.639546 377.380419 1116.224633 376.442401 1119.741894 C 375.504383 1123.259155 374.131201 1126.592317 372.322857 1129.751069 C 370.504843 1132.909821 368.319357 1135.78758 365.75673 1138.364967 C 363.184433 1140.952044 360.331697 1143.161232 357.188853 1145.002223 L 304.74687 1175.649872 C 301.604025 1177.490863 298.75129 1179.700052 296.188663 1182.287128 C 293.626036 1184.864515 291.43088 1187.742274 289.622536 1190.901026 C 287.814191 1194.059778 286.43134 1197.39294 285.493322 1200.910201 C 284.555304 1204.427462 284.09113 1208.012549 284.09113 1211.646084 " transform="matrix(0.403943,0,0,0.403146,429.629978,402.088656)"/>
</g>
<path style=" stroke:none;fill-rule:nonzero;fill:rgb(100%,100%,100%);fill-opacity:1;" d="M 553.539062 904.542969 C 553.539062 905.132812 553.480469 905.714844 553.367188 906.292969 C 553.25 906.871094 553.082031 907.433594 552.855469 907.980469 C 552.628906 908.523438 552.351562 909.042969 552.023438 909.535156 C 551.695312 910.023438 551.320312 910.476562 550.902344 910.894531 C 550.484375 911.3125 550.03125 911.683594 549.539062 912.011719 C 549.046875 912.339844 548.527344 912.617188 547.980469 912.84375 C 547.433594 913.070312 546.871094 913.238281 546.292969 913.355469 C 545.710938 913.46875 545.125 913.527344 544.535156 913.527344 C 543.945312 913.527344 543.359375 913.46875 542.777344 913.355469 C 542.199219 913.238281 541.636719 913.070312 541.089844 912.84375 C 540.542969 912.617188 540.023438 912.339844 539.535156 912.011719 C 539.042969 911.683594 538.585938 911.3125 538.167969 910.894531 C 537.75 910.476562 537.378906 910.023438 537.050781 909.535156 C 536.722656 909.042969 536.445312 908.523438 536.21875 907.980469 C 535.992188 907.433594 535.820312 906.871094 535.703125 906.292969 C 535.589844 905.714844 535.53125 905.132812 535.53125 904.542969 C 535.53125 903.949219 535.589844 903.367188 535.703125 902.789062 C 535.820312 902.210938 535.992188 901.648438 536.21875 901.101562 C 536.445312 900.558594 536.722656 900.039062 537.050781 899.546875 C 537.378906 899.058594 537.75 898.605469 538.167969 898.1875 C 538.585938 897.769531 539.042969 897.398438 539.535156 897.070312 C 540.023438 896.742188 540.542969 896.464844 541.089844 896.238281 C 541.636719 896.011719 542.199219 895.84375 542.777344 895.726562 C 543.359375 895.613281 543.945312 895.554688 544.535156 895.554688 C 545.125 895.554688 545.710938 895.613281 546.292969 895.726562 C 546.871094 895.84375 547.433594 896.011719 547.980469 896.238281 C 548.527344 896.464844 549.046875 896.742188 549.539062 897.070312 C 550.03125 897.398438 550.484375 897.769531 550.902344 898.1875 C 551.320312 898.605469 551.695312 899.058594 552.023438 899.546875 C 552.351562 900.039062 552.628906 900.558594 552.855469 901.101562 C 553.082031 901.648438 553.25 902.210938 553.367188 902.789062 C 553.480469 903.367188 553.539062 903.949219 553.539062 904.542969 Z M 553.539062 904.542969 "/>
<g clip-path="url(#clip21)" clip-rule="nonzero">
<path style="fill:none;stroke-width:6;stroke-linecap:round;stroke-linejoin:miter;stroke:rgb(100%,69.018555%,0%);stroke-opacity:1;stroke-miterlimit:10;" d="M 306.74862 1246.334223 C 306.74862 1247.797326 306.603565 1249.24105 306.323127 1250.675085 C 306.033018 1252.10912 305.617196 1253.504397 305.056319 1254.860916 C 304.495442 1256.207746 303.808851 1257.49644 302.996547 1258.717307 C 302.184243 1259.928485 301.255895 1261.052458 300.221174 1262.089227 C 299.186453 1263.125995 298.064699 1264.046491 296.846242 1264.860402 C 295.627786 1265.674314 294.341637 1266.362263 292.987797 1266.92425 C 291.633956 1267.486236 290.241434 1267.902881 288.810231 1268.193564 C 287.369358 1268.474557 285.918815 1268.619899 284.458601 1268.619899 C 282.998387 1268.619899 281.547843 1268.474557 280.10697 1268.193564 C 278.675767 1267.902881 277.283246 1267.486236 275.929405 1266.92425 C 274.575564 1266.362263 273.289416 1265.674314 272.080629 1264.860402 C 270.862173 1264.046491 269.730749 1263.125995 268.696028 1262.089227 C 267.661307 1261.052458 266.742629 1259.928485 265.930325 1258.717307 C 265.118021 1257.49644 264.43143 1256.207746 263.870553 1254.860916 C 263.309676 1253.504397 262.884183 1252.10912 262.594075 1250.675085 C 262.313636 1249.24105 262.168582 1247.797326 262.168582 1246.334223 C 262.168582 1244.86143 262.313636 1243.417706 262.594075 1241.983671 C 262.884183 1240.549636 263.309676 1239.154359 263.870553 1237.79784 C 264.43143 1236.45101 265.118021 1235.162317 265.930325 1233.941449 C 266.742629 1232.730271 267.661307 1231.606298 268.696028 1230.569529 C 269.730749 1229.532761 270.862173 1228.612266 272.080629 1227.798354 C 273.289416 1226.984442 274.575564 1226.296493 275.929405 1225.734507 C 277.283246 1225.17252 278.675767 1224.755875 280.10697 1224.465192 C 281.547843 1224.184199 282.998387 1224.038857 284.458601 1224.038857 C 285.918815 1224.038857 287.369358 1224.184199 288.810231 1224.465192 C 290.241434 1224.755875 291.633956 1225.17252 292.987797 1225.734507 C 294.341637 1226.296493 295.627786 1226.984442 296.846242 1227.798354 C 298.064699 1228.612266 299.186453 1229.532761 300.221174 1230.569529 C 301.255895 1231.606298 302.184243 1232.730271 302.996547 1233.941449 C 303.808851 1235.162317 304.495442 1236.45101 305.056319 1237.79784 C 305.617196 1239.154359 306.033018 1240.549636 306.323127 1241.983671 C 306.603565 1243.417706 306.74862 1244.86143 306.74862 1246.334223 Z M 306.74862 1246.334223 " transform="matrix(0.403943,0,0,0.403146,429.629978,402.088656)"/>
</g>
<g clip-path="url(#clip22)" clip-rule="nonzero">
<path style="fill:none;stroke-width:6;stroke-linecap:round;stroke-linejoin:miter;stroke:rgb(100%,69.018555%,0%);stroke-opacity:1;stroke-miterlimit:10;" d="M 263.909234 1220.46346 C 265.263075 1219.10694 266.723289 1217.905452 268.318887 1216.849304 C 269.904814 1215.783468 271.577774 1214.892041 273.337767 1214.155645 C 275.10743 1213.428938 276.925445 1212.876641 278.791811 1212.508442 C 280.667847 1212.130555 282.553554 1211.946456 284.468271 1211.946456 C 286.373318 1211.946456 288.268695 1212.130555 290.135061 1212.508442 C 292.011097 1212.876641 293.829112 1213.428938 295.589105 1214.155645 C 297.349098 1214.892041 299.031728 1215.783468 300.617656 1216.849304 C 302.203583 1217.905452 303.673467 1219.10694 305.017638 1220.46346 " transform="matrix(0.403943,0,0,0.403146,429.629978,402.088656)"/>
</g>
<g clip-path="url(#clip23)" clip-rule="nonzero">
<path style="fill:none;stroke-width:6;stroke-linecap:round;stroke-linejoin:miter;stroke:rgb(100%,69.018555%,0%);stroke-opacity:1;stroke-miterlimit:10;" d="M 392.001898 869.822571 L 392.001898 1108.996322 C 392.001898 1112.639546 392.466071 1116.224633 393.40409 1119.741894 C 394.342108 1123.259155 395.724959 1126.592317 397.533304 1129.751069 C 399.341648 1132.909821 401.536804 1135.777891 404.099431 1138.364967 C 406.662057 1140.952044 409.514793 1143.161232 412.657637 1145.002223 L 465.109291 1175.649872 C 468.252135 1177.490863 471.104871 1179.700052 473.667498 1182.287128 C 476.230125 1184.874204 478.41561 1187.742274 480.233625 1190.901026 C 482.041969 1194.059778 483.41515 1197.39294 484.353168 1200.910201 C 485.291187 1204.427462 485.755361 1208.012549 485.755361 1211.646084 " transform="matrix(0.403943,0,0,0.403146,429.629978,402.088656)"/>
</g>
<path style=" stroke:none;fill-rule:nonzero;fill:rgb(100%,100%,100%);fill-opacity:1;" d="M 634.699219 904.542969 C 634.699219 905.132812 634.640625 905.714844 634.527344 906.292969 C 634.410156 906.871094 634.242188 907.433594 634.015625 907.980469 C 633.789062 908.523438 633.511719 909.042969 633.183594 909.535156 C 632.855469 910.023438 632.480469 910.476562 632.0625 910.894531 C 631.644531 911.3125 631.191406 911.683594 630.699219 912.011719 C 630.207031 912.339844 629.6875 912.617188 629.140625 912.84375 C 628.59375 913.070312 628.03125 913.238281 627.453125 913.355469 C 626.871094 913.46875 626.289062 913.527344 625.695312 913.527344 C 625.105469 913.527344 624.519531 913.46875 623.9375 913.355469 C 623.359375 913.238281 622.796875 913.070312 622.25 912.84375 C 621.703125 912.617188 621.183594 912.339844 620.695312 912.011719 C 620.203125 911.683594 619.746094 911.3125 619.328125 910.894531 C 618.910156 910.476562 618.539062 910.023438 618.210938 909.535156 C 617.882812 909.042969 617.605469 908.523438 617.378906 907.980469 C 617.152344 907.433594 616.980469 906.871094 616.863281 906.292969 C 616.75 905.714844 616.691406 905.132812 616.691406 904.542969 C 616.691406 903.949219 616.75 903.367188 616.863281 902.789062 C 616.980469 902.210938 617.152344 901.648438 617.378906 901.101562 C 617.605469 900.558594 617.882812 900.039062 618.210938 899.546875 C 618.539062 899.058594 618.910156 898.605469 619.328125 898.1875 C 619.746094 897.769531 620.203125 897.398438 620.695312 897.070312 C 621.183594 896.742188 621.703125 896.464844 622.25 896.238281 C 622.796875 896.011719 623.359375 895.84375 623.9375 895.726562 C 624.519531 895.613281 625.105469 895.554688 625.695312 895.554688 C 626.289062 895.554688 626.871094 895.613281 627.453125 895.726562 C 628.03125 895.84375 628.59375 896.011719 629.140625 896.238281 C 629.6875 896.464844 630.207031 896.742188 630.699219 897.070312 C 631.191406 897.398438 631.644531 897.769531 632.0625 898.1875 C 632.480469 898.605469 632.855469 899.058594 633.183594 899.546875 C 633.511719 900.039062 633.789062 900.558594 634.015625 901.101562 C 634.242188 901.648438 634.410156 902.210938 634.527344 902.789062 C 634.640625 903.367188 634.699219 903.949219 634.699219 904.542969 Z M 634.699219 904.542969 "/>
<g clip-path="url(#clip24)" clip-rule="nonzero">
<path style="fill:none;stroke-width:6;stroke-linecap:round;stroke-linejoin:miter;stroke:rgb(100%,69.018555%,0%);stroke-opacity:1;stroke-miterlimit:10;" d="M 507.668238 1246.334223 C 507.668238 1247.797326 507.523184 1249.24105 507.242745 1250.675085 C 506.952637 1252.10912 506.536814 1253.504397 505.975937 1254.860916 C 505.41506 1256.207746 504.72847 1257.49644 503.916165 1258.717307 C 503.103861 1259.928485 502.175513 1261.052458 501.140792 1262.089227 C 500.106071 1263.125995 498.984317 1264.046491 497.765861 1264.860402 C 496.547404 1265.674314 495.261256 1266.362263 493.907415 1266.92425 C 492.553574 1267.486236 491.161053 1267.902881 489.72985 1268.193564 C 488.288977 1268.474557 486.848103 1268.619899 485.378219 1268.619899 C 483.918005 1268.619899 482.467462 1268.474557 481.026589 1268.193564 C 479.595386 1267.902881 478.202864 1267.486236 476.849023 1266.92425 C 475.495183 1266.362263 474.209034 1265.674314 473.000248 1264.860402 C 471.781791 1264.046491 470.650367 1263.125995 469.615646 1262.089227 C 468.580925 1261.052458 467.662248 1259.928485 466.849943 1258.717307 C 466.037639 1257.49644 465.351048 1256.207746 464.790171 1254.860916 C 464.229295 1253.504397 463.803802 1252.10912 463.513693 1250.675085 C 463.233255 1249.24105 463.0882 1247.797326 463.0882 1246.334223 C 463.0882 1244.86143 463.233255 1243.417706 463.513693 1241.983671 C 463.803802 1240.549636 464.229295 1239.154359 464.790171 1237.79784 C 465.351048 1236.45101 466.037639 1235.162317 466.849943 1233.941449 C 467.662248 1232.730271 468.580925 1231.606298 469.615646 1230.569529 C 470.650367 1229.532761 471.781791 1228.612266 473.000248 1227.798354 C 474.209034 1226.984442 475.495183 1226.296493 476.849023 1225.734507 C 478.202864 1225.17252 479.595386 1224.755875 481.026589 1224.465192 C 482.467462 1224.184199 483.918005 1224.038857 485.378219 1224.038857 C 486.848103 1224.038857 488.288977 1224.184199 489.72985 1224.465192 C 491.161053 1224.755875 492.553574 1225.17252 493.907415 1225.734507 C 495.261256 1226.296493 496.547404 1226.984442 497.765861 1227.798354 C 498.984317 1228.612266 500.106071 1229.532761 501.140792 1230.569529 C 502.175513 1231.606298 503.103861 1232.730271 503.916165 1233.941449 C 504.72847 1235.162317 505.41506 1236.45101 505.975937 1237.79784 C 506.536814 1239.154359 506.952637 1240.549636 507.242745 1241.983671 C 507.523184 1243.417706 507.668238 1244.86143 507.668238 1246.334223 Z M 507.668238 1246.334223 " transform="matrix(0.403943,0,0,0.403146,429.629978,402.088656)"/>
</g>
<g clip-path="url(#clip25)" clip-rule="nonzero">
<path style="fill:none;stroke-width:6;stroke-linecap:round;stroke-linejoin:miter;stroke:rgb(100%,69.018555%,0%);stroke-opacity:1;stroke-miterlimit:10;" d="M 505.927586 1220.46346 C 504.583415 1219.10694 503.113531 1217.905452 501.527604 1216.849304 C 499.941676 1215.783468 498.259046 1214.892041 496.499053 1214.155645 C 494.73906 1213.428938 492.921046 1212.876641 491.045009 1212.508442 C 489.178643 1212.130555 487.283266 1211.946456 485.378219 1211.946456 C 483.463502 1211.946456 481.577795 1212.130555 479.701759 1212.508442 C 477.835393 1212.876641 476.017378 1213.428938 474.247715 1214.155645 C 472.487722 1214.892041 470.814762 1215.783468 469.228835 1216.849304 C 467.633237 1217.905452 466.173023 1219.10694 464.819182 1220.46346 " transform="matrix(0.403943,0,0,0.403146,429.629978,402.088656)"/>
</g>
</g>
</svg>
