<?xml version="1.0" encoding="UTF-8"?>
<svg xmlns="http://www.w3.org/2000/svg" xmlns:xlink="http://www.w3.org/1999/xlink" width="1500pt" height="1295.99994pt" viewBox="0 0 1728 1295.99994" version="1.2">
<defs>
<clipPath id="clip1">
  <path d="M 1245 412 L 1560.390625 412 L 1560.390625 717 L 1245 717 Z M 1245 412 "/>
</clipPath>
<clipPath id="clip2">
  <path d="M 1316 205.746094 L 1400 205.746094 L 1400 311 L 1316 311 Z M 1316 205.746094 "/>
</clipPath>
<clipPath id="clip3">
  <path d="M 1321 205.746094 L 1400 205.746094 L 1400 268 L 1321 268 Z M 1321 205.746094 "/>
</clipPath>
<clipPath id="clip4">
  <path d="M 1021.140625 558 L 1352 558 L 1352 585 L 1021.140625 585 Z M 1021.140625 558 "/>
</clipPath>
<clipPath id="clip5">
  <path d="M 1021.140625 508 L 1401 508 L 1401 635 L 1021.140625 635 Z M 1021.140625 508 "/>
</clipPath>
<clipPath id="clip6">
  <path d="M 1272 584 L 1298 584 L 1298 992.214844 L 1272 992.214844 Z M 1272 584 "/>
</clipPath>
<clipPath id="clip7">
  <path d="M 1270 583 L 1300 583 L 1300 992.214844 L 1270 992.214844 Z M 1270 583 "/>
</clipPath>
<clipPath id="clip8">
  <path d="M 457 910 L 643 910 L 643 993.070312 L 457 993.070312 Z M 457 910 "/>
</clipPath>
<clipPath id="clip9">
  <path d="M 499 901 L 613 901 L 613 993.070312 L 499 993.070312 Z M 499 901 "/>
</clipPath>
<clipPath id="clip10">
  <path d="M 493 894 L 609 894 L 609 993.070312 L 493 993.070312 Z M 493 894 "/>
</clipPath>
<clipPath id="clip11">
  <path d="M 541 914 L 695.019531 914 L 695.019531 993.070312 L 541 993.070312 Z M 541 914 "/>
</clipPath>
<clipPath id="clip12">
  <path d="M 589 906 L 695.019531 906 L 695.019531 993.070312 L 589 993.070312 Z M 589 906 "/>
</clipPath>
<clipPath id="clip13">
  <path d="M 583 898 L 693 898 L 693 993.070312 L 583 993.070312 Z M 583 898 "/>
</clipPath>
<clipPath id="clip14">
  <path d="M 289 225.070312 L 409 225.070312 L 409 345 L 289 345 Z M 289 225.070312 "/>
</clipPath>
<clipPath id="clip15">
  <path d="M 512 348 L 695.019531 348 L 695.019531 573 L 512 573 Z M 512 348 "/>
</clipPath>
<clipPath id="clip16">
  <path d="M 554 401 L 695.019531 401 L 695.019531 531 L 554 531 Z M 554 401 "/>
</clipPath>
<clipPath id="clip17">
  <path d="M 512 359 L 695.019531 359 L 695.019531 573 L 512 573 Z M 512 359 "/>
</clipPath>
<clipPath id="clip18">
  <path d="M 211.445312 437 L 570 437 L 570 799 L 211.445312 799 Z M 211.445312 437 "/>
</clipPath>
<clipPath id="clip19">
  <path d="M 211.445312 536 L 476 536 L 476 793 L 211.445312 793 Z M 211.445312 536 "/>
</clipPath>
<clipPath id="clip20">
  <path d="M 330 692 L 488 692 L 488 993.070312 L 330 993.070312 Z M 330 692 "/>
</clipPath>
<clipPath id="clip21">
  <path d="M 317 906 L 446 906 L 446 993.070312 L 317 993.070312 Z M 317 906 "/>
</clipPath>
<clipPath id="clip22">
  <path d="M 318 898 L 445 898 L 445 993.070312 L 318 993.070312 Z M 318 898 "/>
</clipPath>
<clipPath id="clip23">
  <path d="M 394 694 L 553 694 L 553 993.070312 L 394 993.070312 Z M 394 694 "/>
</clipPath>
<clipPath id="clip24">
  <path d="M 437 906 L 566 906 L 566 993.070312 L 437 993.070312 Z M 437 906 "/>
</clipPath>
<clipPath id="clip25">
  <path d="M 438 898 L 565 898 L 565 993.070312 L 438 993.070312 Z M 438 898 "/>
</clipPath>
</defs>
<g id="surface1">
<path style="fill-rule:nonzero;fill:rgb(100%,100%,100%);fill-opacity:1;stroke-width:5;stroke-linecap:butt;stroke-linejoin:round;stroke:rgb(24.708557%,30.198669%,56.469727%);stroke-opacity:1;stroke-miterlimit:4;" d="M 345.051609 843.189239 L 750.58239 843.189239 L 750.58239 867.87132 L 345.051609 867.87132 Z M 345.051609 843.189239 " transform="matrix(0.584535,0,0,0.583356,1021.141246,205.753395)"/>
<path style=" stroke:none;fill-rule:nonzero;fill:rgb(100%,100%,100%);fill-opacity:1;" d="M 1490.984375 666.722656 C 1490.984375 534.460938 1556.796875 461.683594 1556.796875 461.683594 L 1361.164062 461.683594 C 1361.164062 461.683594 1295.351562 534.460938 1295.351562 666.722656 Z M 1490.984375 666.722656 "/>
<g clip-path="url(#clip1)" clip-rule="nonzero">
<path style="fill:none;stroke-width:6;stroke-linecap:butt;stroke-linejoin:miter;stroke:rgb(84.709167%,72.938538%,63.919067%);stroke-opacity:1;stroke-miterlimit:10;" d="M 803.78976 790.20245 C 803.78976 563.476846 916.379283 438.720512 916.379283 438.720512 L 581.698106 438.720512 C 581.698106 438.720512 469.108583 563.476846 469.108583 790.20245 Z M 803.78976 790.20245 " transform="matrix(0.584535,0,0,0.583356,1021.141246,205.753395)"/>
</g>
<path style="fill-rule:nonzero;fill:rgb(100%,100%,100%);fill-opacity:1;stroke-width:6;stroke-linecap:butt;stroke-linejoin:miter;stroke:rgb(84.709167%,72.938538%,63.919067%);stroke-opacity:1;stroke-miterlimit:10;" d="M 348.33948 790.20245 L 803.78976 790.20245 C 803.78976 791.936758 803.702886 793.664369 803.535819 795.391981 C 803.36207 797.119593 803.108129 798.840508 802.773995 800.541336 C 802.43318 802.242163 802.012172 803.922901 801.510972 805.583551 C 801.003089 807.244201 800.421698 808.878067 799.753431 810.485147 C 799.091848 812.085532 798.350072 813.652435 797.534787 815.185858 C 796.712819 816.712585 795.824025 818.199135 794.855039 819.645507 C 793.892735 821.085184 792.863605 822.477987 791.760965 823.823917 C 790.658326 825.163151 789.495542 826.448815 788.265932 827.674214 C 787.036322 828.90631 785.75325 830.071443 784.410035 831.169615 C 783.073502 832.267787 781.676825 833.305693 780.23337 834.269941 C 778.789914 835.23419 777.306363 836.12478 775.776033 836.941713 C 774.245703 837.758646 772.675277 838.501921 771.071438 839.164841 C 769.467598 839.827762 767.837028 840.417025 766.173045 840.919238 C 764.515744 841.42145 762.831713 841.843309 761.127634 842.178118 C 759.430237 842.519622 757.712792 842.774077 755.981982 842.941481 C 754.257855 843.115581 752.527045 843.202632 750.789552 843.202632 L 295.339272 843.202632 C 295.339272 841.461627 295.426146 839.734016 295.593213 838.006404 C 295.766962 836.278792 296.020904 834.564573 296.361719 832.85705 C 296.695853 831.156223 297.11686 829.475484 297.624743 827.814834 C 298.125943 826.154184 298.707334 824.520319 299.375601 822.919934 C 300.037185 821.312853 300.77896 819.74595 301.600928 818.219223 C 302.416213 816.6858 303.305007 815.199251 304.273994 813.752878 C 305.236297 812.313202 306.27211 810.920398 307.368067 809.574468 C 308.470707 808.235234 309.63349 806.94957 310.8631 805.724171 C 312.09271 804.498772 313.375782 803.333638 314.718997 802.22877 C 316.062213 801.130598 317.452207 800.099388 318.895662 799.13514 C 320.339118 798.170891 321.822669 797.273605 323.352999 796.456672 C 324.890012 795.639739 326.453755 794.896465 328.057595 794.233544 C 329.661434 793.570623 331.292004 792.988056 332.955987 792.479147 C 334.613288 791.976935 336.297319 791.555076 338.001399 791.220268 C 339.705478 790.878763 341.41624 790.624308 343.14705 790.456904 C 344.871177 790.282804 346.601987 790.20245 348.33948 790.20245 Z M 348.33948 790.20245 " transform="matrix(0.584535,0,0,0.583356,1021.141246,205.753395)"/>
<path style="fill-rule:nonzero;fill:rgb(100%,100%,100%);fill-opacity:1;stroke-width:5;stroke-linecap:butt;stroke-linejoin:round;stroke:rgb(24.708557%,30.198669%,56.469727%);stroke-opacity:1;stroke-miterlimit:4;" d="M 746.392359 1338.002686 C 745.724093 1338.002686 745.082557 1337.888851 744.454387 1337.661181 C 743.832899 1337.440208 743.264873 1337.118791 742.750308 1336.696933 C 742.242425 1336.268378 741.814735 1335.772861 741.473919 1335.203687 C 741.139786 1334.634513 740.905892 1334.018465 740.778922 1333.368937 L 651.67228 867.878016 L 702.747881 867.878016 L 752.072624 1331.681502 C 752.11272 1332.076576 752.11272 1332.478346 752.072624 1332.87342 C 752.032528 1333.27519 751.952336 1333.663568 751.825365 1334.04525 C 751.705077 1334.426931 751.538011 1334.788524 751.344213 1335.136725 C 751.143734 1335.484926 750.90984 1335.806342 750.642534 1336.10767 C 750.368545 1336.402301 750.074507 1336.670148 749.753739 1336.904514 C 749.426289 1337.145576 749.085473 1337.339765 748.717927 1337.507169 C 748.35038 1337.667877 747.969468 1337.795105 747.581874 1337.875459 C 747.187596 1337.955813 746.793319 1338.002686 746.392359 1338.002686 Z M 746.392359 1338.002686 " transform="matrix(0.584535,0,0,0.583356,1021.141246,205.753395)"/>
<path style="fill-rule:nonzero;fill:rgb(100%,100%,100%);fill-opacity:1;stroke-width:5;stroke-linecap:butt;stroke-linejoin:round;stroke:rgb(24.708557%,30.198669%,56.469727%);stroke-opacity:1;stroke-miterlimit:4;" d="M 350.076972 1338.002686 C 350.745239 1338.002686 351.386775 1337.888851 352.014945 1337.661181 C 352.636433 1337.440208 353.204459 1337.118791 353.719024 1336.696933 C 354.226907 1336.268378 354.654597 1335.772861 354.995413 1335.203687 C 355.329546 1334.634513 355.56344 1334.018465 355.69041 1333.368937 L 444.797052 867.878016 L 393.728133 867.878016 L 344.396708 1331.681502 C 344.356612 1332.076576 344.356612 1332.478346 344.396708 1332.87342 C 344.436804 1333.27519 344.523679 1333.663568 344.643967 1334.04525 C 344.764255 1334.426931 344.931321 1334.788524 345.131801 1335.136725 C 345.325598 1335.484926 345.559492 1335.806342 345.833481 1336.10767 C 346.100787 1336.402301 346.394825 1336.670148 346.715592 1336.904514 C 347.043043 1337.145576 347.390541 1337.339765 347.751405 1337.507169 C 348.118952 1337.667877 348.499864 1337.795105 348.894141 1337.875459 C 349.281735 1337.955813 349.676013 1338.002686 350.076972 1338.002686 Z M 350.076972 1338.002686 " transform="matrix(0.584535,0,0,0.583356,1021.141246,205.753395)"/>
<path style=" stroke:none;fill-rule:nonzero;fill:rgb(100%,69.018555%,0%);fill-opacity:1;" d="M 1167.738281 544.460938 C 1247.816406 563.710938 1287.941406 542.023438 1295.210938 528.792969 C 1295.210938 528.792969 1291.207031 503.953125 1294.164062 465.445312 C 1297.125 426.9375 1290.902344 340.695312 1290.902344 340.695312 C 1273.257812 347.46875 1247.433594 358.308594 1239.746094 380.882812 C 1232.058594 403.457031 1230.847656 465.3125 1230.394531 491.753906 C 1230.394531 491.753906 1189.304688 505.820312 1170.898438 515.421875 C 1169.871094 515.957031 1168.953125 516.632812 1168.136719 517.457031 C 1167.324219 518.277344 1166.65625 519.203125 1166.128906 520.234375 C 1165.605469 521.261719 1165.253906 522.347656 1165.070312 523.488281 C 1164.886719 524.628906 1164.878906 525.773438 1165.054688 526.914062 Z M 1167.738281 544.460938 "/>
<path style="fill:none;stroke-width:5;stroke-linecap:butt;stroke-linejoin:round;stroke:rgb(100%,100%,100%);stroke-opacity:1;stroke-miterlimit:4;" d="M 386.002974 490.267625 C 386.002974 490.267625 372.350291 484.850423 345.218676 490.836799 " transform="matrix(0.584535,0,0,0.583356,1021.141246,205.753395)"/>
<path style=" stroke:none;fill-rule:nonzero;fill:rgb(76.469421%,43.528748%,4.309082%);fill-opacity:1;" d="M 1172.230469 530.367188 C 1172.449219 531.707031 1172.480469 533.054688 1172.324219 534.402344 C 1172.164062 535.753906 1171.824219 537.054688 1171.304688 538.3125 C 1170.78125 539.566406 1170.097656 540.726562 1169.253906 541.789062 C 1168.410156 542.855469 1167.433594 543.785156 1166.328125 544.578125 L 1165.410156 545.226562 C 1159.136719 549.546875 1147.109375 553.042969 1144.257812 552.851562 C 1141.402344 552.65625 1123.867188 549.421875 1123.867188 549.421875 C 1123.867188 549.421875 1123.242188 547.035156 1125.808594 543.890625 C 1128.375 540.746094 1147.171875 543.242188 1140.296875 536.339844 C 1137.242188 533.273438 1122.015625 540.195312 1115.390625 547.875 C 1108.769531 555.550781 1105.625 549.464844 1105.625 549.464844 C 1105.625 549.464844 1111.964844 535.246094 1114.226562 532.671875 C 1116.492188 530.097656 1131.617188 519.171875 1141.84375 517.503906 C 1146.71875 516.710938 1153.566406 517.160156 1160.371094 518.339844 C 1161.113281 518.46875 1161.839844 518.65625 1162.554688 518.898438 C 1163.265625 519.144531 1163.957031 519.4375 1164.621094 519.789062 C 1165.289062 520.140625 1165.925781 520.539062 1166.527344 520.984375 C 1167.132812 521.433594 1167.699219 521.925781 1168.226562 522.460938 C 1168.757812 522.996094 1169.238281 523.570312 1169.679688 524.179688 C 1170.117188 524.792969 1170.507812 525.433594 1170.847656 526.101562 C 1171.1875 526.773438 1171.472656 527.46875 1171.707031 528.183594 C 1171.9375 528.898438 1172.113281 529.625 1172.230469 530.367188 Z M 1172.230469 530.367188 "/>
<path style=" stroke:none;fill-rule:nonzero;fill:rgb(76.469421%,43.528748%,4.309082%);fill-opacity:1;" d="M 1216.035156 961.09375 C 1222.5 959.636719 1231.4375 956.507812 1236.417969 949.921875 L 1239.25 934.691406 C 1239.25 934.691406 1220.660156 936.804688 1203.679688 935.179688 L 1206.972656 955.113281 C 1207.0625 955.613281 1207.203125 956.097656 1207.390625 956.566406 C 1207.578125 957.039062 1207.8125 957.484375 1208.09375 957.90625 C 1208.371094 958.332031 1208.691406 958.722656 1209.050781 959.078125 C 1209.410156 959.4375 1209.800781 959.757812 1210.226562 960.035156 C 1210.648438 960.316406 1211.09375 960.550781 1211.566406 960.738281 C 1212.039062 960.925781 1212.523438 961.066406 1213.023438 961.160156 C 1213.523438 961.25 1214.023438 961.289062 1214.53125 961.277344 C 1215.039062 961.269531 1215.542969 961.207031 1216.035156 961.09375 Z M 1216.035156 961.09375 "/>
<path style=" stroke:none;fill-rule:nonzero;fill:rgb(100%,69.018555%,0%);fill-opacity:1;" d="M 1140.386719 979.746094 C 1140.484375 980.875 1142.53125 986.277344 1142.53125 986.277344 L 1247.085938 982.742188 L 1247.085938 976.910156 C 1247.085938 967.144531 1243.761719 958.714844 1242 955.050781 C 1239.289062 949.398438 1235.523438 950.808594 1235.523438 950.808594 C 1235.523438 950.808594 1225.300781 960.785156 1213.832031 960.785156 C 1211.625 960.785156 1210.039062 959.617188 1208.90625 957.914062 C 1208.226562 956.855469 1207.703125 955.722656 1207.339844 954.519531 C 1206.863281 952.953125 1206.527344 951.359375 1206.332031 949.738281 C 1206.289062 949.394531 1206.207031 949.0625 1206.082031 948.738281 C 1205.960938 948.414062 1205.800781 948.113281 1205.601562 947.828125 C 1205.40625 947.542969 1205.179688 947.289062 1204.917969 947.058594 C 1204.660156 946.828125 1204.378906 946.632812 1204.074219 946.472656 C 1203.765625 946.3125 1203.445312 946.1875 1203.109375 946.105469 C 1202.773438 946.019531 1202.433594 945.976562 1202.085938 945.976562 C 1201.742188 945.976562 1201.398438 946.015625 1201.0625 946.09375 C 1200.726562 946.175781 1200.40625 946.292969 1200.097656 946.453125 C 1195.59375 948.785156 1190.128906 953.929688 1175.492188 961.816406 C 1174.761719 962.214844 1174.003906 962.617188 1173.21875 963.03125 C 1155.421875 972.375 1140.585938 968.898438 1140.386719 979.746094 Z M 1140.386719 979.746094 "/>
<path style=" stroke:none;fill-rule:nonzero;fill:rgb(24.708557%,30.198669%,47.44873%);fill-opacity:1;" d="M 1152.152344 991.441406 C 1149.125 991.441406 1145.429688 990.074219 1143.449219 987.859375 C 1142.832031 987.136719 1142.304688 986.359375 1141.867188 985.515625 C 1141.433594 984.675781 1141.09375 983.796875 1140.859375 982.878906 C 1140.625 981.960938 1140.496094 981.03125 1140.472656 980.082031 C 1140.453125 979.136719 1140.539062 978.199219 1140.730469 977.269531 L 1140.8125 977.269531 C 1140.917969 977.820312 1141.066406 978.351562 1141.261719 978.875 C 1141.457031 979.398438 1141.695312 979.898438 1141.976562 980.382812 C 1142.257812 980.863281 1142.578125 981.316406 1142.9375 981.746094 C 1143.296875 982.171875 1143.6875 982.566406 1144.117188 982.925781 C 1144.542969 983.289062 1144.996094 983.609375 1145.476562 983.890625 C 1145.957031 984.175781 1146.460938 984.417969 1146.980469 984.613281 C 1147.503906 984.8125 1148.039062 984.964844 1148.585938 985.070312 C 1149.136719 985.179688 1149.6875 985.238281 1150.246094 985.25 L 1240.890625 982.601562 C 1243.703125 982.601562 1246.109375 980.660156 1247.09375 977.9375 L 1247.09375 984.015625 C 1247.09375 988.128906 1244.105469 991.457031 1240.417969 991.457031 Z M 1152.152344 991.441406 "/>
<path style=" stroke:none;fill-rule:nonzero;fill:rgb(24.708557%,30.198669%,47.44873%);fill-opacity:1;" d="M 1171.558594 963.882812 C 1172.890625 964.121094 1174.195312 964.453125 1175.476562 964.878906 C 1176.761719 965.300781 1178.007812 965.808594 1179.21875 966.40625 C 1180.429688 967.003906 1181.589844 967.683594 1182.707031 968.445312 C 1183.820312 969.207031 1184.878906 970.042969 1185.875 970.949219 C 1186.875 971.859375 1187.804688 972.832031 1188.664062 973.871094 C 1189.523438 974.910156 1190.308594 976.003906 1191.015625 977.152344 C 1191.722656 978.300781 1192.34375 979.496094 1192.882812 980.730469 C 1193.421875 981.964844 1193.871094 983.234375 1194.234375 984.535156 L 1198.40625 984.386719 C 1198.078125 983.046875 1197.664062 981.734375 1197.171875 980.445312 C 1196.675781 979.15625 1196.101562 977.90625 1195.449219 976.6875 C 1194.796875 975.472656 1194.066406 974.300781 1193.265625 973.175781 C 1192.464844 972.050781 1191.597656 970.980469 1190.664062 969.964844 C 1189.726562 968.949219 1188.730469 967.996094 1187.675781 967.105469 C 1186.621094 966.214844 1185.511719 965.394531 1184.351562 964.644531 C 1183.191406 963.890625 1181.992188 963.214844 1180.746094 962.613281 C 1179.5 962.015625 1178.222656 961.492188 1176.914062 961.054688 L 1175.5 961.816406 C 1174.769531 962.214844 1174.007812 962.617188 1173.226562 963.03125 C 1172.671875 963.332031 1172.117188 963.613281 1171.558594 963.882812 Z M 1171.558594 963.882812 "/>
<path style=" stroke:none;fill-rule:nonzero;fill:rgb(24.708557%,30.198669%,47.44873%);fill-opacity:1;" d="M 1161.21875 967.882812 L 1161.21875 968.425781 C 1162.542969 968.429688 1163.855469 968.523438 1165.164062 968.71875 C 1166.472656 968.910156 1167.761719 969.195312 1169.027344 969.570312 C 1170.292969 969.949219 1171.527344 970.417969 1172.726562 970.972656 C 1173.925781 971.53125 1175.078125 972.171875 1176.183594 972.894531 C 1177.289062 973.617188 1178.335938 974.414062 1179.328125 975.289062 C 1180.316406 976.164062 1181.238281 977.105469 1182.089844 978.113281 C 1182.945312 979.121094 1183.71875 980.1875 1184.417969 981.308594 C 1185.117188 982.429688 1185.730469 983.59375 1186.261719 984.800781 L 1190.597656 984.65625 C 1189.691406 982.265625 1188.511719 980.019531 1187.058594 977.917969 C 1185.601562 975.816406 1183.917969 973.921875 1182 972.226562 C 1180.082031 970.535156 1177.988281 969.097656 1175.71875 967.917969 C 1173.449219 966.734375 1171.070312 965.839844 1168.585938 965.234375 C 1166.175781 966.246094 1163.71875 967.128906 1161.21875 967.882812 Z M 1161.21875 967.882812 "/>
<path style=" stroke:none;fill-rule:nonzero;fill:rgb(76.469421%,43.528748%,4.309082%);fill-opacity:1;" d="M 1343.066406 961.09375 C 1349.53125 959.636719 1357.878906 956.507812 1362.859375 949.921875 L 1364.527344 933.425781 C 1364.527344 933.425781 1347.089844 934.949219 1330.109375 933.320312 L 1334.007812 955.113281 C 1334.097656 955.613281 1334.238281 956.097656 1334.425781 956.566406 C 1334.613281 957.039062 1334.847656 957.484375 1335.128906 957.90625 C 1335.40625 958.332031 1335.726562 958.722656 1336.085938 959.078125 C 1336.445312 959.4375 1336.835938 959.757812 1337.257812 960.035156 C 1337.679688 960.316406 1338.128906 960.550781 1338.597656 960.738281 C 1339.070312 960.925781 1339.554688 961.066406 1340.054688 961.160156 C 1340.554688 961.25 1341.058594 961.289062 1341.566406 961.277344 C 1342.070312 961.269531 1342.574219 961.207031 1343.066406 961.09375 Z M 1343.066406 961.09375 "/>
<path style=" stroke:none;fill-rule:nonzero;fill:rgb(100%,75.289917%,19.999695%);fill-opacity:1;" d="M 1273.332031 979.746094 C 1273.433594 980.875 1275.476562 986.277344 1275.476562 986.277344 L 1374.125 982.742188 L 1374.125 976.910156 C 1374.125 967.144531 1370.796875 958.714844 1369.042969 955.050781 C 1366.328125 949.398438 1362.566406 949.632812 1362.566406 949.632812 C 1362.566406 949.632812 1352.339844 960.785156 1340.871094 960.785156 C 1338.660156 960.785156 1337.078125 959.617188 1335.949219 957.914062 C 1335.265625 956.855469 1334.746094 955.726562 1334.382812 954.519531 C 1333.902344 952.957031 1333.566406 951.359375 1333.375 949.738281 C 1333.332031 949.394531 1333.25 949.0625 1333.125 948.738281 C 1333 948.414062 1332.839844 948.113281 1332.644531 947.828125 C 1332.445312 947.542969 1332.21875 947.289062 1331.960938 947.058594 C 1331.699219 946.828125 1331.417969 946.632812 1331.113281 946.472656 C 1330.804688 946.3125 1330.484375 946.1875 1330.148438 946.105469 C 1329.8125 946.019531 1329.472656 945.980469 1329.125 945.976562 C 1328.777344 945.976562 1328.4375 946.015625 1328.101562 946.09375 C 1327.765625 946.175781 1327.441406 946.292969 1327.132812 946.453125 C 1322.632812 948.785156 1323.078125 953.929688 1308.429688 961.816406 C 1307.699219 962.214844 1306.9375 962.617188 1306.15625 963.03125 C 1288.363281 972.375 1273.527344 968.898438 1273.332031 979.746094 Z M 1273.332031 979.746094 "/>
<path style=" stroke:none;fill-rule:nonzero;fill:rgb(24.708557%,30.198669%,47.44873%);fill-opacity:1;" d="M 1285.09375 991.441406 C 1282.066406 991.441406 1278.371094 990.074219 1276.390625 987.859375 C 1275.773438 987.136719 1275.246094 986.359375 1274.808594 985.515625 C 1274.371094 984.675781 1274.035156 983.796875 1273.800781 982.878906 C 1273.566406 981.960938 1273.4375 981.03125 1273.414062 980.082031 C 1273.394531 979.136719 1273.480469 978.199219 1273.671875 977.269531 L 1273.753906 977.269531 C 1273.859375 977.820312 1274.007812 978.351562 1274.203125 978.875 C 1274.398438 979.398438 1274.636719 979.898438 1274.917969 980.382812 C 1275.199219 980.863281 1275.519531 981.316406 1275.878906 981.746094 C 1276.238281 982.171875 1276.628906 982.566406 1277.054688 982.925781 C 1277.480469 983.289062 1277.9375 983.609375 1278.417969 983.890625 C 1278.898438 984.175781 1279.398438 984.417969 1279.921875 984.613281 C 1280.445312 984.8125 1280.980469 984.964844 1281.527344 985.070312 C 1282.078125 985.179688 1282.628906 985.238281 1283.1875 985.25 L 1367.945312 982.601562 C 1370.757812 982.601562 1373.160156 980.660156 1374.140625 977.9375 L 1374.140625 984.015625 C 1374.140625 988.128906 1371.15625 991.457031 1367.464844 991.457031 Z M 1285.09375 991.441406 "/>
<path style=" stroke:none;fill-rule:nonzero;fill:rgb(24.708557%,30.198669%,47.44873%);fill-opacity:1;" d="M 1304.5 963.882812 C 1305.828125 964.121094 1307.136719 964.453125 1308.417969 964.878906 C 1309.699219 965.300781 1310.949219 965.808594 1312.160156 966.40625 C 1313.367188 967.003906 1314.53125 967.683594 1315.648438 968.445312 C 1316.761719 969.207031 1317.820312 970.042969 1318.816406 970.949219 C 1319.816406 971.859375 1320.742188 972.832031 1321.605469 973.871094 C 1322.464844 974.910156 1323.25 976.003906 1323.957031 977.152344 C 1324.664062 978.300781 1325.285156 979.496094 1325.824219 980.730469 C 1326.363281 981.964844 1326.8125 983.234375 1327.175781 984.535156 L 1331.347656 984.386719 C 1331.019531 983.046875 1330.605469 981.734375 1330.109375 980.445312 C 1329.617188 979.15625 1329.042969 977.90625 1328.390625 976.6875 C 1327.734375 975.472656 1327.007812 974.300781 1326.207031 973.175781 C 1325.40625 972.050781 1324.539062 970.980469 1323.605469 969.964844 C 1322.667969 968.949219 1321.671875 967.996094 1320.617188 967.105469 C 1319.558594 966.214844 1318.453125 965.394531 1317.292969 964.644531 C 1316.132812 963.890625 1314.933594 963.214844 1313.6875 962.613281 C 1312.441406 962.015625 1311.164062 961.492188 1309.855469 961.054688 L 1308.441406 961.816406 C 1307.710938 962.214844 1306.949219 962.617188 1306.167969 963.03125 C 1305.613281 963.332031 1305.058594 963.613281 1304.5 963.882812 Z M 1304.5 963.882812 "/>
<path style=" stroke:none;fill-rule:nonzero;fill:rgb(24.708557%,30.198669%,47.44873%);fill-opacity:1;" d="M 1294.160156 967.882812 L 1294.160156 968.425781 C 1295.480469 968.429688 1296.796875 968.523438 1298.105469 968.71875 C 1299.414062 968.910156 1300.703125 969.195312 1301.96875 969.570312 C 1303.234375 969.949219 1304.46875 970.417969 1305.667969 970.972656 C 1306.867188 971.53125 1308.019531 972.171875 1309.125 972.894531 C 1310.230469 973.617188 1311.277344 974.414062 1312.265625 975.289062 C 1313.257812 976.164062 1314.179688 977.105469 1315.03125 978.113281 C 1315.886719 979.121094 1316.660156 980.1875 1317.359375 981.308594 C 1318.058594 982.429688 1318.671875 983.59375 1319.203125 984.800781 L 1323.539062 984.65625 C 1322.632812 982.265625 1321.453125 980.019531 1319.996094 977.917969 C 1318.542969 975.816406 1316.855469 973.921875 1314.9375 972.226562 C 1313.019531 970.535156 1310.929688 969.097656 1308.660156 967.917969 C 1306.390625 966.734375 1304.011719 965.839844 1301.523438 965.234375 C 1299.117188 966.246094 1296.660156 967.128906 1294.160156 967.882812 Z M 1294.160156 967.882812 "/>
<path style=" stroke:none;fill-rule:nonzero;fill:rgb(84.709167%,72.938538%,63.919067%);fill-opacity:1;" d="M 1369.910156 696.355469 C 1369.910156 696.355469 1412.113281 756.355469 1375.070312 931.449219 C 1375.070312 931.449219 1355.660156 937.945312 1324.71875 933.199219 C 1324.71875 933.199219 1282.832031 762.945312 1277.132812 689.175781 C 1266.855469 688.871094 1256.210938 688.683594 1245.238281 688.683594 C 1245.238281 688.683594 1289.507812 778.980469 1246.539062 934.640625 C 1246.539062 934.640625 1214.886719 936.898438 1198.242188 934.527344 C 1198.242188 934.527344 1147.160156 680.027344 1150.464844 656.359375 C 1154.414062 627.875 1244.328125 591.503906 1300.886719 586.375 L 1427.476562 585.59375 C 1427.476562 585.59375 1459.921875 618.261719 1446.378906 664.609375 C 1436.21875 699.382812 1369.910156 696.355469 1369.910156 696.355469 Z M 1369.910156 696.355469 "/>
<path style=" stroke:none;fill-rule:nonzero;fill:rgb(94.119263%,88.238525%,83.139038%);fill-opacity:1;" d="M 1436.699219 597.597656 C 1437.113281 598.847656 1437.734375 599.984375 1438.558594 601.011719 C 1438.558594 601.011719 1327.628906 638.695312 1280.949219 591.289062 C 1331.667969 609.003906 1414.902344 600.324219 1436.699219 597.597656 Z M 1436.699219 597.597656 "/>
<path style=" stroke:none;fill-rule:nonzero;fill:rgb(100%,69.018555%,0%);fill-opacity:1;" d="M 1389.878906 310.011719 C 1395.640625 314.734375 1466.671875 355.820312 1476.851562 361.46875 C 1487.027344 367.117188 1429.375 491.050781 1431.167969 535.269531 C 1432.5 568.085938 1441.527344 596.882812 1441.527344 596.882812 C 1441.527344 596.882812 1339.765625 611.832031 1280.949219 591.289062 C 1280.949219 591.289062 1293.167969 573.203125 1286.378906 535.753906 C 1280.878906 505.363281 1269.683594 421.011719 1272.808594 388.558594 C 1273.941406 376.816406 1275.976562 347.695312 1290.925781 340.695312 C 1313.550781 330.09375 1329.15625 320.859375 1329.15625 320.859375 Z M 1389.878906 310.011719 "/>
<path style="fill:none;stroke-width:5;stroke-linecap:butt;stroke-linejoin:round;stroke:rgb(100%,100%,100%);stroke-opacity:1;stroke-miterlimit:4;" d="M 453.751821 568.693162 C 444.34263 516.596963 425.751459 413.482649 439.638035 343.688474 " transform="matrix(0.584535,0,0,0.583356,1021.141246,205.753395)"/>
<path style=" stroke:none;fill-rule:nonzero;fill:rgb(100%,69.018555%,0%);fill-opacity:1;" d="M 1476.851562 361.808594 C 1507.164062 388.449219 1510.050781 498.535156 1490.878906 518.59375 C 1453.328125 557.878906 1339.980469 557.433594 1339.980469 557.433594 C 1339.980469 557.433594 1328.121094 555.726562 1334.90625 528.1875 C 1334.90625 528.1875 1418.941406 485.835938 1427.082031 486.085938 C 1427.082031 486.085938 1425.726562 407.519531 1442.917969 384.042969 C 1460.109375 360.570312 1473.285156 358.675781 1476.851562 361.808594 Z M 1476.851562 361.808594 "/>
<path style="fill:none;stroke-width:5;stroke-linecap:round;stroke-linejoin:round;stroke:rgb(100%,100%,100%);stroke-opacity:1;stroke-miterlimit:4;" d="M 706.650557 586.879958 C 630.528331 606.231888 545.458019 603.881533 545.458019 603.881533 " transform="matrix(0.584535,0,0,0.583356,1021.141246,205.753395)"/>
<path style="fill:none;stroke-width:5;stroke-linecap:butt;stroke-linejoin:round;stroke:rgb(100%,100%,100%);stroke-opacity:1;stroke-miterlimit:4;" d="M 536.777239 551.711676 C 536.777239 551.711676 613.200184 508.809318 694.46806 479.540361 C 694.46806 479.540361 697.849488 376.338996 706.403298 346.058918 " transform="matrix(0.584535,0,0,0.583356,1021.141246,205.753395)"/>
<path style=" stroke:none;fill-rule:nonzero;fill:rgb(76.469421%,43.528748%,4.309082%);fill-opacity:1;" d="M 1336.644531 527.765625 C 1336.644531 527.765625 1311.273438 518.203125 1303.074219 523.011719 C 1294.101562 528.261719 1277.488281 545.042969 1276.519531 547.867188 C 1275.546875 550.691406 1275.847656 553.636719 1276.023438 556.671875 C 1276.195312 559.703125 1306.59375 559.652344 1310.195312 559.441406 C 1313.792969 559.230469 1333.535156 561.359375 1336.867188 557.75 C 1349.105469 544.515625 1336.644531 527.765625 1336.644531 527.765625 Z M 1336.644531 527.765625 "/>
<path style=" stroke:none;fill-rule:nonzero;fill:rgb(71.369934%,35.289001%,9.408569%);fill-opacity:1;" d="M 1384.785156 270.371094 C 1384.785156 270.371094 1378 287.289062 1389.878906 310.039062 C 1389.878906 310.039062 1373.585938 333.191406 1347.792969 333.046875 C 1314.472656 332.867188 1329.125 320.859375 1329.125 320.859375 C 1329.125 320.859375 1334.21875 312.730469 1333.21875 298.167969 Z M 1384.785156 270.371094 "/>
<g clip-path="url(#clip2)" clip-rule="nonzero">
<path style=" stroke:none;fill-rule:nonzero;fill:rgb(76.469421%,43.528748%,4.309082%);fill-opacity:1;" d="M 1379.578125 280.421875 C 1378.898438 283.585938 1378.800781 297.234375 1373.148438 301.074219 C 1365.828125 306.042969 1344.296875 313.835938 1328.011719 307.96875 C 1325.921875 307.214844 1315.566406 276.8125 1316.242188 266.429688 C 1316.921875 256.042969 1317.148438 219.246094 1340.210938 209.988281 C 1363.269531 200.730469 1390.878906 205.90625 1398.570312 233.011719 C 1401.714844 244.097656 1399.117188 254.015625 1394.953125 261.894531 C 1394.953125 261.894531 1397.617188 266.667969 1393.34375 271.421875 C 1388.695312 276.609375 1379.578125 280.421875 1379.578125 280.421875 Z M 1379.578125 280.421875 "/>
</g>
<g clip-path="url(#clip3)" clip-rule="nonzero">
<path style=" stroke:none;fill-rule:nonzero;fill:rgb(44.709778%,17.649841%,32.939148%);fill-opacity:1;" d="M 1394.964844 261.890625 C 1389.539062 255.769531 1382.066406 266.648438 1382.066406 266.648438 L 1381.964844 267.234375 C 1379.886719 266.113281 1378.199219 264.570312 1376.902344 262.605469 C 1373.78125 257.894531 1373.523438 252.648438 1373.9375 233.789062 C 1373.9375 233.789062 1343.652344 236.980469 1321.691406 231.710938 C 1325.0625 222.304688 1330.699219 213.792969 1340.222656 209.972656 C 1363.292969 200.714844 1390.894531 205.886719 1398.582031 232.996094 C 1401.726562 244.074219 1399.128906 254.007812 1394.964844 261.890625 Z M 1394.964844 261.890625 "/>
</g>
<path style=" stroke:none;fill-rule:nonzero;fill:rgb(94.119263%,88.238525%,83.139038%);fill-opacity:1;" d="M 1354.8125 324.097656 C 1359.03125 322.144531 1376.527344 315.785156 1388.890625 303.289062 C 1388.890625 303.289062 1401.230469 315.230469 1401.339844 317.355469 C 1401.453125 319.480469 1375.207031 337.234375 1367.816406 337.988281 Z M 1354.8125 324.097656 "/>
<path style=" stroke:none;fill-rule:nonzero;fill:rgb(94.119263%,88.238525%,83.139038%);fill-opacity:1;" d="M 1329.15625 314.507812 C 1330.324219 316.613281 1333.28125 321.585938 1341.730469 323.84375 C 1341.730469 323.84375 1335.546875 333.921875 1329.8125 337.085938 C 1329.8125 337.085938 1320.457031 333 1317.914062 327.679688 C 1316.230469 324.175781 1329.15625 314.507812 1329.15625 314.507812 Z M 1329.15625 314.507812 "/>
<path style=" stroke:none;fill-rule:nonzero;fill:rgb(84.709167%,72.938538%,63.919067%);fill-opacity:1;" d="M 1341.730469 323.84375 L 1347.796875 333.019531 L 1354.8125 324.097656 L 1361.242188 330.960938 C 1361.242188 330.960938 1352.273438 335.222656 1335.523438 332.167969 Z M 1341.730469 323.84375 "/>
<g clip-path="url(#clip4)" clip-rule="nonzero">
<path style=" stroke:none;fill-rule:nonzero;fill:rgb(100%,100%,100%);fill-opacity:1;" d="M 1021.140625 558.101562 L 1339.585938 558.101562 C 1340.351562 558.101562 1341.113281 558.175781 1341.863281 558.324219 C 1342.617188 558.472656 1343.347656 558.695312 1344.058594 558.988281 C 1344.765625 559.28125 1345.441406 559.640625 1346.078125 560.066406 C 1346.71875 560.492188 1347.308594 560.976562 1347.851562 561.515625 C 1348.394531 562.058594 1348.878906 562.648438 1349.304688 563.285156 C 1349.730469 563.921875 1350.089844 564.59375 1350.386719 565.300781 C 1350.679688 566.011719 1350.902344 566.738281 1351.050781 567.492188 C 1351.199219 568.242188 1351.273438 569 1351.273438 569.765625 L 1351.273438 572.859375 C 1351.273438 573.625 1351.199219 574.382812 1351.050781 575.136719 C 1350.902344 575.886719 1350.679688 576.617188 1350.386719 577.324219 C 1350.089844 578.03125 1349.730469 578.703125 1349.304688 579.339844 C 1348.878906 579.976562 1348.394531 580.566406 1347.851562 581.109375 C 1347.308594 581.652344 1346.71875 582.132812 1346.078125 582.558594 C 1345.441406 582.984375 1344.765625 583.34375 1344.058594 583.636719 C 1343.347656 583.929688 1342.617188 584.152344 1341.863281 584.300781 C 1341.113281 584.453125 1340.351562 584.527344 1339.585938 584.527344 L 1021.726562 584.527344 "/>
</g>
<g clip-path="url(#clip5)" clip-rule="nonzero">
<path style="fill:none;stroke-width:6;stroke-linecap:butt;stroke-linejoin:miter;stroke:rgb(84.709167%,72.938538%,63.919067%);stroke-opacity:1;stroke-miterlimit:10;" d="M -0.00106258 604.002064 L 544.78307 604.002064 C 546.092872 604.002064 547.395992 604.129291 548.679063 604.383746 C 549.968817 604.6382 551.218475 605.019882 552.43472 605.522094 C 553.644282 606.024307 554.800383 606.640355 555.889658 607.370237 C 556.985614 608.10012 557.994697 608.930445 558.923587 609.854516 C 559.852477 610.785284 560.681128 611.796405 561.409538 612.887881 C 562.137948 613.979357 562.752753 615.131098 563.260636 616.343104 C 563.761836 617.561807 564.142748 618.807295 564.396689 620.099655 C 564.65063 621.38532 564.777601 622.684377 564.777601 623.996826 L 564.777601 629.300192 C 564.777601 630.612642 564.65063 631.911698 564.396689 633.204059 C 564.142748 634.489724 563.761836 635.741907 563.260636 636.953914 C 562.752753 638.165921 562.137948 639.317662 561.409538 640.409138 C 560.681128 641.500613 559.852477 642.511735 558.923587 643.442502 C 557.994697 644.37327 556.985614 645.196899 555.889658 645.926781 C 554.800383 646.656664 553.644282 647.272711 552.43472 647.774924 C 551.218475 648.277137 549.968817 648.658818 548.679063 648.913273 C 547.395992 649.174424 546.092872 649.301651 544.78307 649.301651 L 1.001337 649.301651 " transform="matrix(0.584535,0,0,0.583356,1021.141246,205.753395)"/>
</g>
<g clip-path="url(#clip6)" clip-rule="nonzero">
<path style=" stroke:none;fill-rule:nonzero;fill:rgb(100%,100%,100%);fill-opacity:1;" d="M 1272.46875 992.203125 L 1272.46875 584.945312 L 1297.902344 584.945312 L 1297.902344 992.191406 "/>
</g>
<path style=" stroke:none;fill-rule:nonzero;fill:rgb(94.119263%,88.238525%,83.139038%);fill-opacity:1;" d="M 1272.46875 593.042969 L 1272.46875 584.945312 L 1297.902344 584.945312 L 1297.902344 613.09375 Z M 1272.46875 593.042969 "/>
<g clip-path="url(#clip7)" clip-rule="nonzero">
<path style="fill:none;stroke-width:6;stroke-linecap:butt;stroke-linejoin:miter;stroke:rgb(84.709167%,72.938538%,63.919067%);stroke-opacity:1;stroke-miterlimit:10;" d="M 429.961538 1347.142957 L 429.961538 650.018141 L 473.472363 650.018141 L 473.472363 1347.122869 " transform="matrix(0.584535,0,0,0.583356,1021.141246,205.753395)"/>
</g>
<path style="fill-rule:nonzero;fill:rgb(100%,100%,100%);fill-opacity:1;stroke-width:5;stroke-linecap:butt;stroke-linejoin:miter;stroke:rgb(24.708557%,30.198669%,56.469727%);stroke-opacity:1;stroke-miterlimit:10;" d="M 447.830981 604.002064 L 230.002866 604.002064 C 228.292104 604.002064 226.621438 603.761002 224.984185 603.29227 C 223.346933 602.816842 221.803237 602.127136 220.359782 601.216457 C 218.916327 600.305778 217.626572 599.214303 216.497202 597.942031 C 215.361149 596.663062 214.425576 595.256867 213.690483 593.716748 L 143.281936 446.601903 C 143.114869 446.247006 142.96785 445.885413 142.84088 445.517124 C 142.720592 445.148834 142.620352 444.773849 142.546843 444.385471 C 142.473333 444.003789 142.419872 443.622108 142.393141 443.23373 C 142.366411 442.845352 142.366411 442.450278 142.386459 442.0619 C 142.406507 441.673522 142.453285 441.285145 142.526795 440.903463 C 142.600304 440.521781 142.693861 440.146796 142.814149 439.77181 C 142.934437 439.403521 143.074773 439.041928 143.24184 438.687031 C 143.402224 438.332134 143.589338 437.990629 143.796501 437.662517 C 144.003663 437.334405 144.230874 437.012988 144.484815 436.718357 C 144.732074 436.417029 144.992698 436.129094 145.280052 435.861247 C 145.560724 435.5934 145.861444 435.345642 146.175529 435.117972 C 146.489614 434.890303 146.823748 434.676025 147.164563 434.488533 C 147.505379 434.30104 147.852878 434.133636 148.220424 433.993016 C 148.581288 433.8457 148.948835 433.725169 149.329747 433.631423 C 149.703976 433.53098 150.084888 433.464019 150.472482 433.410449 C 150.860077 433.363576 151.247671 433.336791 151.641948 433.336791 L 369.470063 433.336791 C 371.174143 433.336791 372.844809 433.577853 374.488744 434.053282 C 376.125997 434.522013 377.669692 435.218415 379.106465 436.122398 C 380.54992 437.033077 381.839674 438.124553 382.975727 439.403521 C 384.11178 440.675793 385.047353 442.081989 385.782446 443.622108 L 456.190994 590.757041 C 456.35806 591.111938 456.505079 591.473531 456.625367 591.84182 C 456.745655 592.210109 456.845895 592.585095 456.919404 592.966777 C 456.992913 593.348458 457.039692 593.736836 457.066423 594.125214 C 457.093153 594.513592 457.093153 594.90197 457.073105 595.290347 C 457.046375 595.678725 456.999596 596.067103 456.932769 596.448785 C 456.85926 596.830466 456.765703 597.205452 456.645415 597.580437 C 456.525127 597.948727 456.384791 598.31032 456.217724 598.665217 C 456.050658 599.013418 455.863543 599.354922 455.656381 599.683035 C 455.449218 600.011147 455.222007 600.325867 454.974749 600.627194 C 454.72749 600.928522 454.460184 601.209761 454.179512 601.477608 C 453.89884 601.745455 453.59812 601.993213 453.284035 602.220883 C 452.96995 602.455249 452.642499 602.66283 452.301683 602.850323 C 451.960867 603.037816 451.606686 603.20522 451.245822 603.345839 C 450.884958 603.493155 450.517412 603.613686 450.1365 603.707432 C 449.762271 603.807875 449.381359 603.874837 448.993765 603.928406 C 448.60617 603.975279 448.218576 604.002064 447.830981 604.002064 Z M 447.830981 604.002064 " transform="matrix(0.584535,0,0,0.583356,1021.141246,205.753395)"/>
<path style=" stroke:none;fill-rule:nonzero;fill:rgb(94.119263%,88.238525%,83.139038%);fill-opacity:1;" d="M 1282.707031 556.8125 L 1157.429688 556.8125 C 1156.5 556.777344 1155.585938 556.617188 1154.695312 556.335938 C 1153.808594 556.050781 1152.972656 555.65625 1152.191406 555.144531 C 1151.410156 554.632812 1150.710938 554.027344 1150.097656 553.324219 C 1149.480469 552.625 1148.972656 551.851562 1148.570312 551.011719 L 1130.449219 513.183594 L 1130.722656 512.703125 L 1268.089844 512.703125 L 1268.316406 513.175781 L 1285.648438 549.34375 C 1288.273438 553.566406 1286.5625 556.8125 1282.707031 556.8125 Z M 1282.707031 556.8125 "/>
<path style="fill-rule:nonzero;fill:rgb(100%,100%,100%);fill-opacity:1;stroke-width:5;stroke-linecap:butt;stroke-linejoin:round;stroke:rgb(24.708557%,30.198669%,56.469727%);stroke-opacity:1;stroke-miterlimit:4;" d="M 425.003001 525.857766 L 385.147593 595.437663 C 382.147077 600.680764 375.798546 604.022152 368.828528 604.022152 L 151.000413 604.022152 C 144.177413 604.022152 139.700028 598.08265 142.6404 592.939992 L 181.079083 525.857766 Z M 425.003001 525.857766 " transform="matrix(0.584535,0,0,0.583356,1021.141246,205.753395)"/>
<path style=" stroke:none;fill-rule:nonzero;fill:rgb(24.708557%,30.198669%,56.469727%);fill-opacity:1;" d="M 520.3125 927.179688 C 521.464844 935.960938 508.578125 951.410156 508.578125 959.828125 C 508.578125 962.917969 520.324219 967.109375 531.261719 972.488281 C 544.644531 979.066406 557.527344 986.691406 562.160156 986.691406 L 592.054688 986.691406 C 592.054688 986.691406 592.089844 969.398438 575.191406 966.703125 C 557 963.796875 547.269531 926.648438 547.269531 926.648438 Z M 520.3125 927.179688 "/>
<g clip-path="url(#clip8)" clip-rule="nonzero">
<path style="fill:none;stroke-width:6;stroke-linecap:round;stroke-linejoin:miter;stroke:rgb(82.348633%,66.668701%,57.249451%);stroke-opacity:1;stroke-miterlimit:10;" d="M 496.513049 1231.002498 C 518.932485 1241.999504 579.712321 1275.068935 587.512662 1275.068935 L 637.593205 1275.068935 " transform="matrix(0.596929,0,0,0.597819,211.445062,225.071694)"/>
</g>
<g clip-path="url(#clip9)" clip-rule="nonzero">
<path style="fill:none;stroke-width:6;stroke-linecap:round;stroke-linejoin:miter;stroke:rgb(82.348633%,66.668701%,57.249451%);stroke-opacity:1;stroke-miterlimit:10;" d="M 567.992178 1224.14162 L 586.230055 1217.038978 " transform="matrix(0.596929,0,0,0.597819,211.445062,225.071694)"/>
</g>
<g clip-path="url(#clip10)" clip-rule="nonzero">
<path style="fill:none;stroke-width:6;stroke-linecap:round;stroke-linejoin:miter;stroke:rgb(82.348633%,66.668701%,57.249451%);stroke-opacity:1;stroke-miterlimit:10;" d="M 557.790223 1212.922451 L 580.118044 1204.800479 " transform="matrix(0.596929,0,0,0.597819,211.445062,225.071694)"/>
</g>
<path style=" stroke:none;fill-rule:nonzero;fill:rgb(82.348633%,66.668701%,57.249451%);fill-opacity:1;" d="M 462.894531 616.761719 C 462.894531 616.761719 578.527344 612.578125 627.648438 642.894531 C 649.246094 656.226562 554.988281 930.878906 554.988281 930.878906 C 554.988281 930.878906 524.289062 931.394531 507.921875 923.191406 C 507.921875 923.191406 485.835938 771.945312 540.597656 712.121094 C 540.597656 712.121094 413.988281 729.757812 357.574219 689.527344 Z M 462.894531 616.761719 "/>
<path style=" stroke:none;fill-rule:nonzero;fill:rgb(24.708557%,30.198669%,56.469727%);fill-opacity:1;" d="M 604.300781 931.449219 C 605.453125 940.230469 593.167969 955.679688 593.167969 964.09375 C 593.167969 967.1875 604.3125 971.375 615.226562 976.757812 C 628.613281 983.332031 641.492188 990.960938 646.121094 990.960938 L 676.023438 990.960938 C 676.023438 990.960938 676.054688 973.667969 659.160156 970.96875 C 640.964844 968.058594 631.242188 930.917969 631.242188 930.917969 Z M 604.300781 931.449219 "/>
<g clip-path="url(#clip11)" clip-rule="nonzero">
<path style="fill:none;stroke-width:6;stroke-linecap:round;stroke-linejoin:miter;stroke:rgb(82.348633%,66.668701%,57.249451%);stroke-opacity:1;stroke-miterlimit:10;" d="M 638.221421 1238.092071 C 660.640856 1249.089078 720.399843 1282.158508 728.219815 1282.158508 L 778.306902 1282.158508 " transform="matrix(0.596929,0,0,0.597819,211.445062,225.071694)"/>
</g>
<g clip-path="url(#clip12)" clip-rule="nonzero">
<path style="fill:none;stroke-width:6;stroke-linecap:round;stroke-linejoin:miter;stroke:rgb(82.348633%,66.668701%,57.249451%);stroke-opacity:1;stroke-miterlimit:10;" d="M 717.860806 1228.212407 L 726.930665 1224.167757 " transform="matrix(0.596929,0,0,0.597819,211.445062,225.071694)"/>
</g>
<g clip-path="url(#clip13)" clip-rule="nonzero">
<path style="fill:none;stroke-width:6;stroke-linecap:round;stroke-linejoin:miter;stroke:rgb(82.348633%,66.668701%,57.249451%);stroke-opacity:1;stroke-miterlimit:10;" d="M 707.65885 1216.999773 L 720.812109 1211.942326 " transform="matrix(0.596929,0,0,0.597819,211.445062,225.071694)"/>
</g>
<path style=" stroke:none;fill-rule:nonzero;fill:rgb(84.709167%,72.938538%,63.919067%);fill-opacity:1;" d="M 340.734375 698.109375 C 410.222656 752.042969 579.039062 728.984375 579.039062 728.984375 C 579.039062 728.984375 547.828125 783.984375 593.878906 935.6875 C 593.878906 935.6875 615.367188 939.273438 637.878906 935.6875 C 637.878906 935.6875 640.953125 821.730469 657.328125 699.355469 C 660.414062 676.28125 578.53125 640.335938 453.175781 635.46875 Z M 340.734375 698.109375 "/>
<g clip-path="url(#clip14)" clip-rule="nonzero">
<path style=" stroke:none;fill-rule:nonzero;fill:rgb(100%,69.018555%,0%);fill-opacity:1;" d="M 308.570312 320.84375 C 303.242188 315.15625 280.597656 279.730469 292.359375 252.792969 C 304.117188 225.855469 330.175781 221.417969 346.28125 227.464844 C 346.28125 227.464844 360.820312 221.683594 382.351562 242.015625 C 403.058594 261.574219 414.722656 285.917969 405.035156 300.808594 C 392.832031 319.582031 388.828125 318.996094 382.996094 326.675781 C 377.828125 333.472656 364.785156 351.511719 347.492188 342.316406 C 328.472656 332.175781 308.570312 320.84375 308.570312 320.84375 Z M 308.570312 320.84375 "/>
</g>
<path style=" stroke:none;fill-rule:nonzero;fill:rgb(100%,81.17981%,78.819275%);fill-opacity:1;" d="M 314.488281 312.914062 C 302.496094 334.585938 290.238281 348.570312 290.238281 348.570312 L 339.714844 371.449219 C 339.714844 371.449219 347.886719 346.726562 351.8125 338.566406 C 354.546875 332.863281 333.140625 317.304688 326.144531 302.699219 C 322.210938 294.492188 318.515625 293.007812 316.832031 293.875 C 307.414062 298.675781 314.488281 312.914062 314.488281 312.914062 Z M 314.488281 312.914062 "/>
<path style=" stroke:none;fill-rule:nonzero;fill:rgb(98.039246%,71.369934%,67.83905%);fill-opacity:1;" d="M 323.464844 313.214844 C 323.023438 315.140625 321.726562 325.542969 327.828125 330.402344 C 331.628906 333.433594 340.679688 339.070312 349.707031 343.300781 C 347.664062 348.175781 345.21875 355.132812 343.265625 360.339844 C 335.242188 355.320312 325.296875 346.816406 322.527344 334.113281 C 319.625 320.78125 323.464844 313.214844 323.464844 313.214844 Z M 323.464844 313.214844 "/>
<path style=" stroke:none;fill-rule:nonzero;fill:rgb(100%,81.17981%,78.819275%);fill-opacity:1;" d="M 323.472656 313.214844 C 323.023438 315.140625 321.726562 325.542969 327.828125 330.402344 C 333.929688 335.261719 353.554688 346.835938 364.890625 348.582031 C 376.226562 350.328125 389.089844 317.140625 389.960938 304.257812 C 390.835938 291.375 394.601562 258.40625 368.382812 258.40625 C 356.84375 258.40625 325.648438 303.824219 323.472656 313.214844 Z M 323.472656 313.214844 "/>
<path style=" stroke:none;fill-rule:nonzero;fill:rgb(94.119263%,88.238525%,83.139038%);fill-opacity:1;" d="M 453.203125 635.46875 C 453.203125 635.46875 461.386719 626.5 462.925781 616.761719 C 462.925781 616.761719 390.796875 561.671875 356.75 394.375 L 353.136719 394.058594 C 353.136719 394.058594 348.023438 529.007812 453.203125 635.46875 Z M 453.203125 635.46875 "/>
<path style=" stroke:none;fill-rule:nonzero;fill:rgb(24.708557%,30.198669%,56.469727%);fill-opacity:1;" d="M 356.652344 394.09375 C 381.324219 407.363281 425.03125 493.523438 425.03125 493.523438 L 385.800781 535.585938 C 412.4375 588.546875 453.203125 635.46875 453.203125 635.46875 C 417.863281 683.121094 340.734375 698.109375 340.734375 698.109375 C 340.734375 698.109375 242.878906 618.9375 242.878906 481.351562 C 242.878906 408.21875 267.199219 382.667969 273.324219 374.210938 Z M 356.652344 394.09375 "/>
<path style=" stroke:none;fill-rule:nonzero;fill:rgb(27.839661%,36.079407%,66.268921%);fill-opacity:1;" d="M 268.945312 373.359375 C 268.945312 373.359375 313.996094 391.039062 356.695312 394.367188 C 356.695312 394.367188 356.1875 376.949219 352.21875 373.359375 C 348.25 369.773438 299.066406 345.71875 289.34375 347.386719 C 279.621094 349.054688 268.945312 373.359375 268.945312 373.359375 Z M 268.945312 373.359375 "/>
<path style="fill:none;stroke-width:4;stroke-linecap:butt;stroke-linejoin:miter;stroke:rgb(27.839661%,36.079407%,66.268921%);stroke-opacity:1;stroke-miterlimit:10;" d="M 211.231292 456.337533 L 292.087844 519.411868 " transform="matrix(0.596929,0,0,0.597819,211.445062,225.071694)"/>
<path style=" stroke:none;fill-rule:nonzero;fill:rgb(100%,100%,100%);fill-opacity:1;" d="M 605.667969 526.332031 C 606.945312 526.226562 608.203125 526.03125 609.449219 525.742188 C 610.695312 525.453125 611.914062 525.074219 613.105469 524.609375 C 614.296875 524.140625 615.449219 523.589844 616.558594 522.953125 C 617.667969 522.316406 618.726562 521.605469 619.730469 520.8125 C 620.738281 520.019531 621.679688 519.160156 622.5625 518.230469 C 623.441406 517.300781 624.25 516.3125 624.984375 515.265625 C 625.71875 514.21875 626.375 513.121094 626.949219 511.976562 C 627.527344 510.832031 628.015625 509.652344 628.417969 508.4375 L 661.195312 409.660156 C 664.515625 399.664062 673.425781 392.089844 683.878906 391.234375 L 631.15625 395.550781 C 620.683594 396.40625 611.769531 403.980469 608.472656 413.976562 L 575.703125 512.753906 C 572.382812 522.75 565.554688 529.617188 555.074219 530.472656 Z M 605.667969 526.332031 "/>
<g clip-path="url(#clip15)" clip-rule="nonzero">
<path style="fill:none;stroke-width:5;stroke-linecap:butt;stroke-linejoin:miter;stroke:rgb(100%,69.018555%,0%);stroke-opacity:1;stroke-miterlimit:10;" d="M 660.418363 503.932421 C 662.558222 503.755999 664.665361 503.42929 666.752868 502.945762 C 668.840376 502.462233 670.882076 501.828419 672.877968 501.050853 C 674.873861 500.266753 676.804314 499.345435 678.662785 498.280365 C 680.521255 497.215295 682.294655 496.026077 683.976439 494.69964 C 685.664768 493.373204 687.241851 491.935687 688.720774 490.380554 C 690.193154 488.825422 691.547743 487.172277 692.777998 485.42112 C 694.008254 483.669963 695.10763 481.833861 696.069585 479.91935 C 697.038084 478.004838 697.856073 476.031519 698.530095 473.999392 L 753.440044 308.769856 C 759.002368 292.048917 773.929027 279.379162 791.44053 277.948179 L 703.117376 285.168436 C 685.573154 286.599419 670.639951 299.269173 665.116891 315.990112 L 610.22003 481.219649 C 604.657706 497.940588 593.218951 509.427658 575.661641 510.858641 Z M 660.418363 503.932421 " transform="matrix(0.596929,0,0,0.597819,211.445062,225.071694)"/>
</g>
<g clip-path="url(#clip16)" clip-rule="nonzero">
<path style=" stroke:none;fill-rule:nonzero;fill:rgb(100%,100%,100%);fill-opacity:1;" d="M 607.316406 530.078125 C 608.59375 530.066406 609.867188 529.960938 611.128906 529.761719 C 612.394531 529.5625 613.636719 529.273438 614.855469 528.890625 C 616.078125 528.511719 617.265625 528.042969 618.417969 527.488281 C 619.570312 526.933594 620.675781 526.296875 621.734375 525.578125 C 622.796875 524.863281 623.796875 524.070312 624.742188 523.207031 C 625.683594 522.34375 626.5625 521.414062 627.371094 520.421875 C 628.179688 519.429688 628.910156 518.382812 629.566406 517.285156 C 630.222656 516.183594 630.792969 515.042969 631.28125 513.859375 L 671.03125 417.683594 C 671.523438 416.5 672.097656 415.359375 672.753906 414.261719 C 673.410156 413.160156 674.144531 412.117188 674.953125 411.125 C 675.761719 410.132812 676.636719 409.203125 677.582031 408.339844 C 678.527344 407.476562 679.527344 406.6875 680.589844 405.96875 C 681.648438 405.253906 682.753906 404.617188 683.90625 404.0625 C 685.058594 403.507812 686.246094 403.039062 687.464844 402.65625 C 688.6875 402.277344 689.929688 401.984375 691.191406 401.785156 C 692.457031 401.585938 693.726562 401.476562 695.003906 401.464844 L 642.113281 401.996094 C 640.832031 402.007812 639.5625 402.113281 638.296875 402.3125 C 637.035156 402.511719 635.792969 402.800781 634.570312 403.183594 C 633.351562 403.5625 632.164062 404.03125 631.011719 404.585938 C 629.859375 405.140625 628.75 405.777344 627.691406 406.492188 C 626.632812 407.210938 625.628906 408 624.683594 408.863281 C 623.742188 409.726562 622.863281 410.65625 622.054688 411.648438 C 621.246094 412.640625 620.511719 413.6875 619.855469 414.785156 C 619.203125 415.882812 618.628906 417.027344 618.140625 418.210938 L 578.390625 514.417969 C 577.898438 515.597656 577.328125 516.742188 576.671875 517.839844 C 576.015625 518.941406 575.285156 519.984375 574.476562 520.976562 C 573.667969 521.96875 572.789062 522.898438 571.847656 523.761719 C 570.902344 524.625 569.902344 525.414062 568.839844 526.132812 C 567.78125 526.847656 566.675781 527.484375 565.523438 528.039062 C 564.371094 528.59375 563.183594 529.0625 561.960938 529.441406 C 560.742188 529.824219 559.5 530.113281 558.234375 530.3125 C 556.972656 530.511719 555.703125 530.617188 554.421875 530.628906 Z M 607.316406 530.078125 "/>
</g>
<g clip-path="url(#clip17)" clip-rule="nonzero">
<path style="fill:none;stroke-width:5;stroke-linecap:butt;stroke-linejoin:miter;stroke:rgb(100%,69.018555%,0%);stroke-opacity:1;stroke-miterlimit:10;" d="M 663.179893 510.19869 C 665.319752 510.179087 667.453067 510.002665 669.56675 509.669422 C 671.686976 509.336179 673.76794 508.852651 675.80964 508.212302 C 677.857884 507.578488 679.847232 506.794388 681.777686 505.866536 C 683.708139 504.938683 685.560066 503.873614 687.333465 502.671327 C 689.113409 501.475574 690.78865 500.149137 692.372276 498.705086 C 693.949358 497.261035 695.421738 495.705902 696.776327 494.046223 C 698.130917 492.386544 699.354628 490.635387 700.454005 488.799286 C 701.553382 486.95665 702.508793 485.048672 703.326781 483.068819 L 769.91761 322.191039 C 770.742142 320.211186 771.704097 318.303208 772.803474 316.467107 C 773.902851 314.624471 775.133106 312.879848 776.487695 311.220169 C 777.842285 309.56049 779.308121 308.005358 780.891747 306.561306 C 782.475373 305.117255 784.150614 303.797353 785.930558 302.595066 C 787.703957 301.399313 789.555884 300.334243 791.486337 299.406391 C 793.416791 298.478539 795.406139 297.694439 797.447839 297.05409 C 799.496083 296.420276 801.577046 295.930213 803.690729 295.59697 C 805.810956 295.263728 807.937727 295.080771 810.077586 295.061169 L 721.473044 295.949816 C 719.326641 295.969418 717.199871 296.145841 715.079644 296.479083 C 712.965961 296.812326 710.884997 297.295854 708.836754 297.936203 C 706.795054 298.570017 704.805705 299.354118 702.875252 300.28197 C 700.944798 301.209822 699.086328 302.274891 697.312928 303.470644 C 695.539528 304.672931 693.857744 305.992834 692.274117 307.436885 C 690.697035 308.880936 689.224655 310.436069 687.870066 312.095748 C 686.515477 313.755427 685.285221 315.506584 684.185845 317.342686 C 683.093012 319.178787 682.131057 321.093299 681.313068 323.073152 L 614.72224 484.003205 C 613.897707 485.976524 612.942296 487.891036 611.842919 489.727138 C 610.743542 491.569773 609.519831 493.314396 608.165242 494.974075 C 606.810653 496.633754 605.338273 498.188887 603.76119 499.632938 C 602.177564 501.076989 600.502323 502.396892 598.72238 503.599179 C 596.94898 504.794932 595.097054 505.860001 593.1666 506.787853 C 591.236147 507.715705 589.246798 508.499806 587.198554 509.13362 C 585.156854 509.773969 583.075891 510.257497 580.955664 510.59074 C 578.841981 510.923982 576.71521 511.100405 574.568808 511.120008 Z M 663.179893 510.19869 " transform="matrix(0.596929,0,0,0.597819,211.445062,225.071694)"/>
</g>
<path style=" stroke:none;fill-rule:nonzero;fill:rgb(100%,81.17981%,78.819275%);fill-opacity:1;" d="M 407.976562 549.386719 C 407.976562 549.386719 419.175781 562.90625 446.085938 562.839844 C 458.992188 562.839844 563.136719 484.621094 563.136719 484.621094 C 563.136719 484.621094 590.464844 481.566406 598.09375 476.324219 C 605.722656 471.082031 619.148438 442.917969 618.054688 438.769531 C 616.914062 438.835938 615.800781 439.058594 614.722656 439.441406 C 613.644531 439.828125 612.640625 440.351562 611.714844 441.023438 C 610.785156 441.695312 609.96875 442.480469 609.265625 443.382812 C 608.5625 444.289062 607.996094 445.273438 607.574219 446.335938 C 604.78125 452.859375 594.183594 453.324219 594.183594 453.324219 L 596.464844 445.378906 C 596.464844 445.378906 586.53125 446.785156 578.972656 447.078125 C 571.417969 447.371094 561.066406 465.710938 559.203125 466.433594 C 557.339844 467.160156 447.230469 508.648438 440.957031 512.875 C 434.683594 517.101562 407.976562 549.386719 407.976562 549.386719 Z M 407.976562 549.386719 "/>
<path style=" stroke:none;fill-rule:nonzero;fill:rgb(27.839661%,36.079407%,66.268921%);fill-opacity:1;" d="M 443.003906 509.496094 C 444.640625 507.445312 429.808594 493.4375 425.03125 493.523438 C 420.257812 493.605469 381.796875 532.289062 385.039062 539.464844 C 388.28125 546.636719 400.300781 556.617188 406.015625 552.1875 C 411.726562 547.757812 443.003906 509.496094 443.003906 509.496094 Z M 443.003906 509.496094 "/>
<g clip-path="url(#clip18)" clip-rule="nonzero">
<path style="fill:none;stroke-width:6;stroke-linecap:round;stroke-linejoin:miter;stroke:rgb(100%,69.018555%,0%);stroke-opacity:1;stroke-miterlimit:10;" d="M 2.997531 440.910359 C 2.997531 440.910359 34.656968 730.687695 212.088544 817.657488 C 319.369405 870.237947 437.918879 877.177235 514.901436 874.439418 " transform="matrix(0.596929,0,0,0.597819,211.445062,225.071694)"/>
</g>
<g clip-path="url(#clip19)" clip-rule="nonzero">
<path style="fill:none;stroke-width:6;stroke-linecap:round;stroke-linejoin:miter;stroke:rgb(100%,69.018555%,0%);stroke-opacity:1;stroke-miterlimit:10;" d="M 44.283059 605.532218 L 141.519018 605.532218 C 144.516129 605.532218 147.506696 605.59756 150.497263 605.728244 C 153.494374 605.858927 156.478397 606.054952 159.46242 606.316319 C 162.446443 606.577686 165.423922 606.910928 168.388313 607.302978 C 171.359248 607.695028 174.317095 608.15242 177.268399 608.675154 C 180.213158 609.197887 183.151374 609.785963 186.076502 610.43938 C 188.995086 611.092796 191.900582 611.811555 194.79299 612.589121 C 197.685398 613.373221 200.558175 614.216129 203.411319 615.117845 C 206.264464 616.026094 209.097977 616.993151 211.911858 618.02555 C 214.72574 619.057949 217.513445 620.149155 220.274975 621.299169 C 223.036505 622.455717 225.778404 623.671072 228.487583 624.945235 C 231.196761 626.212864 233.879764 627.545835 236.530048 628.937613 C 239.180331 630.329391 241.797895 631.779976 244.389284 633.289369 C 246.980672 634.792228 249.532797 636.353895 252.052202 637.974369 C 254.571608 639.594843 257.05175 641.26759 259.499172 642.992611 C 261.946594 644.724165 264.354753 646.501459 266.717105 648.337561 C 269.086 650.173662 271.415632 652.055503 273.699457 653.989617 C 275.983281 655.923731 278.227843 657.910119 280.420052 659.94878 C 282.618806 661.980906 284.771753 664.058772 286.878892 666.188911 C 288.986031 668.31905 291.040818 670.494929 293.056343 672.710012 C 295.065323 674.93163 297.028496 677.192452 298.939318 679.499014 C 300.85014 681.805576 302.70861 684.151342 304.514729 686.536314 C 306.327392 688.92782 308.08116 691.351997 309.782577 693.815379 C 311.483993 696.27876 313.133059 698.781347 314.723229 701.316605 C 316.313399 703.851863 317.851218 706.426325 319.330141 709.026925 C 320.809065 711.634058 322.229094 714.267328 323.590227 716.933269 C 324.95136 719.59921 326.260142 722.297822 327.503485 725.022571 C 328.746828 727.740785 329.931276 730.49167 331.056828 733.268692 C 332.175837 736.045714 333.242494 738.842339 334.243712 741.6651 C 335.244931 744.487861 336.18071 747.330224 337.057594 750.198725 C 337.934478 753.060691 338.745922 755.942259 339.491928 758.843431 C 340.244478 761.738068 340.931588 764.652307 341.55326 767.586149 C 342.168387 770.513457 342.731164 773.453833 343.221957 776.407277 L 357.808332 863.997816 " transform="matrix(0.596929,0,0,0.597819,211.445062,225.071694)"/>
</g>
<g clip-path="url(#clip20)" clip-rule="nonzero">
<path style="fill:none;stroke-width:6;stroke-linecap:round;stroke-linejoin:miter;stroke:rgb(100%,69.018555%,0%);stroke-opacity:1;stroke-miterlimit:10;" d="M 377.852329 867.238764 L 377.852329 1109.003024 C 377.852329 1110.812989 377.734538 1112.61642 377.498958 1114.413316 C 377.263377 1116.210213 376.910006 1117.987507 376.445388 1119.738664 C 375.974227 1121.489822 375.398362 1123.201774 374.704708 1124.881055 C 374.017597 1126.560337 373.21924 1128.180811 372.316181 1129.755546 C 371.413121 1131.323746 370.418447 1132.833139 369.31907 1134.277191 C 368.219693 1135.714708 367.028702 1137.080349 365.752639 1138.367581 C 364.476577 1139.654812 363.121987 1140.850565 361.688871 1141.961374 C 360.255755 1143.072183 358.757199 1144.084979 357.193205 1144.999762 L 304.75031 1175.65155 C 303.186315 1176.566334 301.68776 1177.57913 300.254644 1178.689939 C 298.821527 1179.800748 297.466938 1180.996501 296.184332 1182.283732 C 294.908269 1183.570963 293.723821 1184.936605 292.624445 1186.374122 C 291.525068 1187.818173 290.523849 1189.327566 289.62079 1190.895767 C 288.71773 1192.470502 287.925917 1194.09751 287.232263 1195.770257 C 286.545152 1197.449539 285.962744 1199.161491 285.498127 1200.912648 C 285.026965 1202.663806 284.680138 1204.4411 284.444557 1206.237996 C 284.208976 1208.034893 284.091186 1209.838324 284.091186 1211.648288 " transform="matrix(0.596929,0,0,0.597819,211.445062,225.071694)"/>
</g>
<path style=" stroke:none;fill-rule:nonzero;fill:rgb(100%,100%,100%);fill-opacity:1;" d="M 394.554688 970.152344 C 394.554688 971.027344 394.46875 971.894531 394.296875 972.75 C 394.125 973.609375 393.875 974.441406 393.539062 975.25 C 393.207031 976.058594 392.796875 976.828125 392.3125 977.554688 C 391.824219 978.28125 391.273438 978.953125 390.65625 979.574219 C 390.039062 980.191406 389.367188 980.746094 388.640625 981.230469 C 387.914062 981.71875 387.144531 982.128906 386.339844 982.460938 C 385.53125 982.796875 384.699219 983.050781 383.84375 983.21875 C 382.988281 983.390625 382.121094 983.476562 381.246094 983.476562 C 380.375 983.476562 379.507812 983.390625 378.652344 983.21875 C 377.792969 983.050781 376.960938 982.796875 376.15625 982.460938 C 375.347656 982.128906 374.582031 981.71875 373.855469 981.230469 C 373.128906 980.746094 372.457031 980.191406 371.839844 979.574219 C 371.222656 978.953125 370.667969 978.28125 370.183594 977.554688 C 369.699219 976.828125 369.289062 976.058594 368.953125 975.25 C 368.621094 974.441406 368.367188 973.609375 368.199219 972.75 C 368.027344 971.894531 367.941406 971.027344 367.941406 970.152344 C 367.941406 969.277344 368.027344 968.410156 368.199219 967.550781 C 368.367188 966.691406 368.621094 965.859375 368.953125 965.050781 C 369.289062 964.242188 369.699219 963.476562 370.183594 962.75 C 370.667969 962.019531 371.222656 961.347656 371.839844 960.730469 C 372.457031 960.109375 373.128906 959.558594 373.855469 959.070312 C 374.582031 958.585938 375.347656 958.175781 376.15625 957.839844 C 376.960938 957.503906 377.792969 957.253906 378.652344 957.082031 C 379.507812 956.910156 380.375 956.824219 381.246094 956.824219 C 382.121094 956.824219 382.988281 956.910156 383.84375 957.082031 C 384.699219 957.253906 385.53125 957.503906 386.339844 957.839844 C 387.144531 958.175781 387.914062 958.585938 388.640625 959.070312 C 389.367188 959.558594 390.039062 960.109375 390.65625 960.730469 C 391.273438 961.347656 391.824219 962.019531 392.3125 962.75 C 392.796875 963.476562 393.207031 964.242188 393.539062 965.050781 C 393.875 965.859375 394.125 966.695312 394.296875 967.550781 C 394.46875 968.410156 394.554688 969.277344 394.554688 970.152344 Z M 394.554688 970.152344 "/>
<g clip-path="url(#clip21)" clip-rule="nonzero">
<path style="fill:none;stroke-width:6;stroke-linecap:round;stroke-linejoin:miter;stroke:rgb(100%,69.018555%,0%);stroke-opacity:1;stroke-miterlimit:10;" d="M 306.752746 1246.331659 C 306.752746 1247.795312 306.60878 1249.245898 306.320848 1250.676881 C 306.032916 1252.114398 305.614106 1253.506176 305.05133 1254.858749 C 304.495097 1256.211322 303.807987 1257.498554 302.996542 1258.713909 C 302.178553 1259.929265 301.255862 1261.053142 300.221924 1262.092075 C 299.187986 1263.124473 298.062434 1264.052325 296.845267 1264.862562 C 295.628099 1265.679334 294.338949 1266.365421 292.990904 1266.920826 C 291.636314 1267.482764 290.242461 1267.907485 288.809345 1268.188455 C 287.376229 1268.475958 285.923481 1268.61971 284.457645 1268.61971 C 282.998353 1268.61971 281.545605 1268.475958 280.112489 1268.188455 C 278.672828 1267.907485 277.278976 1267.482764 275.93093 1266.920826 C 274.576341 1266.365421 273.293734 1265.679334 272.076567 1264.862562 C 270.8594 1264.052325 269.733847 1263.124473 268.69991 1262.092075 C 267.665972 1261.053142 266.736737 1259.929265 265.925292 1258.713909 C 265.113847 1257.498554 264.426736 1256.211322 263.86396 1254.858749 C 263.307728 1253.506176 262.882374 1252.114398 262.600985 1250.676881 C 262.313053 1249.245898 262.169087 1247.795312 262.169087 1246.331659 C 262.169087 1244.868005 262.313053 1243.417419 262.600985 1241.979902 C 262.882374 1240.542385 263.307728 1239.150607 263.86396 1237.798034 C 264.426736 1236.445461 265.113847 1235.164763 265.925292 1233.949408 C 266.736737 1232.727518 267.665972 1231.603641 268.69991 1230.571242 C 269.733847 1229.53231 270.8594 1228.610992 272.076567 1227.79422 C 273.293734 1226.983984 274.576341 1226.297896 275.93093 1225.735957 C 277.278976 1225.174019 278.672828 1224.755832 280.112489 1224.468328 C 281.545605 1224.180825 282.998353 1224.037073 284.457645 1224.037073 C 285.923481 1224.037073 287.376229 1224.180825 288.809345 1224.468328 C 290.242461 1224.755832 291.636314 1225.174019 292.990904 1225.735957 C 294.338949 1226.297896 295.628099 1226.983984 296.845267 1227.79422 C 298.062434 1228.610992 299.187986 1229.53231 300.221924 1230.571242 C 301.255862 1231.603641 302.178553 1232.727518 302.996542 1233.949408 C 303.807987 1235.164763 304.495097 1236.445461 305.05133 1237.798034 C 305.614106 1239.150607 306.032916 1240.548919 306.320848 1241.979902 C 306.60878 1243.417419 306.752746 1244.868005 306.752746 1246.331659 Z M 306.752746 1246.331659 " transform="matrix(0.596929,0,0,0.597819,211.445062,225.071694)"/>
</g>
<g clip-path="url(#clip22)" clip-rule="nonzero">
<path style="fill:none;stroke-width:6;stroke-linecap:round;stroke-linejoin:miter;stroke:rgb(100%,69.018555%,0%);stroke-opacity:1;stroke-miterlimit:10;" d="M 263.909767 1220.462883 C 264.58379 1219.789863 265.290532 1219.149515 266.02345 1218.541837 C 266.762912 1217.940693 267.522006 1217.372221 268.313819 1216.842953 C 269.105632 1216.313685 269.923621 1215.830157 270.761241 1215.379299 C 271.598862 1214.928441 272.462658 1214.523323 273.339542 1214.157409 C 274.22297 1213.791496 275.112941 1213.471322 276.029089 1213.196886 C 276.938692 1212.922451 277.861384 1212.687221 278.797163 1212.504265 C 279.726398 1212.321308 280.668721 1212.177556 281.617588 1212.086078 C 282.566455 1211.994599 283.515322 1211.94886 284.464189 1211.94886 C 285.4196 1211.94886 286.368467 1211.994599 287.317334 1212.086078 C 288.259657 1212.177556 289.20198 1212.321308 290.137759 1212.504265 C 291.066994 1212.687221 291.989685 1212.922451 292.905833 1213.196886 C 293.815436 1213.471322 294.711952 1213.791496 295.588836 1214.157409 C 296.46572 1214.523323 297.329516 1214.928441 298.167136 1215.379299 C 299.004757 1215.830157 299.822746 1216.313685 300.614559 1216.842953 C 301.406372 1217.372221 302.172009 1217.940693 302.904927 1218.541837 C 303.644389 1219.149515 304.344587 1219.789863 305.01861 1220.462883 " transform="matrix(0.596929,0,0,0.597819,211.445062,225.071694)"/>
</g>
<g clip-path="url(#clip23)" clip-rule="nonzero">
<path style="fill:none;stroke-width:6;stroke-linecap:round;stroke-linejoin:miter;stroke:rgb(100%,69.018555%,0%);stroke-opacity:1;stroke-miterlimit:10;" d="M 392.000262 869.81976 L 392.000262 1109.003024 C 392.000262 1110.812989 392.118053 1112.61642 392.353633 1114.413316 C 392.589214 1116.210213 392.942585 1117.987507 393.407203 1119.738664 C 393.878364 1121.489822 394.454228 1123.201774 395.147883 1124.881055 C 395.834993 1126.553803 396.63335 1128.180811 397.53641 1129.755546 C 398.43947 1131.323746 399.434144 1132.833139 400.533521 1134.270657 C 401.632898 1135.714708 402.823889 1137.080349 404.099952 1138.367581 C 405.376014 1139.654812 406.730604 1140.850565 408.16372 1141.961374 C 409.596836 1143.072183 411.095392 1144.084979 412.659386 1144.999762 L 465.108825 1175.65155 C 466.672819 1176.566334 468.171375 1177.57913 469.604491 1178.689939 C 471.037607 1179.800748 472.392197 1180.996501 473.668259 1182.283732 C 474.944322 1183.570963 476.135313 1184.936605 477.228146 1186.380656 C 478.327523 1187.818173 479.328741 1189.327566 480.231801 1190.902301 C 481.134861 1192.470502 481.926674 1194.09751 482.620328 1195.770257 C 483.307439 1197.449539 483.889847 1199.161491 484.354464 1200.912648 C 484.819082 1202.663806 485.172453 1204.4411 485.408034 1206.237996 C 485.643615 1208.034893 485.761405 1209.838324 485.761405 1211.648288 " transform="matrix(0.596929,0,0,0.597819,211.445062,225.071694)"/>
</g>
<path style=" stroke:none;fill-rule:nonzero;fill:rgb(100%,100%,100%);fill-opacity:1;" d="M 514.488281 970.152344 C 514.488281 971.027344 514.402344 971.894531 514.230469 972.75 C 514.0625 973.609375 513.808594 974.441406 513.476562 975.25 C 513.140625 976.058594 512.730469 976.828125 512.246094 977.554688 C 511.761719 978.28125 511.207031 978.953125 510.589844 979.574219 C 509.972656 980.191406 509.300781 980.746094 508.574219 981.230469 C 507.847656 981.71875 507.082031 982.128906 506.273438 982.460938 C 505.46875 982.796875 504.636719 983.050781 503.777344 983.21875 C 502.921875 983.390625 502.054688 983.476562 501.183594 983.476562 C 500.308594 983.476562 499.445312 983.390625 498.585938 983.21875 C 497.730469 983.050781 496.898438 982.796875 496.089844 982.460938 C 495.285156 982.128906 494.515625 981.71875 493.789062 981.230469 C 493.0625 980.746094 492.390625 980.191406 491.773438 979.574219 C 491.15625 978.953125 490.605469 978.28125 490.121094 977.554688 C 489.632812 976.828125 489.222656 976.058594 488.890625 975.25 C 488.554688 974.441406 488.304688 973.609375 488.132812 972.75 C 487.960938 971.894531 487.875 971.027344 487.875 970.152344 C 487.875 969.277344 487.960938 968.410156 488.132812 967.550781 C 488.304688 966.691406 488.554688 965.859375 488.890625 965.050781 C 489.222656 964.242188 489.632812 963.476562 490.121094 962.75 C 490.605469 962.019531 491.15625 961.347656 491.773438 960.730469 C 492.390625 960.109375 493.0625 959.558594 493.789062 959.070312 C 494.515625 958.585938 495.285156 958.175781 496.089844 957.839844 C 496.898438 957.503906 497.730469 957.253906 498.585938 957.082031 C 499.445312 956.910156 500.308594 956.824219 501.183594 956.824219 C 502.054688 956.824219 502.921875 956.910156 503.777344 957.082031 C 504.636719 957.253906 505.46875 957.503906 506.273438 957.839844 C 507.082031 958.175781 507.847656 958.585938 508.574219 959.070312 C 509.300781 959.558594 509.972656 960.109375 510.589844 960.730469 C 511.207031 961.347656 511.761719 962.019531 512.246094 962.75 C 512.730469 963.476562 513.140625 964.242188 513.476562 965.050781 C 513.808594 965.859375 514.0625 966.695312 514.230469 967.550781 C 514.402344 968.410156 514.488281 969.277344 514.488281 970.152344 Z M 514.488281 970.152344 "/>
<g clip-path="url(#clip24)" clip-rule="nonzero">
<path style="fill:none;stroke-width:6;stroke-linecap:round;stroke-linejoin:miter;stroke:rgb(100%,69.018555%,0%);stroke-opacity:1;stroke-miterlimit:10;" d="M 507.670416 1246.331659 C 507.670416 1247.795312 507.52645 1249.245898 507.238518 1250.676881 C 506.95713 1252.114398 506.531775 1253.506176 505.975543 1254.858749 C 505.412767 1256.211322 504.725656 1257.498554 503.914211 1258.713909 C 503.102767 1259.929265 502.173531 1261.053142 501.139593 1262.092075 C 500.105656 1263.124473 498.980103 1264.052325 497.762936 1264.862562 C 496.545769 1265.679334 495.263162 1266.365421 493.908573 1266.920826 C 492.560527 1267.482764 491.166675 1267.907485 489.727014 1268.188455 C 488.293898 1268.475958 486.84115 1268.61971 485.381858 1268.61971 C 483.916022 1268.61971 482.469818 1268.475958 481.030158 1268.188455 C 479.597042 1267.907485 478.203189 1267.482764 476.8486 1266.920826 C 475.500554 1266.365421 474.211404 1265.679334 472.994237 1264.862562 C 471.777069 1264.052325 470.651517 1263.124473 469.617579 1262.092075 C 468.583641 1261.053142 467.66095 1259.929265 466.849505 1258.713909 C 466.031516 1257.498554 465.344406 1256.211322 464.788173 1254.858749 C 464.225397 1253.506176 463.806587 1252.114398 463.518655 1250.676881 C 463.230723 1249.245898 463.086757 1247.795312 463.086757 1246.331659 C 463.086757 1244.868005 463.230723 1243.417419 463.518655 1241.979902 C 463.806587 1240.542385 464.225397 1239.150607 464.788173 1237.798034 C 465.344406 1236.445461 466.031516 1235.164763 466.849505 1233.949408 C 467.66095 1232.727518 468.583641 1231.603641 469.617579 1230.571242 C 470.651517 1229.53231 471.777069 1228.610992 472.994237 1227.79422 C 474.211404 1226.983984 475.500554 1226.297896 476.8486 1225.735957 C 478.203189 1225.174019 479.597042 1224.755832 481.030158 1224.468328 C 482.469818 1224.180825 483.916022 1224.037073 485.381858 1224.037073 C 486.84115 1224.037073 488.293898 1224.180825 489.727014 1224.468328 C 491.166675 1224.755832 492.560527 1225.174019 493.908573 1225.735957 C 495.263162 1226.297896 496.545769 1226.983984 497.762936 1227.79422 C 498.980103 1228.610992 500.105656 1229.53231 501.139593 1230.571242 C 502.173531 1231.603641 503.102767 1232.727518 503.914211 1233.949408 C 504.725656 1235.164763 505.412767 1236.445461 505.975543 1237.798034 C 506.531775 1239.150607 506.95713 1240.548919 507.238518 1241.979902 C 507.52645 1243.417419 507.670416 1244.868005 507.670416 1246.331659 Z M 507.670416 1246.331659 " transform="matrix(0.596929,0,0,0.597819,211.445062,225.071694)"/>
</g>
<g clip-path="url(#clip25)" clip-rule="nonzero">
<path style="fill:none;stroke-width:6;stroke-linecap:round;stroke-linejoin:miter;stroke:rgb(100%,69.018555%,0%);stroke-opacity:1;stroke-miterlimit:10;" d="M 505.929736 1220.462883 C 505.255713 1219.789863 504.548971 1219.149515 503.816053 1218.541837 C 503.083135 1217.940693 502.317497 1217.372221 501.525684 1216.842953 C 500.733871 1216.313685 499.915882 1215.830157 499.078262 1215.379299 C 498.240641 1214.928441 497.376845 1214.523323 496.499961 1214.157409 C 495.616533 1213.791496 494.726562 1213.471322 493.810414 1213.196886 C 492.900811 1212.922451 491.978119 1212.687221 491.048884 1212.504265 C 490.113105 1212.321308 489.170782 1212.177556 488.221915 1212.086078 C 487.279592 1211.994599 486.324181 1211.94886 485.375314 1211.94886 C 484.419903 1211.94886 483.471036 1211.994599 482.528713 1212.086078 C 481.579846 1212.177556 480.637523 1212.321308 479.701744 1212.504265 C 478.772509 1212.687221 477.849818 1212.922451 476.93367 1213.196886 C 476.024067 1213.471322 475.127551 1213.791496 474.250667 1214.157409 C 473.373783 1214.523323 472.509987 1214.928441 471.672367 1215.379299 C 470.834746 1215.830157 470.016757 1216.313685 469.224944 1216.842953 C 468.433131 1217.372221 467.667494 1217.940693 466.934576 1218.541837 C 466.195114 1219.149515 465.494916 1219.789863 464.820893 1220.462883 " transform="matrix(0.596929,0,0,0.597819,211.445062,225.071694)"/>
</g>
</g>
</svg>
