<?xml version="1.0" encoding="UTF-8"?>
<svg xmlns="http://www.w3.org/2000/svg" xmlns:xlink="http://www.w3.org/1999/xlink" width="500pt" height="432pt" viewBox="0 0 500 432" version="1.1">
<defs>
<clipPath id="clip1">
  <path d="M 360.242188 147.714844 L 451.5 147.714844 L 451.5 235.964844 L 360.242188 235.964844 Z M 360.242188 147.714844 "/>
</clipPath>
<clipPath id="clip2">
  <path d="M 380.785156 88.03125 L 405.09375 88.03125 L 405.09375 118.488281 L 380.785156 118.488281 Z M 380.785156 88.03125 "/>
</clipPath>
<clipPath id="clip3">
  <path d="M 382.234375 88.03125 L 405.09375 88.03125 L 405.09375 106 L 382.234375 106 Z M 382.234375 88.03125 "/>
</clipPath>
<clipPath id="clip4">
  <path d="M 295.46875 189.957031 L 391 189.957031 L 391 197.769531 L 295.46875 197.769531 Z M 295.46875 189.957031 "/>
</clipPath>
<clipPath id="clip5">
  <path d="M 295.46875 175.492188 L 405.382812 175.492188 L 405.382812 212 L 295.46875 212 Z M 295.46875 175.492188 "/>
</clipPath>
<clipPath id="clip6">
  <path d="M 368.054688 197.480469 L 375.578125 197.480469 L 375.578125 315.597656 L 368.054688 315.597656 Z M 368.054688 197.480469 "/>
</clipPath>
<clipPath id="clip7">
  <path d="M 367.476562 197.191406 L 376.15625 197.191406 L 376.15625 315.597656 L 367.476562 315.597656 Z M 367.476562 197.191406 "/>
</clipPath>
<clipPath id="clip8">
  <path d="M 132.234375 291.808594 L 186 291.808594 L 186 315.847656 L 132.234375 315.847656 Z M 132.234375 291.808594 "/>
</clipPath>
<clipPath id="clip9">
  <path d="M 144.386719 289.207031 L 177.371094 289.207031 L 177.371094 315.847656 L 144.386719 315.847656 Z M 144.386719 289.207031 "/>
</clipPath>
<clipPath id="clip10">
  <path d="M 142.652344 287.179688 L 176.214844 287.179688 L 176.214844 315.847656 L 142.652344 315.847656 Z M 142.652344 287.179688 "/>
</clipPath>
<clipPath id="clip11">
  <path d="M 156.539062 293 L 201.105469 293 L 201.105469 315.847656 L 156.539062 315.847656 Z M 156.539062 293 "/>
</clipPath>
<clipPath id="clip12">
  <path d="M 170.429688 290.652344 L 201.105469 290.652344 L 201.105469 315.847656 L 170.429688 315.847656 Z M 170.429688 290.652344 "/>
</clipPath>
<clipPath id="clip13">
  <path d="M 168.691406 288.339844 L 200.519531 288.339844 L 200.519531 315.847656 L 168.691406 315.847656 Z M 168.691406 288.339844 "/>
</clipPath>
<clipPath id="clip14">
  <path d="M 83.621094 93.625 L 118.34375 93.625 L 118.34375 128.328125 L 83.621094 128.328125 Z M 83.621094 93.625 "/>
</clipPath>
<clipPath id="clip15">
  <path d="M 148.148438 129.195312 L 201.105469 129.195312 L 201.105469 194.296875 L 148.148438 194.296875 Z M 148.148438 129.195312 "/>
</clipPath>
<clipPath id="clip16">
  <path d="M 160.300781 144.53125 L 201.105469 144.53125 L 201.105469 182.144531 L 160.300781 182.144531 Z M 160.300781 144.53125 "/>
</clipPath>
<clipPath id="clip17">
  <path d="M 148.148438 132.378906 L 201.105469 132.378906 L 201.105469 194.296875 L 148.148438 194.296875 Z M 148.148438 132.378906 "/>
</clipPath>
<clipPath id="clip18">
  <path d="M 61.183594 155 L 164.929688 155 L 164.929688 259.691406 L 61.183594 259.691406 Z M 61.183594 155 "/>
</clipPath>
<clipPath id="clip19">
  <path d="M 61.183594 183.59375 L 137.730469 183.59375 L 137.730469 257.957031 L 61.183594 257.957031 Z M 61.183594 183.59375 "/>
</clipPath>
<clipPath id="clip20">
  <path d="M 95.484375 228.730469 L 141.203125 228.730469 L 141.203125 315.847656 L 95.484375 315.847656 Z M 95.484375 228.730469 "/>
</clipPath>
<clipPath id="clip21">
  <path d="M 91.722656 290.652344 L 129 290.652344 L 129 315.847656 L 91.722656 315.847656 Z M 91.722656 290.652344 "/>
</clipPath>
<clipPath id="clip22">
  <path d="M 92.015625 288.339844 L 128.761719 288.339844 L 128.761719 315.847656 L 92.015625 315.847656 Z M 92.015625 288.339844 "/>
</clipPath>
<clipPath id="clip23">
  <path d="M 114.003906 229.308594 L 160 229.308594 L 160 315.847656 L 114.003906 315.847656 Z M 114.003906 229.308594 "/>
</clipPath>
<clipPath id="clip24">
  <path d="M 126.445312 290.652344 L 163.773438 290.652344 L 163.773438 315.847656 L 126.445312 315.847656 Z M 126.445312 290.652344 "/>
</clipPath>
<clipPath id="clip25">
  <path d="M 126.734375 288.339844 L 163.484375 288.339844 L 163.484375 315.847656 L 126.734375 315.847656 Z M 126.734375 288.339844 "/>
</clipPath>
</defs>
<g id="surface1">
<path style="fill-rule:nonzero;fill:rgb(100%,100%,100%);fill-opacity:1;stroke-width:5;stroke-linecap:butt;stroke-linejoin:round;stroke:rgb(24.705882%,30.196078%,56.470588%);stroke-opacity:1;stroke-miterlimit:4;" d="M 345.041365 843.200566 L 750.571401 843.200566 L 750.571401 867.869893 L 345.041365 867.869893 Z M 345.041365 843.200566 " transform="matrix(0.169136,0,0,0.168795,295.469111,88.035125)"/>
<path style=" stroke:none;fill-rule:nonzero;fill:rgb(100%,100%,100%);fill-opacity:1;" d="M 431.417969 221.417969 C 431.417969 183.148438 450.460938 162.089844 450.460938 162.089844 L 393.855469 162.089844 C 393.855469 162.089844 374.8125 183.148438 374.8125 221.417969 Z M 431.417969 221.417969 "/>
<g clip-path="url(#clip1)" clip-rule="nonzero">
<path style="fill:none;stroke-width:6;stroke-linecap:butt;stroke-linejoin:miter;stroke:rgb(84.705882%,72.941176%,63.921569%);stroke-opacity:1;stroke-miterlimit:10;" d="M 803.782928 790.205483 C 803.782928 563.483721 916.372423 438.725426 916.372423 438.725426 L 581.698708 438.725426 C 581.698708 438.725426 469.109213 563.483721 469.109213 790.205483 Z M 803.782928 790.205483 " transform="matrix(0.169136,0,0,0.168795,295.469111,88.035125)"/>
</g>
<path style="fill-rule:nonzero;fill:rgb(100%,100%,100%);fill-opacity:1;stroke-width:6;stroke-linecap:butt;stroke-linejoin:miter;stroke:rgb(84.705882%,72.941176%,63.921569%);stroke-opacity:1;stroke-miterlimit:10;" d="M 348.34399 790.205483 L 803.782928 790.205483 C 803.782928 791.94113 803.713642 793.653634 803.52888 795.389281 C 803.367213 797.124928 803.113165 798.837433 802.766736 800.549938 C 802.443402 802.239301 802.004592 803.928664 801.519591 805.594885 C 801.011495 807.237964 800.411017 808.881043 799.764349 810.477838 C 799.094586 812.074633 798.355537 813.648286 797.524107 815.175655 C 796.715772 816.703024 795.815056 818.207252 794.845055 819.642053 C 793.898148 821.076855 792.85886 822.488514 791.750287 823.830748 C 790.664809 825.172981 789.486949 826.445789 788.2629 827.672313 C 787.03885 828.898836 785.745514 830.079076 784.405988 831.166748 C 783.066461 832.277562 781.680745 833.295808 780.225742 834.267771 C 778.793834 835.239733 777.315736 836.119127 775.768353 836.952238 C 774.244064 837.762206 772.673585 838.502749 771.080011 839.173866 C 769.463341 839.82184 767.846671 840.423531 766.183811 840.909512 C 764.520951 841.418636 762.834995 841.835191 761.125945 842.18232 C 759.439989 842.52945 757.707843 842.784011 755.975697 842.946005 C 754.266646 843.107998 752.5345 843.200566 750.779259 843.200566 L 295.34032 843.200566 C 295.34032 841.464919 295.432701 839.729273 295.594368 838.016768 C 295.756035 836.281121 296.010083 834.568616 296.356512 832.856111 C 296.702942 831.166748 297.118657 829.477385 297.626753 827.811164 C 298.134849 826.144943 298.712231 824.525006 299.381994 822.928211 C 300.028662 821.308274 300.767711 819.734621 301.599141 818.230394 C 302.407476 816.679883 303.308192 815.198797 304.278194 813.763996 C 305.2251 812.306052 306.264388 810.917535 307.372961 809.575301 C 308.481535 808.233068 309.636299 806.96026 310.860349 805.733736 C 312.084399 804.507213 313.377734 803.326973 314.717261 802.239301 C 316.056787 801.128487 317.442504 800.110241 318.897507 799.138278 C 320.329414 798.166316 321.830607 797.26378 323.354896 796.453811 C 324.879184 795.643843 326.449663 794.9033 328.066333 794.232183 C 329.659907 793.561067 331.299672 792.982518 332.962533 792.473395 C 334.602298 791.987413 336.288253 791.547716 337.997304 791.223729 C 339.706355 790.876599 341.415405 790.622038 343.147551 790.460044 C 344.879698 790.274909 346.611844 790.205483 348.34399 790.205483 Z M 348.34399 790.205483 " transform="matrix(0.169136,0,0,0.168795,295.469111,88.035125)"/>
<path style="fill-rule:nonzero;fill:rgb(100%,100%,100%);fill-opacity:1;stroke-width:5;stroke-linecap:butt;stroke-linejoin:round;stroke:rgb(24.705882%,30.196078%,56.470588%);stroke-opacity:1;stroke-miterlimit:4;" d="M 746.391155 1337.998768 C 745.721392 1337.998768 745.074724 1337.883059 744.451152 1337.651639 C 743.827579 1337.443361 743.273292 1337.119374 742.742101 1336.702819 C 742.234005 1336.263122 741.81829 1335.77714 741.471861 1335.198592 C 741.148527 1334.643185 740.894479 1334.018352 740.779002 1333.370377 L 651.677409 867.869893 L 702.741075 867.869893 L 752.072594 1331.681014 C 752.118785 1332.074427 752.118785 1332.46784 752.072594 1332.884396 C 752.026404 1333.277809 751.957118 1333.671222 751.818546 1334.041494 C 751.70307 1334.434907 751.541403 1334.782036 751.333545 1335.129166 C 751.148783 1335.476295 750.91783 1335.800282 750.640687 1336.101128 C 750.363544 1336.401973 750.063305 1336.679677 749.763066 1336.911096 C 749.416637 1337.142516 749.093303 1337.350794 748.723779 1337.512787 C 748.354254 1337.674781 747.961634 1337.790491 747.59211 1337.883059 C 747.176395 1337.952485 746.783775 1337.998768 746.391155 1337.998768 Z M 746.391155 1337.998768 " transform="matrix(0.169136,0,0,0.168795,295.469111,88.035125)"/>
<path style="fill-rule:nonzero;fill:rgb(100%,100%,100%);fill-opacity:1;stroke-width:5;stroke-linecap:butt;stroke-linejoin:round;stroke:rgb(24.705882%,30.196078%,56.470588%);stroke-opacity:1;stroke-miterlimit:4;" d="M 350.076136 1337.998768 C 350.745899 1337.998768 351.392567 1337.883059 352.016139 1337.651639 C 352.639712 1337.443361 353.193999 1337.119374 353.72519 1336.702819 C 354.233286 1336.263122 354.649001 1335.77714 354.995431 1335.198592 C 355.318764 1334.643185 355.572813 1334.018352 355.688289 1333.370377 L 444.789883 867.869893 L 393.726217 867.869893 L 344.394697 1331.681014 C 344.348506 1332.074427 344.348506 1332.46784 344.394697 1332.884396 C 344.440887 1333.277809 344.533268 1333.671222 344.648745 1334.041494 C 344.764221 1334.434907 344.925888 1334.782036 345.133746 1335.129166 C 345.318508 1335.476295 345.549461 1335.800282 345.826604 1336.101128 C 346.103747 1336.401973 346.403986 1336.679677 346.704225 1336.911096 C 347.050654 1337.142516 347.397083 1337.350794 347.743512 1337.512787 C 348.113037 1337.674781 348.505657 1337.790491 348.898276 1337.883059 C 349.290896 1337.952485 349.683516 1337.998768 350.076136 1337.998768 Z M 350.076136 1337.998768 " transform="matrix(0.169136,0,0,0.168795,295.469111,88.035125)"/>
<path style=" stroke:none;fill-rule:nonzero;fill:rgb(100%,69.019608%,0%);fill-opacity:1;" d="M 337.886719 186.039062 C 361.058594 191.609375 372.667969 185.335938 374.773438 181.507812 C 374.773438 181.507812 373.613281 174.320312 374.46875 163.175781 C 375.324219 152.035156 373.523438 127.082031 373.523438 127.082031 C 368.417969 129.039062 360.945312 132.175781 358.722656 138.710938 C 356.5 145.242188 356.148438 163.140625 356.015625 170.789062 C 356.015625 170.789062 344.128906 174.859375 338.800781 177.636719 C 338.503906 177.792969 338.238281 177.988281 338.003906 178.226562 C 337.765625 178.464844 337.574219 178.730469 337.421875 179.03125 C 337.269531 179.328125 337.167969 179.640625 337.117188 179.972656 C 337.0625 180.300781 337.058594 180.632812 337.109375 180.964844 Z M 337.886719 186.039062 "/>
<path style="fill:none;stroke-width:5;stroke-linecap:butt;stroke-linejoin:round;stroke:rgb(100%,100%,100%);stroke-opacity:1;stroke-miterlimit:4;" d="M 386.012393 490.262566 C 386.012393 490.262566 372.339986 484.847348 345.226127 490.841115 " transform="matrix(0.169136,0,0,0.168795,295.469111,88.035125)"/>
<path style=" stroke:none;fill-rule:nonzero;fill:rgb(76.470588%,43.529412%,4.313725%);fill-opacity:1;" d="M 339.1875 181.960938 C 339.25 182.351562 339.257812 182.742188 339.214844 183.128906 C 339.167969 183.519531 339.070312 183.898438 338.917969 184.261719 C 338.769531 184.625 338.570312 184.960938 338.324219 185.269531 C 338.082031 185.578125 337.800781 185.84375 337.480469 186.074219 L 337.214844 186.261719 C 335.398438 187.511719 331.917969 188.523438 331.09375 188.46875 C 330.265625 188.410156 325.191406 187.476562 325.191406 187.476562 C 325.191406 187.476562 325.011719 186.785156 325.753906 185.875 C 326.496094 184.964844 331.9375 185.6875 329.945312 183.691406 C 329.0625 182.804688 324.65625 184.804688 322.742188 187.027344 C 320.824219 189.25 319.914062 187.488281 319.914062 187.488281 C 319.914062 187.488281 321.75 183.375 322.402344 182.628906 C 323.058594 181.882812 327.433594 178.722656 330.394531 178.242188 C 331.804688 178.011719 333.785156 178.140625 335.753906 178.484375 C 335.96875 178.519531 336.179688 178.574219 336.386719 178.644531 C 336.59375 178.714844 336.792969 178.800781 336.984375 178.902344 C 337.179688 179.003906 337.363281 179.117188 337.535156 179.246094 C 337.710938 179.378906 337.875 179.519531 338.027344 179.675781 C 338.183594 179.828125 338.320312 179.996094 338.449219 180.171875 C 338.574219 180.351562 338.6875 180.535156 338.785156 180.726562 C 338.886719 180.921875 338.96875 181.125 339.035156 181.332031 C 339.101562 181.539062 339.152344 181.746094 339.1875 181.960938 Z M 339.1875 181.960938 "/>
<path style=" stroke:none;fill-rule:nonzero;fill:rgb(76.470588%,43.529412%,4.313725%);fill-opacity:1;" d="M 351.863281 306.59375 C 353.734375 306.171875 356.320312 305.265625 357.761719 303.363281 L 358.578125 298.953125 C 358.578125 298.953125 353.199219 299.566406 348.285156 299.097656 L 349.238281 304.863281 C 349.265625 305.007812 349.304688 305.148438 349.359375 305.285156 C 349.414062 305.421875 349.484375 305.550781 349.5625 305.671875 C 349.644531 305.796875 349.738281 305.90625 349.839844 306.011719 C 349.945312 306.113281 350.058594 306.207031 350.179688 306.289062 C 350.304688 306.371094 350.433594 306.4375 350.570312 306.492188 C 350.707031 306.546875 350.847656 306.585938 350.992188 306.613281 C 351.136719 306.640625 351.28125 306.652344 351.425781 306.648438 C 351.574219 306.644531 351.71875 306.628906 351.863281 306.59375 Z M 351.863281 306.59375 "/>
<path style=" stroke:none;fill-rule:nonzero;fill:rgb(100%,69.019608%,0%);fill-opacity:1;" d="M 329.972656 311.992188 C 330 312.316406 330.59375 313.882812 330.59375 313.882812 L 360.847656 312.859375 L 360.847656 311.171875 C 360.847656 308.34375 359.882812 305.90625 359.375 304.847656 C 358.589844 303.210938 357.5 303.617188 357.5 303.617188 C 357.5 303.617188 354.542969 306.503906 351.222656 306.503906 C 350.585938 306.503906 350.128906 306.167969 349.800781 305.675781 C 349.601562 305.367188 349.449219 305.039062 349.347656 304.691406 C 349.207031 304.238281 349.109375 303.777344 349.054688 303.308594 C 349.042969 303.210938 349.019531 303.113281 348.980469 303.019531 C 348.945312 302.925781 348.902344 302.839844 348.84375 302.753906 C 348.785156 302.671875 348.722656 302.601562 348.644531 302.53125 C 348.570312 302.464844 348.488281 302.410156 348.402344 302.363281 C 348.3125 302.316406 348.21875 302.28125 348.121094 302.257812 C 348.023438 302.234375 347.925781 302.21875 347.824219 302.21875 C 347.726562 302.21875 347.625 302.230469 347.53125 302.253906 C 347.433594 302.277344 347.339844 302.3125 347.25 302.359375 C 345.945312 303.03125 344.367188 304.519531 340.128906 306.804688 C 339.917969 306.917969 339.699219 307.035156 339.472656 307.15625 C 334.324219 309.859375 330.03125 308.851562 329.972656 311.992188 Z M 329.972656 311.992188 "/>
<path style=" stroke:none;fill-rule:nonzero;fill:rgb(24.705882%,30.196078%,47.45098%);fill-opacity:1;" d="M 333.378906 315.375 C 332.5 315.375 331.433594 314.980469 330.859375 314.339844 C 330.679688 314.128906 330.527344 313.90625 330.402344 313.660156 C 330.277344 313.417969 330.175781 313.164062 330.109375 312.898438 C 330.042969 312.632812 330.003906 312.363281 329.996094 312.089844 C 329.992188 311.816406 330.015625 311.542969 330.074219 311.273438 L 330.097656 311.273438 C 330.125 311.433594 330.167969 311.585938 330.226562 311.738281 C 330.28125 311.890625 330.351562 312.035156 330.433594 312.175781 C 330.515625 312.316406 330.605469 312.445312 330.710938 312.570312 C 330.816406 312.691406 330.929688 312.808594 331.050781 312.910156 C 331.175781 313.015625 331.308594 313.109375 331.445312 313.191406 C 331.585938 313.273438 331.730469 313.34375 331.882812 313.398438 C 332.03125 313.457031 332.1875 313.5 332.34375 313.53125 C 332.503906 313.5625 332.664062 313.582031 332.824219 313.582031 L 359.054688 312.816406 C 359.867188 312.816406 360.5625 312.253906 360.847656 311.46875 L 360.847656 313.226562 C 360.847656 314.417969 359.984375 315.378906 358.917969 315.378906 Z M 333.378906 315.375 "/>
<path style=" stroke:none;fill-rule:nonzero;fill:rgb(24.705882%,30.196078%,47.45098%);fill-opacity:1;" d="M 338.992188 307.402344 C 339.378906 307.46875 339.753906 307.566406 340.125 307.691406 C 340.5 307.8125 340.859375 307.957031 341.210938 308.132812 C 341.558594 308.304688 341.894531 308.5 342.21875 308.722656 C 342.539062 308.941406 342.847656 309.183594 343.136719 309.445312 C 343.425781 309.710938 343.695312 309.992188 343.941406 310.292969 C 344.191406 310.59375 344.417969 310.910156 344.621094 311.242188 C 344.828125 311.574219 345.007812 311.917969 345.164062 312.277344 C 345.320312 312.632812 345.449219 313 345.554688 313.378906 L 346.761719 313.335938 C 346.667969 312.945312 346.546875 312.566406 346.402344 312.195312 C 346.261719 311.820312 346.09375 311.457031 345.90625 311.105469 C 345.714844 310.753906 345.503906 310.414062 345.273438 310.089844 C 345.042969 309.765625 344.789062 309.453125 344.519531 309.160156 C 344.25 308.867188 343.960938 308.589844 343.65625 308.332031 C 343.351562 308.074219 343.03125 307.839844 342.695312 307.621094 C 342.359375 307.402344 342.011719 307.207031 341.652344 307.035156 C 341.289062 306.859375 340.921875 306.710938 340.542969 306.582031 L 340.132812 306.804688 C 339.921875 306.917969 339.703125 307.035156 339.476562 307.15625 C 339.316406 307.242188 339.152344 307.324219 338.992188 307.402344 Z M 338.992188 307.402344 "/>
<path style=" stroke:none;fill-rule:nonzero;fill:rgb(24.705882%,30.196078%,47.45098%);fill-opacity:1;" d="M 336 308.558594 L 336 308.714844 C 336.382812 308.71875 336.765625 308.742188 337.140625 308.800781 C 337.519531 308.855469 337.894531 308.9375 338.261719 309.046875 C 338.625 309.15625 338.984375 309.292969 339.332031 309.453125 C 339.675781 309.613281 340.011719 309.800781 340.332031 310.007812 C 340.652344 310.21875 340.953125 310.449219 341.242188 310.703125 C 341.527344 310.953125 341.792969 311.226562 342.039062 311.519531 C 342.289062 311.808594 342.511719 312.117188 342.714844 312.445312 C 342.914062 312.769531 343.09375 313.105469 343.246094 313.453125 L 344.5 313.410156 C 344.238281 312.71875 343.898438 312.070312 343.476562 311.460938 C 343.054688 310.855469 342.570312 310.304688 342.015625 309.816406 C 341.457031 309.324219 340.851562 308.910156 340.195312 308.570312 C 339.539062 308.226562 338.851562 307.96875 338.132812 307.792969 C 337.433594 308.085938 336.722656 308.339844 336 308.558594 Z M 336 308.558594 "/>
<path style=" stroke:none;fill-rule:nonzero;fill:rgb(76.470588%,43.529412%,4.313725%);fill-opacity:1;" d="M 388.617188 306.59375 C 390.488281 306.171875 392.90625 305.265625 394.347656 303.363281 L 394.828125 298.589844 C 394.828125 298.589844 389.78125 299.027344 384.871094 298.558594 L 385.996094 304.863281 C 386.023438 305.007812 386.0625 305.148438 386.117188 305.285156 C 386.171875 305.421875 386.242188 305.550781 386.320312 305.671875 C 386.402344 305.796875 386.496094 305.90625 386.597656 306.011719 C 386.703125 306.113281 386.816406 306.207031 386.9375 306.289062 C 387.058594 306.371094 387.191406 306.4375 387.324219 306.492188 C 387.460938 306.546875 387.601562 306.585938 387.746094 306.613281 C 387.890625 306.640625 388.039062 306.652344 388.183594 306.648438 C 388.332031 306.644531 388.476562 306.628906 388.617188 306.59375 Z M 388.617188 306.59375 "/>
<path style=" stroke:none;fill-rule:nonzero;fill:rgb(100%,75.294118%,20%);fill-opacity:1;" d="M 368.441406 311.992188 C 368.46875 312.316406 369.0625 313.882812 369.0625 313.882812 L 397.605469 312.859375 L 397.605469 311.171875 C 397.605469 308.34375 396.644531 305.90625 396.136719 304.847656 C 395.347656 303.210938 394.261719 303.277344 394.261719 303.277344 C 394.261719 303.277344 391.300781 306.503906 387.984375 306.503906 C 387.34375 306.503906 386.886719 306.167969 386.558594 305.675781 C 386.363281 305.367188 386.210938 305.042969 386.105469 304.691406 C 385.96875 304.238281 385.871094 303.777344 385.816406 303.308594 C 385.800781 303.210938 385.777344 303.113281 385.742188 303.019531 C 385.707031 302.925781 385.660156 302.839844 385.601562 302.753906 C 385.546875 302.671875 385.480469 302.601562 385.40625 302.53125 C 385.328125 302.464844 385.25 302.410156 385.160156 302.363281 C 385.070312 302.316406 384.976562 302.28125 384.882812 302.257812 C 384.785156 302.234375 384.683594 302.222656 384.585938 302.21875 C 384.484375 302.21875 384.386719 302.230469 384.289062 302.253906 C 384.191406 302.277344 384.097656 302.3125 384.007812 302.359375 C 382.707031 303.03125 382.835938 304.519531 378.597656 306.804688 C 378.386719 306.917969 378.164062 307.035156 377.9375 307.15625 C 372.789062 309.859375 368.496094 308.851562 368.441406 311.992188 Z M 368.441406 311.992188 "/>
<path style=" stroke:none;fill-rule:nonzero;fill:rgb(24.705882%,30.196078%,47.45098%);fill-opacity:1;" d="M 371.84375 315.375 C 370.96875 315.375 369.898438 314.980469 369.324219 314.339844 C 369.148438 314.128906 368.996094 313.90625 368.867188 313.660156 C 368.742188 313.417969 368.644531 313.164062 368.578125 312.898438 C 368.507812 312.632812 368.472656 312.363281 368.464844 312.089844 C 368.460938 311.816406 368.484375 311.542969 368.539062 311.273438 L 368.5625 311.273438 C 368.59375 311.433594 368.636719 311.585938 368.691406 311.738281 C 368.75 311.890625 368.820312 312.035156 368.898438 312.175781 C 368.980469 312.316406 369.074219 312.445312 369.179688 312.570312 C 369.28125 312.691406 369.394531 312.808594 369.519531 312.910156 C 369.640625 313.015625 369.773438 313.109375 369.914062 313.191406 C 370.050781 313.273438 370.195312 313.34375 370.347656 313.398438 C 370.5 313.457031 370.652344 313.5 370.8125 313.53125 C 370.972656 313.5625 371.132812 313.582031 371.292969 313.582031 L 395.816406 312.816406 C 396.632812 312.816406 397.328125 312.253906 397.609375 311.46875 L 397.609375 313.226562 C 397.609375 314.417969 396.746094 315.378906 395.679688 315.378906 Z M 371.84375 315.375 "/>
<path style=" stroke:none;fill-rule:nonzero;fill:rgb(24.705882%,30.196078%,47.45098%);fill-opacity:1;" d="M 377.460938 307.402344 C 377.84375 307.46875 378.222656 307.566406 378.59375 307.691406 C 378.964844 307.8125 379.324219 307.957031 379.675781 308.132812 C 380.023438 308.304688 380.363281 308.5 380.683594 308.722656 C 381.007812 308.941406 381.3125 309.183594 381.601562 309.445312 C 381.890625 309.710938 382.160156 309.992188 382.410156 310.292969 C 382.65625 310.59375 382.886719 310.910156 383.089844 311.242188 C 383.292969 311.574219 383.472656 311.917969 383.628906 312.277344 C 383.785156 312.632812 383.914062 313 384.019531 313.378906 L 385.226562 313.335938 C 385.132812 312.945312 385.011719 312.566406 384.871094 312.195312 C 384.726562 311.820312 384.5625 311.457031 384.371094 311.105469 C 384.183594 310.753906 383.972656 310.414062 383.742188 310.089844 C 383.507812 309.765625 383.257812 309.453125 382.988281 309.160156 C 382.714844 308.867188 382.429688 308.589844 382.121094 308.332031 C 381.816406 308.074219 381.496094 307.839844 381.160156 307.621094 C 380.824219 307.402344 380.476562 307.207031 380.117188 307.035156 C 379.757812 306.859375 379.386719 306.710938 379.007812 306.582031 L 378.601562 306.804688 C 378.386719 306.917969 378.167969 307.035156 377.941406 307.15625 C 377.78125 307.242188 377.621094 307.324219 377.460938 307.402344 Z M 377.460938 307.402344 "/>
<path style=" stroke:none;fill-rule:nonzero;fill:rgb(24.705882%,30.196078%,47.45098%);fill-opacity:1;" d="M 374.46875 308.558594 L 374.46875 308.714844 C 374.851562 308.71875 375.230469 308.742188 375.609375 308.800781 C 375.988281 308.855469 376.359375 308.9375 376.726562 309.046875 C 377.09375 309.15625 377.449219 309.292969 377.796875 309.453125 C 378.144531 309.613281 378.476562 309.800781 378.796875 310.007812 C 379.117188 310.21875 379.421875 310.449219 379.707031 310.703125 C 379.992188 310.953125 380.261719 311.226562 380.507812 311.519531 C 380.753906 311.808594 380.976562 312.117188 381.179688 312.445312 C 381.382812 312.769531 381.558594 313.105469 381.714844 313.453125 L 382.96875 313.410156 C 382.707031 312.71875 382.363281 312.070312 381.941406 311.460938 C 381.523438 310.855469 381.035156 310.304688 380.480469 309.816406 C 379.925781 309.324219 379.320312 308.910156 378.664062 308.570312 C 378.007812 308.226562 377.316406 307.96875 376.597656 307.792969 C 375.902344 308.085938 375.191406 308.339844 374.46875 308.558594 Z M 374.46875 308.558594 "/>
<path style=" stroke:none;fill-rule:nonzero;fill:rgb(84.705882%,72.941176%,63.921569%);fill-opacity:1;" d="M 396.386719 229.992188 C 396.386719 229.992188 408.597656 247.351562 397.878906 298.015625 C 397.878906 298.015625 392.261719 299.894531 383.308594 298.523438 C 383.308594 298.523438 371.191406 249.257812 369.539062 227.914062 C 366.566406 227.824219 363.488281 227.773438 360.3125 227.773438 C 360.3125 227.773438 373.121094 253.898438 360.6875 298.941406 C 360.6875 298.941406 351.53125 299.59375 346.714844 298.90625 C 346.714844 298.90625 331.933594 225.265625 332.890625 218.417969 C 334.03125 210.175781 360.046875 199.652344 376.414062 198.167969 L 413.042969 197.941406 C 413.042969 197.941406 422.429688 207.394531 418.511719 220.804688 C 415.574219 230.867188 396.386719 229.992188 396.386719 229.992188 Z M 396.386719 229.992188 "/>
<path style=" stroke:none;fill-rule:nonzero;fill:rgb(94.117647%,88.235294%,83.137255%);fill-opacity:1;" d="M 415.710938 201.414062 C 415.832031 201.777344 416.011719 202.105469 416.25 202.402344 C 416.25 202.402344 384.152344 213.308594 370.644531 199.589844 C 385.320312 204.714844 409.40625 202.203125 415.710938 201.414062 Z M 415.710938 201.414062 "/>
<path style=" stroke:none;fill-rule:nonzero;fill:rgb(100%,69.019608%,0%);fill-opacity:1;" d="M 402.164062 118.203125 C 403.832031 119.570312 424.382812 131.457031 427.328125 133.089844 C 430.273438 134.726562 413.59375 170.585938 414.109375 183.382812 C 414.496094 192.875 417.109375 201.210938 417.109375 201.210938 C 417.109375 201.210938 387.664062 205.535156 370.644531 199.589844 C 370.644531 199.589844 374.179688 194.355469 372.214844 183.519531 C 370.625 174.726562 367.386719 150.320312 368.289062 140.929688 C 368.617188 137.53125 369.207031 129.105469 373.53125 127.082031 C 380.078125 124.011719 384.59375 121.339844 384.59375 121.339844 Z M 402.164062 118.203125 "/>
<path style="fill:none;stroke-width:5;stroke-linecap:butt;stroke-linejoin:round;stroke:rgb(100%,100%,100%);stroke-opacity:1;stroke-miterlimit:4;" d="M 453.750852 568.690662 C 444.351072 516.598114 425.759371 413.47755 439.639635 343.681405 " transform="matrix(0.169136,0,0,0.168795,295.469111,88.035125)"/>
<path style=" stroke:none;fill-rule:nonzero;fill:rgb(100%,69.019608%,0%);fill-opacity:1;" d="M 427.328125 133.191406 C 436.101562 140.898438 436.9375 172.753906 431.386719 178.554688 C 420.523438 189.921875 387.726562 189.792969 387.726562 189.792969 C 387.726562 189.792969 384.292969 189.300781 386.257812 181.332031 C 386.257812 181.332031 410.574219 169.078125 412.929688 169.148438 C 412.929688 169.148438 412.535156 146.417969 417.511719 139.625 C 422.484375 132.832031 426.296875 132.285156 427.328125 133.191406 Z M 427.328125 133.191406 "/>
<path style="fill:none;stroke-width:5;stroke-linecap:round;stroke-linejoin:round;stroke:rgb(100%,100%,100%);stroke-opacity:1;stroke-miterlimit:4;" d="M 706.644177 586.88024 C 630.522131 606.226917 545.462212 603.88958 545.462212 603.88958 " transform="matrix(0.169136,0,0,0.168795,295.469111,88.035125)"/>
<path style="fill:none;stroke-width:5;stroke-linecap:butt;stroke-linejoin:round;stroke:rgb(100%,100%,100%);stroke-opacity:1;stroke-miterlimit:4;" d="M 536.778386 551.704464 C 536.778386 551.704464 613.200671 508.799274 694.472964 479.54784 C 694.472964 479.54784 697.844875 376.334707 706.413224 346.065026 " transform="matrix(0.169136,0,0,0.168795,295.469111,88.035125)"/>
<path style=" stroke:none;fill-rule:nonzero;fill:rgb(76.470588%,43.529412%,4.313725%);fill-opacity:1;" d="M 386.761719 181.210938 C 386.761719 181.210938 379.417969 178.441406 377.046875 179.835938 C 374.449219 181.351562 369.644531 186.210938 369.363281 187.027344 C 369.082031 187.84375 369.167969 188.695312 369.21875 189.574219 C 369.269531 190.449219 378.066406 190.4375 379.109375 190.375 C 380.148438 190.3125 385.859375 190.929688 386.824219 189.886719 C 390.367188 186.054688 386.761719 181.210938 386.761719 181.210938 Z M 386.761719 181.210938 "/>
<path style=" stroke:none;fill-rule:nonzero;fill:rgb(71.372549%,35.294118%,9.411765%);fill-opacity:1;" d="M 400.691406 106.730469 C 400.691406 106.730469 398.726562 111.628906 402.164062 118.210938 C 402.164062 118.210938 397.449219 124.910156 389.988281 124.867188 C 380.34375 124.816406 384.585938 121.339844 384.585938 121.339844 C 384.585938 121.339844 386.058594 118.988281 385.769531 114.777344 Z M 400.691406 106.730469 "/>
<g clip-path="url(#clip2)" clip-rule="nonzero">
<path style=" stroke:none;fill-rule:nonzero;fill:rgb(76.470588%,43.529412%,4.313725%);fill-opacity:1;" d="M 399.183594 109.640625 C 398.988281 110.554688 398.957031 114.503906 397.324219 115.617188 C 395.203125 117.054688 388.976562 119.308594 384.261719 117.609375 C 383.65625 117.394531 380.660156 108.597656 380.855469 105.59375 C 381.054688 102.585938 381.121094 91.9375 387.792969 89.261719 C 394.464844 86.582031 402.453125 88.078125 404.679688 95.921875 C 405.589844 99.128906 404.835938 102 403.632812 104.28125 C 403.632812 104.28125 404.402344 105.660156 403.167969 107.035156 C 401.820312 108.539062 399.183594 109.640625 399.183594 109.640625 Z M 399.183594 109.640625 "/>
</g>
<g clip-path="url(#clip3)" clip-rule="nonzero">
<path style=" stroke:none;fill-rule:nonzero;fill:rgb(44.705882%,17.647059%,32.941176%);fill-opacity:1;" d="M 403.636719 104.277344 C 402.066406 102.507812 399.902344 105.65625 399.902344 105.65625 L 399.875 105.824219 C 399.273438 105.5 398.785156 105.054688 398.410156 104.484375 C 397.507812 103.121094 397.429688 101.605469 397.550781 96.148438 C 397.550781 96.148438 388.789062 97.070312 382.433594 95.546875 C 383.410156 92.824219 385.039062 90.363281 387.796875 89.257812 C 394.472656 86.578125 402.457031 88.074219 404.683594 95.917969 C 405.59375 99.125 404.839844 101.996094 403.636719 104.277344 Z M 403.636719 104.277344 "/>
</g>
<path style=" stroke:none;fill-rule:nonzero;fill:rgb(94.117647%,88.235294%,83.137255%);fill-opacity:1;" d="M 392.015625 122.277344 C 393.238281 121.714844 398.300781 119.871094 401.878906 116.257812 C 401.878906 116.257812 405.449219 119.710938 405.480469 120.328125 C 405.511719 120.941406 397.917969 126.078125 395.78125 126.296875 Z M 392.015625 122.277344 "/>
<path style=" stroke:none;fill-rule:nonzero;fill:rgb(94.117647%,88.235294%,83.137255%);fill-opacity:1;" d="M 384.59375 119.503906 C 384.933594 120.113281 385.789062 121.550781 388.230469 122.203125 C 388.230469 122.203125 386.441406 125.121094 384.785156 126.035156 C 384.785156 126.035156 382.078125 124.855469 381.339844 123.316406 C 380.855469 122.300781 384.59375 119.503906 384.59375 119.503906 Z M 384.59375 119.503906 "/>
<path style=" stroke:none;fill-rule:nonzero;fill:rgb(84.705882%,72.941176%,63.921569%);fill-opacity:1;" d="M 388.230469 122.203125 L 389.988281 124.859375 L 392.015625 122.277344 L 393.878906 124.265625 C 393.878906 124.265625 391.28125 125.496094 386.4375 124.613281 Z M 388.230469 122.203125 "/>
<g clip-path="url(#clip4)" clip-rule="nonzero">
<path style=" stroke:none;fill-rule:nonzero;fill:rgb(100%,100%,100%);fill-opacity:1;" d="M 295.46875 189.988281 L 387.613281 189.988281 C 387.832031 189.988281 388.054688 190.007812 388.269531 190.050781 C 388.488281 190.09375 388.699219 190.160156 388.90625 190.246094 C 389.109375 190.328125 389.304688 190.433594 389.488281 190.554688 C 389.675781 190.679688 389.847656 190.820312 390.003906 190.976562 C 390.160156 191.132812 390.300781 191.304688 390.421875 191.488281 C 390.546875 191.671875 390.652344 191.867188 390.738281 192.070312 C 390.820312 192.277344 390.886719 192.488281 390.929688 192.703125 C 390.972656 192.921875 390.992188 193.140625 390.992188 193.363281 L 390.992188 194.257812 C 390.992188 194.480469 390.972656 194.699219 390.929688 194.917969 C 390.886719 195.132812 390.820312 195.34375 390.738281 195.550781 C 390.652344 195.753906 390.546875 195.949219 390.421875 196.132812 C 390.300781 196.316406 390.160156 196.488281 390.003906 196.644531 C 389.847656 196.800781 389.675781 196.941406 389.488281 197.0625 C 389.304688 197.1875 389.109375 197.292969 388.90625 197.375 C 388.699219 197.460938 388.488281 197.527344 388.269531 197.570312 C 388.054688 197.613281 387.832031 197.632812 387.613281 197.632812 L 295.636719 197.632812 "/>
</g>
<g clip-path="url(#clip5)" clip-rule="nonzero">
<path style="fill:none;stroke-width:6;stroke-linecap:butt;stroke-linejoin:miter;stroke:rgb(84.705882%,72.941176%,63.921569%);stroke-opacity:1;stroke-miterlimit:10;" d="M -0.00213161 604.005289 L 544.792449 604.005289 C 546.085784 604.005289 547.402215 604.120999 548.672456 604.375561 C 549.965792 604.630122 551.212937 605.023535 552.436987 605.532659 C 553.637941 606.01864 554.792705 606.643473 555.878184 607.360873 C 556.986757 608.101416 558.002949 608.934526 558.926761 609.860205 C 559.850572 610.785883 560.682002 611.804129 561.421051 612.891801 C 562.137005 613.979473 562.760577 615.136571 563.268673 616.339953 C 563.753674 617.566477 564.146294 618.816142 564.400342 620.08895 C 564.65439 621.3849 564.769867 622.680849 564.769867 623.999941 L 564.769867 629.299449 C 564.769867 630.618541 564.65439 631.914491 564.400342 633.21044 C 564.146294 634.483248 563.753674 635.732914 563.268673 636.959437 C 562.760577 638.162819 562.137005 639.319917 561.421051 640.407589 C 560.682002 641.495261 559.850572 642.513507 558.926761 643.439186 C 558.002949 644.364864 556.986757 645.197974 555.878184 645.915375 C 554.792705 646.655918 553.637941 647.280751 552.436987 647.766732 C 551.212937 648.275855 549.965792 648.669268 548.672456 648.92383 C 547.402215 649.178391 546.085784 649.294101 544.792449 649.294101 L 0.990965 649.294101 " transform="matrix(0.169136,0,0,0.168795,295.469111,88.035125)"/>
</g>
<g clip-path="url(#clip6)" clip-rule="nonzero">
<path style=" stroke:none;fill-rule:nonzero;fill:rgb(100%,100%,100%);fill-opacity:1;" d="M 368.191406 315.597656 L 368.191406 197.753906 L 375.550781 197.753906 L 375.550781 315.59375 "/>
</g>
<path style=" stroke:none;fill-rule:nonzero;fill:rgb(94.117647%,88.235294%,83.137255%);fill-opacity:1;" d="M 368.191406 200.097656 L 368.191406 197.753906 L 375.550781 197.753906 L 375.550781 205.898438 Z M 368.191406 200.097656 "/>
<g clip-path="url(#clip7)" clip-rule="nonzero">
<path style="fill:none;stroke-width:6;stroke-linecap:butt;stroke-linejoin:miter;stroke:rgb(84.705882%,72.941176%,63.921569%);stroke-opacity:1;stroke-miterlimit:10;" d="M 429.962712 1347.139842 L 429.962712 650.011502 L 473.474221 650.011502 L 473.474221 1347.1167 " transform="matrix(0.169136,0,0,0.168795,295.469111,88.035125)"/>
</g>
<path style="fill-rule:nonzero;fill:rgb(100%,100%,100%);fill-opacity:1;stroke-width:5;stroke-linecap:butt;stroke-linejoin:miter;stroke:rgb(24.705882%,30.196078%,56.470588%);stroke-opacity:1;stroke-miterlimit:10;" d="M 447.83846 604.005289 L 230.003771 604.005289 C 228.29472 604.005289 226.63186 603.750728 224.992095 603.287889 C 223.35233 602.825049 221.804946 602.130791 220.349943 601.205112 C 218.918036 600.302576 217.6247 599.214904 216.493031 597.942096 C 215.361362 596.669289 214.414456 595.257629 213.698502 593.707118 L 143.280991 446.593692 C 143.119324 446.246562 142.957657 445.876291 142.842181 445.50602 C 142.726704 445.15889 142.611228 444.765477 142.541942 444.395206 C 142.472656 444.001792 142.426465 443.631521 142.40337 443.238108 C 142.35718 442.844694 142.35718 442.451281 142.380275 442.057868 C 142.40337 441.664455 142.449561 441.294183 142.518847 440.90077 C 142.611228 440.530499 142.703609 440.137085 142.819085 439.766814 C 142.934562 439.396543 143.073133 439.049413 143.2348 438.679142 C 143.396467 438.332013 143.58123 437.984883 143.789087 437.660896 C 143.996945 437.336908 144.227897 437.012921 144.481945 436.712076 C 144.735994 436.41123 144.990042 436.133527 145.29028 435.855823 C 145.567424 435.601262 145.867662 435.3467 146.167901 435.11528 C 146.491235 434.883861 146.814569 434.675583 147.160998 434.490448 C 147.507427 434.305312 147.853856 434.143318 148.223381 434.004467 C 148.56981 433.842473 148.939335 433.726763 149.331954 433.634195 C 149.701479 433.541627 150.094099 433.472201 150.463623 433.402776 C 150.856243 433.356492 151.248863 433.33335 151.641483 433.33335 L 369.476172 433.33335 C 371.185222 433.33335 372.848083 433.587911 374.487848 434.05075 C 376.127613 434.51359 377.674996 435.207848 379.106904 436.133527 C 380.538811 437.036063 381.832147 438.123735 382.986911 439.396543 C 384.11858 440.66935 385.042391 442.08101 385.78144 443.631521 L 456.198951 590.768089 C 456.360618 591.115219 456.49919 591.462348 456.614666 591.832619 C 456.753238 592.202891 456.845619 592.596304 456.914905 592.966575 C 456.984191 593.359989 457.030381 593.73026 457.076572 594.123673 C 457.099667 594.517087 457.099667 594.9105 457.076572 595.280771 C 457.053477 595.674184 457.007286 596.067598 456.938 596.437869 C 456.868714 596.831282 456.776333 597.201554 456.637762 597.571825 C 456.522285 597.942096 456.383714 598.312368 456.222047 598.659497 C 456.06038 599.006626 455.852522 599.353756 455.66776 599.677743 C 455.459902 600.001731 455.22895 600.325718 454.974901 600.626563 C 454.720853 600.927409 454.466805 601.205112 454.189662 601.482816 C 453.889423 601.737377 453.589185 601.991939 453.288946 602.223359 C 452.965612 602.454778 452.642278 602.663056 452.295849 602.848191 C 451.94942 603.033327 451.60299 603.195321 451.256561 603.357315 C 450.887037 603.496166 450.517512 603.611876 450.147988 603.704444 C 449.755368 603.797012 449.385843 603.866438 448.993224 603.935863 C 448.600604 603.982147 448.207984 604.005289 447.83846 604.005289 Z M 447.83846 604.005289 " transform="matrix(0.169136,0,0,0.168795,295.469111,88.035125)"/>
<path style=" stroke:none;fill-rule:nonzero;fill:rgb(94.117647%,88.235294%,83.137255%);fill-opacity:1;" d="M 371.152344 189.613281 L 334.90625 189.613281 C 334.636719 189.605469 334.371094 189.558594 334.113281 189.476562 C 333.855469 189.394531 333.613281 189.28125 333.390625 189.132812 C 333.164062 188.984375 332.960938 188.808594 332.78125 188.605469 C 332.605469 188.402344 332.457031 188.179688 332.339844 187.9375 L 327.097656 176.992188 L 327.175781 176.851562 L 366.925781 176.851562 L 366.988281 176.988281 L 372.003906 187.453125 C 372.765625 188.675781 372.269531 189.613281 371.152344 189.613281 Z M 371.152344 189.613281 "/>
<path style="fill-rule:nonzero;fill:rgb(100%,100%,100%);fill-opacity:1;stroke-width:5;stroke-linecap:butt;stroke-linejoin:round;stroke:rgb(24.705882%,30.196078%,56.470588%);stroke-opacity:1;stroke-miterlimit:4;" d="M 424.997227 525.854897 L 385.157867 595.442765 C 382.155481 600.672847 375.804279 604.028431 368.829504 604.028431 L 150.994815 604.028431 C 144.181707 604.028431 139.701222 598.080948 142.634323 592.943433 L 181.087966 525.854897 Z M 424.997227 525.854897 " transform="matrix(0.169136,0,0,0.168795,295.469111,88.035125)"/>
<path style=" stroke:none;fill-rule:nonzero;fill:rgb(24.705882%,30.196078%,56.470588%);fill-opacity:1;" d="M 150.554688 296.78125 C 150.886719 299.320312 147.15625 303.792969 147.15625 306.226562 C 147.15625 307.121094 150.558594 308.335938 153.722656 309.890625 C 157.59375 311.792969 161.320312 314 162.660156 314 L 171.3125 314 C 171.3125 314 171.324219 308.996094 166.433594 308.21875 C 161.167969 307.375 158.351562 296.628906 158.351562 296.628906 Z M 150.554688 296.78125 "/>
<g clip-path="url(#clip8)" clip-rule="nonzero">
<path style="fill:none;stroke-width:6;stroke-linecap:round;stroke-linejoin:miter;stroke:rgb(82.352941%,66.666667%,57.254902%);stroke-opacity:1;stroke-miterlimit:10;" d="M 496.515395 1230.995185 C 518.927608 1241.992661 579.718757 1275.075417 587.521193 1275.075417 L 637.592474 1275.075417 " transform="matrix(0.172723,0,0,0.17298,61.18202,93.62491)"/>
</g>
<g clip-path="url(#clip9)" clip-rule="nonzero">
<path style="fill:none;stroke-width:6;stroke-linecap:round;stroke-linejoin:miter;stroke:rgb(82.352941%,66.666667%,57.254902%);stroke-opacity:1;stroke-miterlimit:10;" d="M 567.98118 1224.152813 L 586.232095 1217.039456 " transform="matrix(0.172723,0,0,0.17298,61.18202,93.62491)"/>
</g>
<g clip-path="url(#clip10)" clip-rule="nonzero">
<path style="fill:none;stroke-width:6;stroke-linecap:round;stroke-linejoin:miter;stroke:rgb(82.352941%,66.666667%,57.254902%);stroke-opacity:1;stroke-miterlimit:10;" d="M 557.781475 1212.929516 L 580.125841 1204.799965 " transform="matrix(0.172723,0,0,0.17298,61.18202,93.62491)"/>
</g>
<path style=" stroke:none;fill-rule:nonzero;fill:rgb(82.352941%,66.666667%,57.254902%);fill-opacity:1;" d="M 133.9375 206.960938 C 133.9375 206.960938 167.398438 205.75 181.609375 214.523438 C 187.859375 218.378906 160.585938 297.851562 160.585938 297.851562 C 160.585938 297.851562 151.703125 298 146.96875 295.628906 C 146.96875 295.628906 140.578125 251.863281 156.421875 234.554688 C 156.421875 234.554688 119.789062 239.65625 103.464844 228.015625 Z M 133.9375 206.960938 "/>
<path style=" stroke:none;fill-rule:nonzero;fill:rgb(24.705882%,30.196078%,56.470588%);fill-opacity:1;" d="M 174.855469 298.015625 C 175.1875 300.558594 171.632812 305.027344 171.632812 307.460938 C 171.632812 308.359375 174.859375 309.570312 178.015625 311.125 C 181.890625 313.027344 185.617188 315.238281 186.957031 315.238281 L 195.609375 315.238281 C 195.609375 315.238281 195.617188 310.234375 190.730469 309.453125 C 185.464844 308.609375 182.652344 297.863281 182.652344 297.863281 Z M 174.855469 298.015625 "/>
<g clip-path="url(#clip11)" clip-rule="nonzero">
<path style="fill:none;stroke-width:6;stroke-linecap:round;stroke-linejoin:miter;stroke:rgb(82.352941%,66.666667%,57.254902%);stroke-opacity:1;stroke-miterlimit:10;" d="M 638.225715 1238.08596 C 660.637928 1249.083436 720.388753 1282.166192 728.213804 1282.166192 L 778.307702 1282.166192 " transform="matrix(0.172723,0,0,0.17298,61.18202,93.62491)"/>
</g>
<g clip-path="url(#clip12)" clip-rule="nonzero">
<path style="fill:none;stroke-width:6;stroke-linecap:round;stroke-linejoin:miter;stroke:rgb(82.352941%,66.666667%,57.254902%);stroke-opacity:1;stroke-miterlimit:10;" d="M 717.855789 1228.217589 L 726.924706 1224.175395 " transform="matrix(0.172723,0,0,0.17298,61.18202,93.62491)"/>
</g>
<g clip-path="url(#clip13)" clip-rule="nonzero">
<path style="fill:none;stroke-width:6;stroke-linecap:round;stroke-linejoin:miter;stroke:rgb(82.352941%,66.666667%,57.254902%);stroke-opacity:1;stroke-miterlimit:10;" d="M 707.656083 1216.994292 L 720.818452 1211.935905 " transform="matrix(0.172723,0,0,0.17298,61.18202,93.62491)"/>
</g>
<path style=" stroke:none;fill-rule:nonzero;fill:rgb(84.705882%,72.941176%,63.921569%);fill-opacity:1;" d="M 98.59375 230.5 C 118.699219 246.105469 167.546875 239.433594 167.546875 239.433594 C 167.546875 239.433594 158.515625 255.347656 171.839844 299.242188 C 171.839844 299.242188 178.058594 300.28125 184.570312 299.242188 C 184.570312 299.242188 185.460938 266.269531 190.199219 230.859375 C 191.09375 224.183594 167.398438 213.78125 131.128906 212.375 Z M 98.59375 230.5 "/>
<g clip-path="url(#clip14)" clip-rule="nonzero">
<path style=" stroke:none;fill-rule:nonzero;fill:rgb(100%,69.019608%,0%);fill-opacity:1;" d="M 89.285156 121.335938 C 87.742188 119.691406 81.191406 109.441406 84.59375 101.644531 C 87.996094 93.851562 95.535156 92.566406 100.195312 94.316406 C 100.195312 94.316406 104.402344 92.644531 110.632812 98.527344 C 116.625 104.1875 120 111.230469 117.199219 115.539062 C 113.667969 120.972656 112.507812 120.800781 110.820312 123.023438 C 109.324219 124.992188 105.550781 130.210938 100.546875 127.550781 C 95.042969 124.617188 89.285156 121.335938 89.285156 121.335938 Z M 89.285156 121.335938 "/>
</g>
<path style=" stroke:none;fill-rule:nonzero;fill:rgb(100%,81.176471%,78.823529%);fill-opacity:1;" d="M 90.996094 119.042969 C 87.527344 125.3125 83.980469 129.359375 83.980469 129.359375 L 98.296875 135.980469 C 98.296875 135.980469 100.660156 128.824219 101.796875 126.464844 C 102.589844 124.816406 96.394531 120.3125 94.371094 116.085938 C 93.230469 113.710938 92.164062 113.28125 91.675781 113.535156 C 88.949219 114.921875 90.996094 119.042969 90.996094 119.042969 Z M 90.996094 119.042969 "/>
<path style=" stroke:none;fill-rule:nonzero;fill:rgb(98.039216%,71.372549%,67.843137%);fill-opacity:1;" d="M 93.59375 119.128906 C 93.46875 119.6875 93.09375 122.695312 94.859375 124.101562 C 95.957031 124.980469 98.578125 126.609375 101.1875 127.835938 C 100.597656 129.246094 99.890625 131.257812 99.324219 132.765625 C 97.003906 131.3125 94.125 128.851562 93.324219 125.175781 C 92.484375 121.320312 93.59375 119.128906 93.59375 119.128906 Z M 93.59375 119.128906 "/>
<path style=" stroke:none;fill-rule:nonzero;fill:rgb(100%,81.176471%,78.823529%);fill-opacity:1;" d="M 93.597656 119.128906 C 93.46875 119.6875 93.09375 122.695312 94.859375 124.101562 C 96.625 125.507812 102.300781 128.859375 105.582031 129.363281 C 108.863281 129.867188 112.582031 120.265625 112.835938 116.539062 C 113.089844 112.808594 114.179688 103.269531 106.59375 103.269531 C 103.253906 103.269531 94.226562 116.410156 93.597656 119.128906 Z M 93.597656 119.128906 "/>
<path style=" stroke:none;fill-rule:nonzero;fill:rgb(94.117647%,88.235294%,83.137255%);fill-opacity:1;" d="M 131.136719 212.375 C 131.136719 212.375 133.503906 209.777344 133.949219 206.960938 C 133.949219 206.960938 113.078125 191.019531 103.226562 142.613281 L 102.179688 142.523438 C 102.179688 142.523438 100.703125 181.570312 131.136719 212.375 Z M 131.136719 212.375 "/>
<path style=" stroke:none;fill-rule:nonzero;fill:rgb(24.705882%,30.196078%,56.470588%);fill-opacity:1;" d="M 103.199219 142.53125 C 110.335938 146.371094 122.984375 171.300781 122.984375 171.300781 L 111.632812 183.472656 C 119.339844 198.796875 131.136719 212.375 131.136719 212.375 C 120.910156 226.164062 98.59375 230.5 98.59375 230.5 C 98.59375 230.5 70.277344 207.589844 70.277344 167.78125 C 70.277344 146.617188 77.316406 139.226562 79.085938 136.777344 Z M 103.199219 142.53125 "/>
<path style=" stroke:none;fill-rule:nonzero;fill:rgb(27.843137%,36.078431%,66.27451%);fill-opacity:1;" d="M 77.820312 136.53125 C 77.820312 136.53125 90.855469 141.648438 103.210938 142.609375 C 103.210938 142.609375 103.0625 137.570312 101.914062 136.53125 C 100.765625 135.496094 86.535156 128.535156 83.722656 129.015625 C 80.910156 129.5 77.820312 136.53125 77.820312 136.53125 Z M 77.820312 136.53125 "/>
<path style="fill:none;stroke-width:4;stroke-linecap:butt;stroke-linejoin:miter;stroke:rgb(27.843137%,36.078431%,66.27451%);stroke-opacity:1;stroke-miterlimit:10;" d="M 211.240261 456.339311 L 292.091585 519.411077 " transform="matrix(0.172723,0,0,0.17298,61.18202,93.62491)"/>
<path style=" stroke:none;fill-rule:nonzero;fill:rgb(100%,100%,100%);fill-opacity:1;" d="M 175.25 180.796875 C 175.621094 180.765625 175.984375 180.707031 176.34375 180.625 C 176.707031 180.539062 177.058594 180.429688 177.402344 180.296875 C 177.746094 180.160156 178.082031 180 178.402344 179.816406 C 178.722656 179.632812 179.03125 179.425781 179.320312 179.199219 C 179.613281 178.96875 179.882812 178.71875 180.140625 178.449219 C 180.394531 178.183594 180.628906 177.894531 180.839844 177.59375 C 181.054688 177.289062 181.242188 176.972656 181.410156 176.640625 C 181.578125 176.308594 181.71875 175.96875 181.832031 175.617188 L 191.316406 147.035156 C 192.277344 144.144531 194.855469 141.953125 197.882812 141.703125 L 182.625 142.953125 C 179.597656 143.199219 177.015625 145.390625 176.0625 148.285156 L 166.582031 176.867188 C 165.621094 179.757812 163.644531 181.746094 160.613281 181.992188 Z M 175.25 180.796875 "/>
<g clip-path="url(#clip15)" clip-rule="nonzero">
<path style="fill:none;stroke-width:5;stroke-linecap:butt;stroke-linejoin:miter;stroke:rgb(100%,69.019608%,0%);stroke-opacity:1;stroke-miterlimit:10;" d="M 660.411771 503.942348 C 662.560268 503.761691 664.663533 503.42296 666.744182 502.948736 C 668.847448 502.45193 670.882865 501.819632 672.873052 501.051841 C 674.863238 500.261468 676.808193 499.335603 678.662685 498.274244 C 680.517177 497.212886 682.303822 496.016036 683.977388 494.706275 C 685.673569 493.373932 687.234056 491.928678 688.726696 490.370514 C 690.19672 488.834933 691.553666 487.163858 692.774916 485.425038 C 694.018783 483.663635 695.104339 481.834486 696.076817 479.915009 C 697.049294 477.995531 697.863461 476.03089 698.519318 473.998502 L 753.430371 308.76538 C 758.993847 292.054636 773.920245 279.386086 791.447455 277.940833 L 703.110316 285.1671 C 685.583106 286.589771 670.634092 299.258322 665.115848 315.991647 L 610.227411 481.22477 C 604.663935 497.935513 593.220363 509.429795 575.670537 510.852466 Z M 660.411771 503.942348 " transform="matrix(0.172723,0,0,0.17298,61.18202,93.62491)"/>
</g>
<g clip-path="url(#clip16)" clip-rule="nonzero">
<path style=" stroke:none;fill-rule:nonzero;fill:rgb(100%,100%,100%);fill-opacity:1;" d="M 175.726562 181.878906 C 176.097656 181.875 176.464844 181.84375 176.832031 181.789062 C 177.199219 181.730469 177.558594 181.644531 177.910156 181.535156 C 178.261719 181.425781 178.605469 181.289062 178.941406 181.128906 C 179.273438 180.96875 179.59375 180.785156 179.898438 180.578125 C 180.207031 180.371094 180.496094 180.140625 180.769531 179.890625 C 181.042969 179.640625 181.296875 179.371094 181.53125 179.085938 C 181.765625 178.796875 181.976562 178.496094 182.167969 178.175781 C 182.355469 177.859375 182.519531 177.527344 182.664062 177.1875 L 194.164062 149.359375 C 194.304688 149.015625 194.472656 148.683594 194.664062 148.367188 C 194.851562 148.046875 195.066406 147.746094 195.300781 147.460938 C 195.53125 147.171875 195.785156 146.902344 196.058594 146.652344 C 196.332031 146.402344 196.621094 146.175781 196.929688 145.96875 C 197.234375 145.761719 197.554688 145.578125 197.890625 145.417969 C 198.222656 145.253906 198.566406 145.121094 198.917969 145.007812 C 199.273438 144.898438 199.632812 144.816406 199.996094 144.757812 C 200.363281 144.699219 200.730469 144.667969 201.101562 144.664062 L 185.796875 144.816406 C 185.425781 144.820312 185.058594 144.851562 184.691406 144.910156 C 184.328125 144.96875 183.96875 145.050781 183.613281 145.160156 C 183.261719 145.273438 182.917969 145.40625 182.585938 145.566406 C 182.25 145.726562 181.929688 145.914062 181.625 146.121094 C 181.316406 146.328125 181.027344 146.554688 180.753906 146.804688 C 180.480469 147.054688 180.226562 147.324219 179.992188 147.609375 C 179.757812 147.898438 179.546875 148.203125 179.355469 148.519531 C 179.167969 148.835938 179 149.167969 178.859375 149.511719 L 167.359375 177.347656 C 167.214844 177.6875 167.050781 178.019531 166.859375 178.339844 C 166.671875 178.65625 166.460938 178.957031 166.226562 179.246094 C 165.992188 179.53125 165.738281 179.800781 165.464844 180.050781 C 165.191406 180.300781 164.902344 180.53125 164.59375 180.738281 C 164.289062 180.945312 163.96875 181.128906 163.636719 181.289062 C 163.300781 181.449219 162.957031 181.585938 162.605469 181.695312 C 162.25 181.804688 161.890625 181.890625 161.527344 181.945312 C 161.160156 182.003906 160.792969 182.035156 160.421875 182.039062 Z M 175.726562 181.878906 "/>
</g>
<g clip-path="url(#clip17)" clip-rule="nonzero">
<path style="fill:none;stroke-width:5;stroke-linecap:butt;stroke-linejoin:miter;stroke:rgb(100%,69.019608%,0%);stroke-opacity:1;stroke-miterlimit:10;" d="M 663.170893 510.197586 C 665.31939 510.175004 667.445271 509.994347 669.571152 509.678198 C 671.697033 509.339467 673.777682 508.842661 675.8131 508.210362 C 677.848518 507.578064 679.838704 506.787691 681.783659 505.861825 C 683.705999 504.93596 685.56049 503.874602 687.324519 502.677751 C 689.111164 501.480901 690.78473 500.148558 692.367833 498.703304 C 693.950936 497.258051 695.42096 495.699887 696.777905 494.051394 C 698.13485 492.38032 699.356101 490.641499 700.464273 488.789768 C 701.549829 486.960619 702.499691 485.041142 703.336474 483.076501 L 769.917256 322.201721 C 770.731424 320.214497 771.703901 318.29502 772.812073 316.465871 C 773.897629 314.61414 775.141496 312.875319 776.498441 311.226827 C 777.832771 309.555753 779.302795 307.997589 780.885898 306.552335 C 782.469001 305.107082 784.142566 303.797321 785.929211 302.60047 C 787.69324 301.40362 789.547732 300.342262 791.492687 299.416396 C 793.415026 298.467949 795.405212 297.700158 797.44063 297.045277 C 799.498664 296.412979 801.579313 295.938755 803.682579 295.600024 C 805.80846 295.261292 807.934341 295.080636 810.082837 295.058054 L 721.474309 295.938755 C 719.325813 295.961337 717.199932 296.141994 715.074051 296.480725 C 712.970785 296.819456 710.890136 297.29368 708.832102 297.925979 C 706.796684 298.580859 704.806498 299.34865 702.884159 300.274515 C 700.939204 301.200381 699.084712 302.284321 697.320683 303.481172 C 695.534038 304.678022 693.860473 305.987783 692.27737 307.433037 C 690.694267 308.87829 689.224243 310.436454 687.867297 312.084946 C 686.510352 313.756021 685.289101 315.517423 684.180929 317.346572 C 683.095373 319.175721 682.122896 321.095199 681.308729 323.082422 L 614.727946 484.002366 C 613.891163 485.967008 612.941301 487.886485 611.833129 489.738216 C 610.747573 491.567365 609.526322 493.306186 608.169377 494.97726 C 606.812432 496.625752 605.342408 498.183916 603.759305 499.62917 C 602.176202 501.074423 600.502636 502.406766 598.715991 503.603617 C 596.951962 504.800467 595.097471 505.861825 593.175131 506.787691 C 591.230176 507.713556 589.23999 508.503929 587.204572 509.136228 C 585.146538 509.768526 583.065889 510.265332 580.962624 510.581481 C 578.836743 510.920213 576.710862 511.100869 574.562365 511.123451 Z M 663.170893 510.197586 " transform="matrix(0.172723,0,0,0.17298,61.18202,93.62491)"/>
</g>
<path style=" stroke:none;fill-rule:nonzero;fill:rgb(100%,81.176471%,78.823529%);fill-opacity:1;" d="M 118.046875 187.464844 C 118.046875 187.464844 121.289062 191.378906 129.074219 191.359375 C 132.808594 191.359375 162.945312 168.726562 162.945312 168.726562 C 162.945312 168.726562 170.851562 167.84375 173.058594 166.324219 C 175.265625 164.808594 179.152344 156.660156 178.835938 155.457031 C 178.503906 155.476562 178.183594 155.542969 177.871094 155.652344 C 177.558594 155.765625 177.269531 155.917969 177 156.109375 C 176.730469 156.304688 176.496094 156.53125 176.292969 156.792969 C 176.089844 157.054688 175.925781 157.339844 175.800781 157.648438 C 174.996094 159.535156 171.929688 159.671875 171.929688 159.671875 L 172.589844 157.371094 C 172.589844 157.371094 169.714844 157.777344 167.527344 157.863281 C 165.339844 157.949219 162.34375 163.253906 161.804688 163.464844 C 161.265625 163.671875 129.40625 175.679688 127.589844 176.902344 C 125.777344 178.125 118.046875 187.464844 118.046875 187.464844 Z M 118.046875 187.464844 "/>
<path style=" stroke:none;fill-rule:nonzero;fill:rgb(27.843137%,36.078431%,66.27451%);fill-opacity:1;" d="M 128.183594 175.921875 C 128.65625 175.332031 124.367188 171.277344 122.984375 171.300781 C 121.601562 171.324219 110.472656 182.519531 111.410156 184.59375 C 112.351562 186.671875 115.828125 189.558594 117.480469 188.277344 C 119.132812 186.996094 128.183594 175.921875 128.183594 175.921875 Z M 128.183594 175.921875 "/>
<g clip-path="url(#clip18)" clip-rule="nonzero">
<path style="fill:none;stroke-width:6;stroke-linecap:round;stroke-linejoin:miter;stroke:rgb(100%,69.019608%,0%);stroke-opacity:1;stroke-miterlimit:10;" d="M 2.99439 440.915746 C 2.99439 440.915746 34.656447 730.689072 212.09966 817.652685 C 319.366186 870.246363 437.917973 877.179063 514.902003 874.446631 " transform="matrix(0.172723,0,0,0.17298,61.18202,93.62491)"/>
</g>
<g clip-path="url(#clip19)" clip-rule="nonzero">
<path style="fill:none;stroke-width:6;stroke-linecap:round;stroke-linejoin:miter;stroke:rgb(100%,69.019608%,0%);stroke-opacity:1;stroke-miterlimit:10;" d="M 44.290758 605.539152 L 141.515889 605.539152 C 144.523784 605.539152 147.509064 605.606899 150.494344 605.719809 C 153.502239 605.855302 156.487519 606.05854 159.472798 606.306943 C 162.435462 606.577928 165.420742 606.91666 168.383406 607.300555 C 171.368685 607.684451 174.308734 608.158674 177.271397 608.678062 C 180.211446 609.19745 183.151494 609.784585 186.068926 610.439465 C 188.986359 611.094346 191.903791 611.816972 194.798608 612.584763 C 197.693424 613.375136 200.565625 614.210673 203.41521 615.113957 C 206.264795 616.01724 209.091765 616.98827 211.918734 618.027046 C 214.723088 619.065822 217.504826 620.149762 220.263948 621.301448 C 223.045686 622.453135 225.782192 623.672567 228.496082 624.937164 C 231.187357 626.201761 233.878632 627.556686 236.524675 628.934193 C 239.170719 630.334283 241.794146 631.779536 244.394958 633.292536 C 246.973154 634.782954 249.528735 636.3637 252.061699 637.967028 C 254.572048 639.592938 257.059781 641.264012 259.502283 643.002833 C 261.944784 644.719071 264.36467 646.503056 266.716708 648.332205 C 269.091363 650.183936 271.420785 652.058249 273.704977 654.000309 C 275.989168 655.919786 278.228128 657.90701 280.421856 659.939397 C 282.615584 661.971785 284.764081 664.049337 286.889962 666.194635 C 288.993227 668.317351 291.051261 670.485231 293.064063 672.720858 C 295.054249 674.933902 297.02182 677.192111 298.944159 679.495484 C 300.843883 681.798856 302.698375 684.147393 304.507635 686.541094 C 306.316895 688.934796 308.080924 691.351079 309.777106 693.812526 C 311.473287 696.273973 313.124238 698.780585 314.729956 701.309779 C 316.313059 703.861554 317.85093 706.435912 319.320954 709.032852 C 320.813594 711.629792 322.238387 714.271896 323.595332 716.936582 C 324.952277 719.601268 326.263991 722.288536 327.507858 725.020969 C 328.751724 727.730819 329.927744 730.485834 331.058531 733.26343 C 332.166703 736.041027 333.252259 738.841205 334.247353 741.663966 C 335.242446 744.486727 336.169692 747.33207 337.051706 750.199995 C 337.933721 753.067919 338.747888 755.935844 339.494208 758.848933 C 340.240528 761.73944 340.941616 764.65253 341.552242 767.588201 C 342.162867 770.523872 342.728261 773.459543 343.225807 776.417796 L 357.812969 863.991125 " transform="matrix(0.172723,0,0,0.17298,61.18202,93.62491)"/>
</g>
<g clip-path="url(#clip20)" clip-rule="nonzero">
<path style="fill:none;stroke-width:6;stroke-linecap:round;stroke-linejoin:miter;stroke:rgb(100%,69.019608%,0%);stroke-opacity:1;stroke-miterlimit:10;" d="M 377.850528 867.242946 L 377.850528 1109.006757 C 377.850528 1110.813324 377.73745 1112.619891 377.488676 1114.403876 C 377.262519 1116.210443 376.900667 1117.994427 376.448351 1119.733248 C 375.973421 1121.494651 375.408027 1123.210889 374.706938 1124.881964 C 374.028466 1126.553038 373.214299 1128.178948 372.309668 1129.759694 C 371.405038 1131.317858 370.409945 1132.830858 369.324389 1134.276111 C 368.216217 1135.721365 367.017582 1137.07629 365.751099 1138.363469 C 364.484617 1139.650648 363.127672 1140.847498 361.680263 1141.95402 C 360.255471 1143.083125 358.762831 1144.076737 357.202344 1145.002602 L 304.756408 1175.646493 C 303.195921 1176.572358 301.680666 1177.588552 300.255873 1178.695074 C 298.83108 1179.801596 297.474135 1180.998447 296.185037 1182.285626 C 294.918555 1183.572805 293.71992 1184.92773 292.634364 1186.372983 C 291.526192 1187.818237 290.531098 1189.331237 289.626468 1190.889401 C 288.721838 1192.470147 287.930287 1194.096057 287.229198 1195.767131 C 286.550725 1197.460788 285.962716 1199.154444 285.487785 1200.915847 C 285.03547 1202.654667 284.673618 1204.438652 284.44746 1206.245219 C 284.198687 1208.029204 284.085608 1209.835771 284.085608 1211.642337 " transform="matrix(0.172723,0,0,0.17298,61.18202,93.62491)"/>
</g>
<path style=" stroke:none;fill-rule:nonzero;fill:rgb(100%,100%,100%);fill-opacity:1;" d="M 114.164062 309.214844 C 114.164062 309.46875 114.140625 309.71875 114.089844 309.96875 C 114.039062 310.214844 113.96875 310.457031 113.871094 310.691406 C 113.773438 310.925781 113.65625 311.148438 113.515625 311.355469 C 113.375 311.566406 113.214844 311.761719 113.039062 311.941406 C 112.859375 312.121094 112.664062 312.28125 112.453125 312.421875 C 112.242188 312.5625 112.019531 312.679688 111.789062 312.777344 C 111.554688 312.875 111.3125 312.949219 111.066406 312.996094 C 110.820312 313.046875 110.566406 313.070312 110.3125 313.070312 C 110.0625 313.070312 109.8125 313.046875 109.5625 312.996094 C 109.316406 312.949219 109.074219 312.875 108.839844 312.777344 C 108.609375 312.679688 108.386719 312.5625 108.175781 312.421875 C 107.964844 312.28125 107.769531 312.121094 107.59375 311.941406 C 107.414062 311.761719 107.253906 311.566406 107.113281 311.355469 C 106.972656 311.148438 106.855469 310.925781 106.757812 310.691406 C 106.660156 310.457031 106.585938 310.214844 106.539062 309.96875 C 106.488281 309.71875 106.464844 309.46875 106.464844 309.214844 C 106.464844 308.960938 106.488281 308.710938 106.539062 308.460938 C 106.585938 308.214844 106.660156 307.972656 106.757812 307.738281 C 106.855469 307.503906 106.972656 307.285156 107.113281 307.074219 C 107.253906 306.863281 107.414062 306.667969 107.59375 306.488281 C 107.769531 306.308594 107.964844 306.148438 108.175781 306.007812 C 108.386719 305.867188 108.609375 305.75 108.839844 305.652344 C 109.074219 305.554688 109.316406 305.484375 109.5625 305.433594 C 109.8125 305.382812 110.0625 305.359375 110.3125 305.359375 C 110.566406 305.359375 110.820312 305.382812 111.066406 305.433594 C 111.3125 305.484375 111.554688 305.554688 111.789062 305.652344 C 112.019531 305.75 112.242188 305.867188 112.453125 306.007812 C 112.664062 306.148438 112.859375 306.308594 113.039062 306.488281 C 113.214844 306.667969 113.375 306.863281 113.515625 307.074219 C 113.65625 307.285156 113.773438 307.503906 113.871094 307.738281 C 113.96875 307.972656 114.039062 308.214844 114.089844 308.460938 C 114.140625 308.710938 114.164062 308.960938 114.164062 309.214844 Z M 114.164062 309.214844 "/>
<g clip-path="url(#clip21)" clip-rule="nonzero">
<path style="fill:none;stroke-width:6;stroke-linecap:round;stroke-linejoin:miter;stroke:rgb(100%,69.019608%,0%);stroke-opacity:1;stroke-miterlimit:10;" d="M 306.746595 1246.328421 C 306.746595 1247.796257 306.6109 1249.24151 306.316895 1250.686764 C 306.02289 1252.109435 305.615807 1253.509525 305.050413 1254.86445 C 304.485019 1256.219375 303.806547 1257.506554 302.992379 1258.703404 C 302.178212 1259.922837 301.250966 1261.051941 300.210641 1262.090717 C 299.192932 1263.129493 298.062145 1264.055359 296.840894 1264.868314 C 295.619643 1265.681269 294.330545 1266.358732 292.996216 1266.923284 C 291.63927 1267.487836 290.237094 1267.916896 288.812301 1268.187881 C 287.387508 1268.481448 285.917484 1268.61694 284.44746 1268.61694 C 283.000052 1268.61694 281.552644 1268.481448 280.105235 1268.187881 C 278.680443 1267.916896 277.278266 1267.487836 275.921321 1266.923284 C 274.586991 1266.358732 273.297893 1265.681269 272.076642 1264.868314 C 270.855392 1264.055359 269.724604 1263.129493 268.706895 1262.090717 C 267.66657 1261.051941 266.739324 1259.922837 265.925157 1258.703404 C 265.11099 1257.506554 264.432517 1256.219375 263.867123 1254.86445 C 263.301729 1253.509525 262.87203 1252.109435 262.600641 1250.686764 C 262.306636 1249.24151 262.170942 1247.796257 262.170942 1246.328421 C 262.170942 1244.860586 262.306636 1243.415332 262.600641 1241.970079 C 262.87203 1240.547407 263.301729 1239.147318 263.867123 1237.792393 C 264.432517 1236.437468 265.11099 1235.172871 265.925157 1233.953438 C 266.739324 1232.734006 267.66657 1231.604901 268.706895 1230.566125 C 269.724604 1229.52735 270.855392 1228.601484 272.076642 1227.788529 C 273.297893 1226.975574 274.586991 1226.298111 275.921321 1225.733559 C 277.278266 1225.169007 278.680443 1224.762529 280.105235 1224.468962 C 281.552644 1224.175395 283.000052 1224.039903 284.44746 1224.039903 C 285.917484 1224.039903 287.387508 1224.175395 288.812301 1224.468962 C 290.237094 1224.762529 291.63927 1225.169007 292.996216 1225.733559 C 294.330545 1226.298111 295.619643 1226.975574 296.840894 1227.788529 C 298.062145 1228.601484 299.192932 1229.52735 300.210641 1230.566125 C 301.250966 1231.604901 302.178212 1232.734006 302.992379 1233.953438 C 303.806547 1235.172871 304.485019 1236.437468 305.050413 1237.792393 C 305.615807 1239.147318 306.02289 1240.547407 306.316895 1241.970079 C 306.6109 1243.415332 306.746595 1244.860586 306.746595 1246.328421 Z M 306.746595 1246.328421 " transform="matrix(0.172723,0,0,0.17298,61.18202,93.62491)"/>
</g>
<g clip-path="url(#clip22)" clip-rule="nonzero">
<path style="fill:none;stroke-width:6;stroke-linecap:round;stroke-linejoin:miter;stroke:rgb(100%,69.019608%,0%);stroke-opacity:1;stroke-miterlimit:10;" d="M 263.912355 1220.471933 C 264.590827 1219.794471 265.291916 1219.13959 266.01562 1218.552456 C 266.76194 1217.942739 267.530876 1217.378187 268.322427 1216.836217 C 269.113978 1216.316829 269.928146 1215.820023 270.764928 1215.368382 C 271.601711 1214.939322 272.46111 1214.532844 273.343125 1214.148949 C 274.225139 1213.787636 275.107153 1213.471486 276.034399 1213.200501 C 276.93903 1212.929516 277.866276 1212.681113 278.793522 1212.500457 C 279.720767 1212.3198 280.670629 1212.184308 281.620491 1212.093979 C 282.570353 1212.003651 283.520214 1211.958487 284.470076 1211.958487 C 285.419938 1211.958487 286.369799 1212.003651 287.319661 1212.093979 C 288.269523 1212.184308 289.196769 1212.3198 290.146631 1212.500457 C 291.073876 1212.681113 291.978507 1212.929516 292.905753 1213.200501 C 293.810383 1213.471486 294.715013 1213.787636 295.597027 1214.148949 C 296.456426 1214.532844 297.338441 1214.939322 298.175224 1215.368382 C 299.012006 1215.820023 299.826174 1216.316829 300.617725 1216.836217 C 301.409276 1217.378187 302.178212 1217.942739 302.901916 1218.552456 C 303.648236 1219.13959 304.349325 1219.794471 305.027797 1220.471933 " transform="matrix(0.172723,0,0,0.17298,61.18202,93.62491)"/>
</g>
<g clip-path="url(#clip23)" clip-rule="nonzero">
<path style="fill:none;stroke-width:6;stroke-linecap:round;stroke-linejoin:miter;stroke:rgb(100%,69.019608%,0%);stroke-opacity:1;stroke-miterlimit:10;" d="M 392.007991 869.817303 L 392.007991 1109.006757 C 392.007991 1110.813324 392.12107 1112.619891 392.347227 1114.403876 C 392.596001 1116.210443 392.935237 1117.994427 393.410168 1119.733248 C 393.885099 1121.494651 394.450492 1123.210889 395.151581 1124.881964 C 395.830053 1126.553038 396.644221 1128.178948 397.526235 1129.759694 C 398.430865 1131.317858 399.425959 1132.830858 400.534131 1134.276111 C 401.642303 1135.721365 402.818322 1137.07629 404.10742 1138.363469 C 405.373902 1139.650648 406.730847 1140.847498 408.15564 1141.95402 C 409.603048 1143.083125 411.095688 1144.076737 412.656175 1145.002602 L 465.102111 1175.646493 C 466.662598 1176.572358 468.177854 1177.588552 469.602646 1178.695074 C 471.027439 1179.801596 472.384384 1180.998447 473.673482 1182.285626 C 474.939964 1183.572805 476.138599 1184.92773 477.224156 1186.372983 C 478.332328 1187.818237 479.327421 1189.331237 480.232051 1190.911983 C 481.136681 1192.470147 481.928233 1194.096057 482.629321 1195.767131 C 483.307794 1197.460788 483.895803 1199.154444 484.348118 1200.915847 C 484.823049 1202.654667 485.162286 1204.438652 485.411059 1206.245219 C 485.637216 1208.029204 485.750295 1209.835771 485.750295 1211.642337 " transform="matrix(0.172723,0,0,0.17298,61.18202,93.62491)"/>
</g>
<path style=" stroke:none;fill-rule:nonzero;fill:rgb(100%,100%,100%);fill-opacity:1;" d="M 148.867188 309.214844 C 148.867188 309.46875 148.84375 309.71875 148.792969 309.96875 C 148.746094 310.214844 148.671875 310.457031 148.574219 310.691406 C 148.476562 310.925781 148.359375 311.148438 148.21875 311.355469 C 148.078125 311.566406 147.917969 311.761719 147.738281 311.941406 C 147.5625 312.121094 147.367188 312.28125 147.15625 312.421875 C 146.945312 312.5625 146.726562 312.679688 146.492188 312.777344 C 146.257812 312.875 146.015625 312.949219 145.769531 312.996094 C 145.519531 313.046875 145.269531 313.070312 145.019531 313.070312 C 144.765625 313.070312 144.515625 313.046875 144.265625 312.996094 C 144.019531 312.949219 143.777344 312.875 143.542969 312.777344 C 143.3125 312.679688 143.089844 312.5625 142.878906 312.421875 C 142.667969 312.28125 142.472656 312.121094 142.296875 311.941406 C 142.117188 311.761719 141.957031 311.566406 141.816406 311.355469 C 141.675781 311.148438 141.558594 310.925781 141.460938 310.691406 C 141.363281 310.457031 141.292969 310.214844 141.242188 309.96875 C 141.191406 309.71875 141.167969 309.46875 141.167969 309.214844 C 141.167969 308.960938 141.191406 308.710938 141.242188 308.460938 C 141.292969 308.214844 141.363281 307.972656 141.460938 307.738281 C 141.558594 307.503906 141.675781 307.285156 141.816406 307.074219 C 141.957031 306.863281 142.117188 306.667969 142.296875 306.488281 C 142.472656 306.308594 142.667969 306.148438 142.878906 306.007812 C 143.089844 305.867188 143.3125 305.75 143.542969 305.652344 C 143.777344 305.554688 144.019531 305.484375 144.265625 305.433594 C 144.515625 305.382812 144.765625 305.359375 145.019531 305.359375 C 145.269531 305.359375 145.519531 305.382812 145.769531 305.433594 C 146.015625 305.484375 146.257812 305.554688 146.492188 305.652344 C 146.726562 305.75 146.945312 305.867188 147.15625 306.007812 C 147.367188 306.148438 147.5625 306.308594 147.738281 306.488281 C 147.917969 306.667969 148.078125 306.863281 148.21875 307.074219 C 148.359375 307.285156 148.476562 307.503906 148.574219 307.738281 C 148.671875 307.972656 148.746094 308.214844 148.792969 308.460938 C 148.84375 308.710938 148.867188 308.960938 148.867188 309.214844 Z M 148.867188 309.214844 "/>
<g clip-path="url(#clip24)" clip-rule="nonzero">
<path style="fill:none;stroke-width:6;stroke-linecap:round;stroke-linejoin:miter;stroke:rgb(100%,69.019608%,0%);stroke-opacity:1;stroke-miterlimit:10;" d="M 507.664962 1246.328421 C 507.664962 1247.796257 507.529267 1249.24151 507.235262 1250.686764 C 506.963873 1252.109435 506.534174 1253.509525 505.96878 1254.86445 C 505.403386 1256.219375 504.724914 1257.506554 503.910747 1258.703404 C 503.096579 1259.922837 502.169333 1261.051941 501.129009 1262.090717 C 500.1113 1263.129493 498.980512 1264.055359 497.759261 1264.868314 C 496.53801 1265.681269 495.271528 1266.358732 493.914583 1266.923284 C 492.557638 1267.487836 491.155461 1267.916896 489.730668 1268.187881 C 488.28326 1268.481448 486.835851 1268.61694 485.388443 1268.61694 C 483.918419 1268.61694 482.471011 1268.481448 481.023602 1268.187881 C 479.59881 1267.916896 478.196633 1267.487836 476.839688 1266.923284 C 475.505358 1266.358732 474.21626 1265.681269 472.995009 1264.868314 C 471.773759 1264.055359 470.642971 1263.129493 469.625262 1262.090717 C 468.584937 1261.051941 467.657691 1259.922837 466.843524 1258.703404 C 466.029357 1257.506554 465.350884 1256.219375 464.78549 1254.86445 C 464.220097 1253.509525 463.813013 1252.109435 463.519008 1250.686764 C 463.225003 1249.24151 463.089309 1247.796257 463.089309 1246.328421 C 463.089309 1244.860586 463.225003 1243.415332 463.519008 1241.970079 C 463.813013 1240.547407 464.220097 1239.147318 464.78549 1237.792393 C 465.350884 1236.437468 466.029357 1235.172871 466.843524 1233.953438 C 467.657691 1232.734006 468.584937 1231.604901 469.625262 1230.566125 C 470.642971 1229.52735 471.773759 1228.601484 472.995009 1227.788529 C 474.21626 1226.975574 475.505358 1226.298111 476.839688 1225.733559 C 478.196633 1225.169007 479.59881 1224.762529 481.023602 1224.468962 C 482.471011 1224.175395 483.918419 1224.039903 485.388443 1224.039903 C 486.835851 1224.039903 488.28326 1224.175395 489.730668 1224.468962 C 491.155461 1224.762529 492.557638 1225.169007 493.914583 1225.733559 C 495.271528 1226.298111 496.53801 1226.975574 497.759261 1227.788529 C 498.980512 1228.601484 500.1113 1229.52735 501.129009 1230.566125 C 502.169333 1231.604901 503.096579 1232.734006 503.910747 1233.953438 C 504.724914 1235.172871 505.403386 1236.437468 505.96878 1237.792393 C 506.534174 1239.147318 506.963873 1240.547407 507.235262 1241.970079 C 507.529267 1243.415332 507.664962 1244.860586 507.664962 1246.328421 Z M 507.664962 1246.328421 " transform="matrix(0.172723,0,0,0.17298,61.18202,93.62491)"/>
</g>
<g clip-path="url(#clip25)" clip-rule="nonzero">
<path style="fill:none;stroke-width:6;stroke-linecap:round;stroke-linejoin:miter;stroke:rgb(100%,69.019608%,0%);stroke-opacity:1;stroke-miterlimit:10;" d="M 505.923549 1220.471933 C 505.245076 1219.794471 504.543988 1219.13959 503.820283 1218.552456 C 503.073964 1217.942739 502.327644 1217.378187 501.536092 1216.836217 C 500.744541 1216.316829 499.907758 1215.820023 499.070975 1215.368382 C 498.234192 1214.939322 497.374793 1214.532844 496.492779 1214.148949 C 495.610764 1213.787636 494.72875 1213.471486 493.801504 1213.200501 C 492.896874 1212.929516 491.969628 1212.681113 491.042382 1212.500457 C 490.115136 1212.3198 489.165274 1212.184308 488.215413 1212.093979 C 487.288167 1212.003651 486.315689 1211.958487 485.365827 1211.958487 C 484.415966 1211.958487 483.466104 1212.003651 482.538858 1212.093979 C 481.588996 1212.184308 480.639135 1212.3198 479.711889 1212.500457 C 478.762027 1212.681113 477.857397 1212.929516 476.930151 1213.200501 C 476.025521 1213.471486 475.12089 1213.787636 474.261492 1214.148949 C 473.379477 1214.532844 472.520079 1214.939322 471.683296 1215.368382 C 470.823897 1215.820023 470.00973 1216.316829 469.218178 1216.836217 C 468.426627 1217.378187 467.657691 1217.942739 466.933987 1218.552456 C 466.187667 1219.13959 465.486579 1219.794471 464.830722 1220.471933 " transform="matrix(0.172723,0,0,0.17298,61.18202,93.62491)"/>
</g>
</g>
</svg>
