<svg height="511pt" viewBox="0 -34 511.99905 511" width="511pt" xmlns="http://www.w3.org/2000/svg"><path d="m463 222.292969c0 114.324219-92.675781 207-207 207s-207-92.675781-207-207 92.675781-207 207-207 207 92.675781 207 207zm0 0" fill="#f0c48a"/><path d="m112.507812 397.800781h97.691407v40.421875h-97.691407zm0 0" fill="#a4cff2"/><path d="m179.40625 397.800781h30.792969v40.421875h-30.792969zm0 0" fill="#7babf1"/><path d="m221.710938 82.878906h21.796874v85.578125h-21.796874zm0 0" fill="#fff"/><path d="m79.203125 82.878906h21.792969v85.578125h-21.792969zm0 0" fill="#fff"/><path d="m79.203125 129.6875h21.792969v38.765625h-21.792969zm0 0" fill="#d3e6f8"/><path d="m221.710938 129.6875h21.796874v38.765625h-21.796874zm0 0" fill="#d3e6f8"/><path d="m100.996094 174.316406h-21.792969c-3.238281 0-5.863281-2.625-5.863281-5.863281v-85.574219c0-3.238281 2.625-5.863281 5.863281-5.863281h21.792969c3.238281 0 5.863281 2.625 5.863281 5.863281v85.574219c0 3.238281-2.625 5.863281-5.863281 5.863281zm-15.929688-11.722656h10.070313v-73.851562h-10.070313zm0 0" fill="#4c4372"/><path d="m243.507812 174.316406h-21.796874c-3.238282 0-5.863282-2.625-5.863282-5.863281v-85.574219c0-3.238281 2.625-5.863281 5.863282-5.863281h21.796874c3.238282 0 5.863282 2.625 5.863282 5.863281v85.574219c-.003906 3.238281-2.628906 5.863281-5.863282 5.863281zm-15.933593-11.722656h10.070312v-73.851562h-10.070312zm0 0" fill="#4c4372"/><path d="m258.769531 82.875c0 14.449219-11.714843 26.164062-26.160156 26.164062-14.449219 0-26.164063-11.714843-26.164063-26.164062 0-14.445312 11.714844-26.160156 26.164063-26.160156 14.445313 0 26.160156 11.714844 26.160156 26.160156zm0 0" fill="#fd919e"/><path d="m247.808594 61.589844c1.703125 3.476562 2.664062 7.378906 2.664062 11.507812 0 14.449219-11.710937 26.164063-26.160156 26.164063-5.671875 0-10.914062-1.8125-15.199219-4.878907 4.257813 8.679688 13.175781 14.65625 23.496094 14.65625 14.449219 0 26.160156-11.714843 26.160156-26.160156 0-8.78125-4.328125-16.542968-10.960937-21.289062zm0 0" fill="#e8677d"/><path d="m232.609375 114.902344c-17.660156 0-32.023437-14.367188-32.023437-32.023438 0-17.660156 14.363281-32.023437 32.023437-32.023437 17.65625 0 32.023437 14.363281 32.023437 32.023437 0 17.65625-14.367187 32.023438-32.023437 32.023438zm0-52.324219c-11.195313 0-20.300781 9.105469-20.300781 20.300781 0 11.191406 9.105468 20.296875 20.300781 20.296875 11.191406 0 20.296875-9.105469 20.296875-20.296875 0-11.195312-9.105469-20.300781-20.296875-20.300781zm0 0" fill="#4c4372"/><path d="m116.261719 82.875c0 14.449219-11.714844 26.164062-26.160157 26.164062-14.449218 0-26.164062-11.714843-26.164062-26.164062 0-14.445312 11.714844-26.160156 26.164062-26.160156 14.445313 0 26.160157 11.714844 26.160157 26.160156zm0 0" fill="#fd919e"/><path d="m105.300781 61.589844c1.703125 3.476562 2.664063 7.378906 2.664063 11.507812 0 14.449219-11.710938 26.164063-26.160156 26.164063-5.671876 0-10.914063-1.8125-15.199219-4.878907 4.257812 8.679688 13.175781 14.65625 23.496093 14.65625 14.449219 0 26.160157-11.714843 26.160157-26.160156 0-8.78125-4.328125-16.542968-10.960938-21.289062zm0 0" fill="#e8677d"/><path d="m90.101562 114.902344c-17.660156 0-32.027343-14.367188-32.027343-32.023438 0-17.660156 14.367187-32.023437 32.027343-32.023437 17.65625 0 32.023438 14.363281 32.023438 32.023437 0 17.65625-14.367188 32.023438-32.023438 32.023438zm0-52.324219c-11.195312 0-20.300781 9.105469-20.300781 20.300781 0 11.191406 9.105469 20.296875 20.300781 20.296875 11.191407 0 20.296876-9.105469 20.296876-20.296875 0-11.195312-9.105469-20.300781-20.296876-20.300781zm0 0" fill="#4c4372"/><path d="m256.28125 397.800781h-189.851562c-16.753907 0-30.332032-13.578125-30.332032-30.328125v-189.855468c0-16.75 13.578125-30.328126 30.332032-30.328126h189.851562c16.75 0 30.328125 13.578126 30.328125 30.328126v189.851562c.003906 16.753906-13.578125 30.332031-30.328125 30.332031zm0 0" fill="#d3e6f8"/><path d="m108.757812 315.691406h105.195313v51.105469h-105.195313zm0 0" fill="#fff"/><path d="m193.796875 315.691406h20.15625v51.105469h-20.15625zm0 0" fill="#d3e6f8"/><path d="m36.097656 367.472656c0 16.75 13.578125 30.328125 30.332032 30.328125h23.671874v-62.007812l-54.003906-18.605469zm0 0" fill="#a4cff2"/><path d="m286.613281 367.472656c0 16.75-13.582031 30.328125-30.332031 30.328125h-23.671875v-62.007812l54.003906-18.605469zm0 0" fill="#a4cff2"/><path d="m285.769531 170.535156c-3.191406-13.332031-15.179687-23.246094-29.488281-23.246094h-12.773438v250.511719h12.773438c14.308594 0 26.296875-9.914062 29.488281-23.246093zm0 0" fill="#a4cff2"/><path d="m25.574219 287.96875h10.523437v-91.46875h-10.523437c-10.886719 0-19.710938 8.828125-19.710938 19.714844v52.039062c0 10.890625 8.824219 19.714844 19.710938 19.714844zm0 0" fill="#7babf1"/><path d="m297.132812 287.96875h-10.523437v-91.46875h10.523437c10.886719 0 19.714844 8.828125 19.714844 19.714844v52.039062c0 10.890625-8.828125 19.714844-19.714844 19.714844zm0 0" fill="#7babf1"/><path d="m132.355469 236.316406c0 20.007813-16.222657 36.226563-36.230469 36.226563s-36.230469-16.21875-36.230469-36.226563c0-20.011718 16.222657-36.230468 36.230469-36.230468s36.230469 16.21875 36.230469 36.230468zm0 0" fill="#fd919e"/><path d="m115.542969 205.734375c3.566406 5.609375 5.640625 12.265625 5.640625 19.40625 0 20.011719-16.21875 36.230469-36.230469 36.230469-7.144531 0-13.800781-2.078125-19.414063-5.648438 6.429688 10.109375 17.71875 16.824219 30.585938 16.824219 20.011719 0 36.230469-16.222656 36.230469-36.230469 0-12.863281-6.710938-24.152344-16.8125-30.582031zm0 0" fill="#e8677d"/><g fill="#4c4372"><path d="m256.28125 403.664062h-189.851562c-19.957032 0-36.195313-16.238281-36.195313-36.195312v-189.851562c0-19.957032 16.238281-36.191407 36.195313-36.191407h189.851562c19.957031 0 36.191406 16.234375 36.191406 36.191407v189.851562c0 19.960938-16.234375 36.195312-36.191406 36.195312zm-189.851562-250.511718c-13.492188 0-24.46875 10.972656-24.46875 24.464844v189.851562c0 13.492188 10.972656 24.472656 24.46875 24.472656h189.851562c13.492188 0 24.46875-10.976562 24.46875-24.472656v-189.851562c0-13.492188-10.976562-24.464844-24.46875-24.464844zm0 0"/><path d="m36.097656 293.832031h-10.523437c-14.101563 0-25.574219-11.472656-25.574219-25.578125v-52.039062c0-14.101563 11.472656-25.574219 25.574219-25.574219h10.523437c3.238282 0 5.863282 2.625 5.863282 5.863281v91.464844c0 3.238281-2.625 5.863281-5.863282 5.863281zm-10.523437-91.46875c-7.636719 0-13.847657 6.214844-13.847657 13.851563v52.039062c0 7.636719 6.210938 13.851563 13.847657 13.851563h4.660156v-79.742188zm0 0"/><path d="m297.132812 293.832031h-10.519531c-3.238281 0-5.863281-2.625-5.863281-5.863281v-91.46875c0-3.238281 2.625-5.863281 5.863281-5.863281h10.519531c14.101563 0 25.578126 11.472656 25.578126 25.578125v52.039062c0 14.105469-11.476563 25.578125-25.578126 25.578125zm-4.660156-11.726562h4.660156c7.636719 0 13.851563-6.214844 13.851563-13.851563v-52.039062c0-7.636719-6.214844-13.851563-13.851563-13.851563h-4.660156zm0 0"/><path d="m90.101562 403.664062c-3.238281 0-5.863281-2.625-5.863281-5.863281v-57.8125l-50.035156-17.078125c-3.0625-1.042968-4.699219-4.375-3.652344-7.441406 1.042969-3.0625 4.378907-4.699219 7.441407-3.652344l54 18.429688c2.375.808594 3.972656 3.039062 3.972656 5.546875v62.007812c0 3.238281-2.625 5.863281-5.863282 5.863281zm0 0"/><path d="m231.769531 403.664062c-3.238281 0-5.863281-2.625-5.863281-5.863281v-62.007812c0-2.507813 1.59375-4.738281 3.96875-5.550781l54.003906-18.429688c3.066406-1.042969 6.394532.59375 7.441406 3.65625 1.042969 3.0625-.59375 6.394531-3.65625 7.441406l-50.035156 17.074219v57.816406c.003906 3.238281-2.621094 5.863281-5.859375 5.863281zm0 0"/><path d="m213.953125 372.660156h-105.195313c-3.238281 0-5.863281-2.625-5.863281-5.863281v-51.105469c0-3.238281 2.625-5.863281 5.863281-5.863281h105.195313c3.238281 0 5.863281 2.625 5.863281 5.863281v51.105469c0 3.238281-2.625 5.863281-5.863281 5.863281zm-99.335937-11.726562h93.472656v-39.382813h-93.472656zm0 0"/><path d="m213.953125 347.105469h-105.195313c-3.238281 0-5.863281-2.625-5.863281-5.863281 0-3.238282 2.625-5.863282 5.863281-5.863282h105.195313c3.238281 0 5.863281 2.625 5.863281 5.863282 0 3.238281-2.625 5.863281-5.863281 5.863281zm0 0"/><path d="m143.300781 372.660156c-3.238281 0-5.863281-2.625-5.863281-5.863281v-51.105469c0-3.238281 2.625-5.863281 5.863281-5.863281s5.863281 2.625 5.863281 5.863281v51.105469c0 3.238281-2.625 5.863281-5.863281 5.863281zm0 0"/><path d="m179.40625 372.660156c-3.238281 0-5.863281-2.625-5.863281-5.863281v-51.105469c0-3.238281 2.625-5.863281 5.863281-5.863281s5.863281 2.625 5.863281 5.863281v51.105469c0 3.238281-2.625 5.863281-5.863281 5.863281zm0 0"/><path d="m210.199219 444.085938h-97.691407c-3.238281 0-5.863281-2.625-5.863281-5.863282v-40.421875c0-3.238281 2.625-5.863281 5.863281-5.863281h97.691407c3.238281 0 5.863281 2.625 5.863281 5.863281v40.421875c0 3.238282-2.625 5.863282-5.863281 5.863282zm-91.828125-11.726563h85.964844v-28.695313h-85.964844zm0 0"/></g><path d="m262.8125 236.316406c0 20.007813-16.21875 36.226563-36.230469 36.226563-20.007812 0-36.230469-16.21875-36.230469-36.226563 0-20.011718 16.222657-36.230468 36.230469-36.230468 20.011719 0 36.230469 16.21875 36.230469 36.230468zm0 0" fill="#fd919e"/><path d="m246 205.734375c3.566406 5.609375 5.640625 12.265625 5.640625 19.40625 0 20.011719-16.21875 36.230469-36.230469 36.230469-7.144531 0-13.800781-2.078125-19.414062-5.648438 6.429687 10.109375 17.71875 16.824219 30.585937 16.824219 20.011719 0 36.230469-16.222656 36.230469-36.230469 0-12.863281-6.707031-24.152344-16.8125-30.582031zm0 0" fill="#e8677d"/><path d="m96.125 278.410156c-23.210938 0-42.09375-18.882812-42.09375-42.09375 0-23.210937 18.882812-42.09375 42.09375-42.09375s42.09375 18.882813 42.09375 42.09375c0 23.210938-18.882812 42.09375-42.09375 42.09375zm0-72.460937c-16.742188 0-30.367188 13.621093-30.367188 30.367187 0 16.742188 13.625 30.367188 30.367188 30.367188 16.746094 0 30.367188-13.625 30.367188-30.367188 0-16.746094-13.621094-30.367187-30.367188-30.367187zm0 0" fill="#4c4372"/><path d="m226.582031 278.410156c-23.210937 0-42.09375-18.882812-42.09375-42.09375 0-23.210937 18.882813-42.09375 42.09375-42.09375 23.210938 0 42.09375 18.882813 42.09375 42.09375 0 23.210938-18.882812 42.09375-42.09375 42.09375zm0-72.460937c-16.742187 0-30.367187 13.621093-30.367187 30.367187 0 16.742188 13.625 30.367188 30.367187 30.367188 16.746094 0 30.367188-13.625 30.367188-30.367188 0-16.746094-13.621094-30.367187-30.367188-30.367187zm0 0" fill="#4c4372"/><path d="m389.835938 218.183594c0 9.8125 7.953124 17.769531 17.769531 17.769531h36.609375c9.816406 0 17.769531-7.957031 17.769531-17.769531v-45.613282c0-8.160156 3.84375-15.902343 10.488281-20.644531 20.761719-14.820312 34.164063-39.292969 33.652344-66.867187-.820312-43.925782-37.273438-79.222656-81.203125-78.691406-43.855469.53125-79.238281 36.246093-79.238281 80.222656 0 26.804687 13.144531 50.535156 33.339844 65.101562 6.730468 4.859375 10.8125 12.574219 10.8125 20.875zm0 0" fill="#fff"/><path d="m506.121094 85.058594c-.816406-43.925782-37.269532-79.222656-81.199219-78.691406-2.988281.039062-5.933594.242187-8.832031.597656 38.980468 4.78125 69.710937 37.808594 70.464844 78.09375.511718 27.574218-12.890626 52.046875-33.65625 66.867187-6.640626 4.742188-10.484376 12.484375-10.484376 20.644531v45.613282c0 9.8125-7.953124 17.769531-17.769531 17.769531h19.570313c9.8125 0 17.769531-7.957031 17.769531-17.769531v-45.613282c0-8.160156 3.84375-15.902343 10.484375-20.644531 20.765625-14.820312 34.167969-39.292969 33.652344-66.867187zm0 0" fill="#d3e6f8"/><path d="m461.984375 218.183594v-45.613282c0-2.90625.496094-5.75 1.421875-8.433593h-75.03125c.945312 2.671875 1.460938 5.515625 1.460938 8.429687v45.617188c0 9.8125 7.953124 17.769531 17.769531 17.769531h36.609375c9.8125 0 17.769531-7.957031 17.769531-17.769531zm0 0" fill="#d3e6f8"/><path d="m440.445312 235.953125h3.769532c9.8125 0 17.769531-7.957031 17.769531-17.769531v-45.613282c0-2.90625.496094-5.75 1.421875-8.433593h-22.960938zm0 0" fill="#a4cff2"/><path d="m444.214844 241.816406h-36.609375c-13.03125 0-23.632813-10.601562-23.632813-23.632812v-45.617188c0-6.308594-3.132812-12.332031-8.382812-16.117187-22.398438-16.160157-35.773438-42.277344-35.773438-69.859375 0-22.808594 8.832032-44.304688 24.871094-60.527344 16.023438-16.203125 37.386719-25.28125 60.160156-25.558594.347656-.003906.703125-.003906 1.050782-.003906 46.699218 0 85.214843 37.664062 86.085937 84.449219.53125 28.410156-12.96875 55.230469-36.109375 71.75-5.027344 3.589843-8.027344 9.519531-8.027344 15.867187v45.613282c0 13.035156-10.601562 23.636718-23.632812 23.636718zm-18.316406-229.589844c-.300782 0-.605469 0-.90625.003907-19.671876.238281-38.125 8.078125-51.96875 22.078125-13.851563 14.011718-21.480469 32.578125-21.480469 52.28125 0 23.828125 11.554687 46.386718 30.910156 60.347656 8.292969 5.984375 13.242187 15.566406 13.242187 25.632812v45.613282c0 6.566406 5.34375 11.90625 11.910157 11.90625h36.609375c6.566406 0 11.90625-5.339844 11.90625-11.90625v-45.613282c0-10.128906 4.839844-19.628906 12.941406-25.414062 19.996094-14.269531 31.660156-37.445312 31.199219-61.988281-.753907-40.40625-34.023438-72.941407-74.363281-72.941407zm0 0" fill="#4c4372"/><path d="m417.886719 85.296875h16.046875v78.839844h-16.046875zm0 0" fill="#fd919e"/><path d="m417.886719 136.65625h16.046875v27.480469h-16.046875zm0 0" fill="#e8677d"/><path d="m448.800781 111.664062h-45.785156c-7.28125 0-13.179687-5.902343-13.179687-13.183593s5.898437-13.183594 13.179687-13.183594h45.785156c7.28125 0 13.183594 5.902344 13.183594 13.183594s-5.902344 13.183593-13.183594 13.183593zm0 0" fill="#fd919e"/><path d="m448.800781 85.296875h-3.886719v26.367187h3.886719c7.28125 0 13.183594-5.902343 13.183594-13.183593 0-7.277344-5.902344-13.183594-13.183594-13.183594zm0 0" fill="#e8677d"/><path d="m425.910156 256.414062c-8.03125 0-14.539062-6.507812-14.539062-14.539062v-5.921875h29.074218v5.921875c0 8.03125-6.507812 14.539062-14.535156 14.539062zm0 0" fill="#7babf1"/><path d="m425.910156 262.277344c-11.25 0-20.402344-9.152344-20.402344-20.402344v-5.921875c0-3.238281 2.625-5.863281 5.863282-5.863281h29.074218c3.238282 0 5.863282 2.625 5.863282 5.863281v5.921875c0 11.25-9.152344 20.402344-20.398438 20.402344zm-8.675781-20.460938v.058594c0 4.785156 3.890625 8.675781 8.675781 8.675781 4.78125 0 8.675782-3.890625 8.675782-8.675781v-.058594zm0 0" fill="#4c4372"/><path d="m461.984375 170h-72.148437c-3.238282 0-5.863282-2.625-5.863282-5.863281s2.625-5.863281 5.863282-5.863281h72.148437c3.238281 0 5.863281 2.625 5.863281 5.863281s-2.625 5.863281-5.863281 5.863281zm0 0" fill="#4c4372"/><path d="m461.984375 194.863281h-72.148437c-3.238282 0-5.863282-2.625-5.863282-5.863281s2.625-5.863281 5.863282-5.863281h72.148437c3.238281 0 5.863281 2.625 5.863281 5.863281s-2.625 5.863281-5.863281 5.863281zm0 0" fill="#4c4372"/><path d="m461.984375 219.726562h-72.148437c-3.238282 0-5.863282-2.625-5.863282-5.863281s2.625-5.863281 5.863282-5.863281h72.148437c3.238281 0 5.863281 2.625 5.863281 5.863281s-2.625 5.863281-5.863281 5.863281zm0 0" fill="#4c4372"/><path d="m448.800781 117.527344h-45.785156c-10.5 0-19.042969-8.542969-19.042969-19.046875 0-10.5 8.542969-19.042969 19.042969-19.042969h45.785156c10.503907 0 19.046875 8.542969 19.046875 19.042969 0 10.503906-8.542968 19.046875-19.046875 19.046875zm-45.785156-26.367188c-4.035156 0-7.320313 3.285156-7.320313 7.320313 0 4.035156 3.285157 7.320312 7.320313 7.320312h45.785156c4.039063 0 7.320313-3.28125 7.320313-7.320312 0-4.035157-3.28125-7.320313-7.320313-7.320313zm0 0" fill="#4c4372"/><path d="m433.933594 170h-16.046875c-3.238281 0-5.863281-2.625-5.863281-5.863281v-78.839844c0-3.238281 2.625-5.863281 5.863281-5.863281h16.046875c3.238281 0 5.863281 2.625 5.863281 5.863281v78.839844c0 3.238281-2.625 5.863281-5.863281 5.863281zm-10.1875-11.722656h4.324218v-67.117188h-4.324218zm0 0" fill="#4c4372"/></svg>